<?xml version="1.0" encoding="UTF-8"?>
<svg id="Layer_2" xmlns="http://www.w3.org/2000/svg" version="1.1" viewBox="0 0 743.5 658">
  <!-- Generator: Adobe Illustrator 29.8.1, SVG Export Plug-In . SVG Version: 2.1.1 Build 2)  -->
  <defs>
    <style>
      .st0, .st1 {
        fill: #8e57e5;
      }

      .st1, .st2, .st3 {
        stroke: #33348e;
        stroke-miterlimit: 10;
        stroke-width: .5px;
      }

      .st4, .st3 {
        fill: #9c2794;
      }

      .st2, .st5 {
        fill: #e98a00;
      }
    </style>
  </defs>
  <g>
    <g>
      <path class="st5" d="M498.2,629.4c.3,5.8,1,13.4,0,19.8-4.2,3.9-8.9,6.5-14.8,6.8,1.9-23.8-2.2-47.2-8.4-70.2-5.5-14.9-6-27.4-2.6-42.7h0c5.8,4.6,12.3,8.8,18.8,12.6,1.2,24.7,6.5,48.9,6.9,73.6h.1Z"/>
      <path class="st5" d="M483.5,631.7c1,7.9,0,16.4,0,24.3-7.8,3.2-12.1,1.9-19-2.1,2-28.4-3.3-57.5-15.8-83-10.3-16.4-25.5-32.2-26.7-52.5,4.3-.5,10.5,1.2,13.5-2.5,9.4,5.8,16.3,17.4,27.2,20.2,3.6,2,6.9,4.3,9.9,7h0c-.5,7.1-3.3,13.9-2.3,21.3,3.5,22.7,12.5,44.1,13.4,67.3h-.2Z"/>
      <path class="st5" d="M463.5,624.1c.9,10.1,2.2,19.7.9,29.8-8-.4-6.5-6.8-6.2-12.8-1.3-11.5-3.1-22.7-6-33.9-2-5.9-4.5-11.1-5.9-17.1-2.8-12.7-11.1-23.5-16-35.2-5.3-13.1-19.5-23-19.2-38.1,3.2,1.7,7,1.5,10.8,1.6,1.2,20.3,16.4,36.1,26.7,52.5,7.9,16.6,13.9,34.7,14.9,53.2h0Z"/>
      <path class="st5" d="M435.4,516c-4.6,4.3-15.3,2.1-21.3,1.9-7.2-2.7-13-9.1-19.2-13.8-7.1-6.5-15.8-11-20.6-19.8-8.8-8.8-16.3-21-18.8-33.2,11.3,3.2,23.5,1.6,35,.8v.3c-21.3,6.8-11.5,20.5,1.1,30.3,12.4,13.8,29.2,22,43.7,33.4h0Z"/>
    </g>
    <path class="st2" d="M355.5,451.3c2.9,12.1,10,24.1,18.9,32.9,4.8,8.8,13.5,13.3,20.6,19.8,6.2,4.6,12,11.1,19.2,13.8,6.3.2,15.9,2.3,21.1-1.7"/>
    <path class="st2" d="M491.4,555.3c1.6,31.5,9.2,62.1,6.9,93.9-4.2,3.9-8.9,6.5-14.8,6.8-6,2.5-12.4,2.7-17.6-1.5-2.8-1.4-6.5-.4-7.6-4.2,0-14.5-2.4-29-6-43.1-2-5.9-4.5-11.1-5.9-17.1-2.8-12.7-11.1-23.5-16-35.2-5.4-13.1-19-22.7-19.4-37.9"/>
    <path class="st2" d="M422,518.6c1.4,20.2,16.4,35.8,26.7,52.2,12.6,25.5,17.6,54.3,15.9,82.6"/>
    <path class="st2" d="M472.5,543.1c-3.5,15.1-2.9,28,2.6,42.7,6.2,22.9,10.4,46.3,8.4,70"/>
  </g>
  <g>
    <g>
      <path class="st4" d="M309.8,52.3c-2.9-1.3-5.3-2.7-7.8-3.2-2.2-.8,3.9,1.6,7.8,3.2ZM312.5,53.4c-.5-.2-1.4-.6-2.5-1,.8.4,1.6.7,2.5,1ZM263.8,74.8c-1.1-5.2-2-10.4-4.8-14.8,2.4,3.7,3.9,10.8,4.9,14.8h-.1ZM263.9,75.4v-.5.5ZM263.9,75.5q0,0,0,0h0ZM163.6,145.1c.3-.7.8-1.5,1.2-2.4-.4.7-.9,1.5-1.2,2.4ZM164.9,142.4c.9-1.5,4.8-8.1,3.5-6.4-.3.4-2.1,3.6-3.5,6.4ZM120,309.3c-1.9,8.8,10.3,12.5,14.8,17.4,2.5,1.8,10.8,4,10.7,8.4h.1c2.6-9.7,6.7-19.7,14.5-26.5-11.8,6.3-27.6,3.7-40.1.7ZM31.8,152.4c1.2-6.2,5.9-10.6,8.4-16.3,6.5-8.5,18.2-11.3,24.6-20.4,10.4-12.8,21.1-25.5,35.5-34.1,13.3-5.7,26.6-12.1,41.5-11.6l.5.4c12.3-12.5,28.1-23.5,45.8-26.1v-.6c14.5-14.1,33.2-21.5,52.3-27,13.9-6.3,30.1-8,45.1-9v.3c12,1.6,21.7,6.5,32.7,11.2,4.4-5.5,12.4-12.4,18.8-16.3v-.3c18.1-3.6,22.6-2,40.2,1v.2c8.6,1.7,18.3,1.3,26.3,5.5,6.6,4.7,14.7,5.4,22.4,2.9v.6c6.3,0,12.4.6,18.7.9,11.4-2.4,21.4-6.6,33.4-6.6v-2.5c13.1-.9,27,4.9,37.4,12.2l.2-.3c9.3,1.5,18.2,6.9,25.5,12.8l.3-.4c11.8,2.3,22.3,9.5,31.3,17.2l.4-.4c18,3.2,33.1,14.3,46.3,26.6,8.5,8.7,15.3,19.9,18.8,31.5l-.2.3c-1.4-.7-2.8-1.5-4-1.1,4.8,15.5,9.1,36.9,2.2,47.5v.3c5.5.5,10.8-.4,16.6-.2,10.6,3,21.5,10.3,27.3,19.9,8.6,8.3,16.4,18.4,16.8,30.9h.3c4.9,7.2,9.3,15.3,12.3,23.6,5.7,11.3,14.1,22,14.8,35.2l-.3.2c5,8.3,9.8,17.6,10.7,27.2h.7c6.5,8.5,6.1,19.7,7.4,29.9,1.4,7.6-1.1,14.7-3.2,22l.6.2c3.2,27.6,1.8,59.6-16.5,82l.2.3c-7,16.5-21.6,30.2-39.3,33.9-9.3-.3-19.6,1.9-28.1-2.7v.2c-9.4,1.4-19.2-1.7-26.2-8.1-3.2-2.2-7.3-2.8-9.7-6.1-6,.7-11.5-2.7-17.4-3.3-5-.4-11.7-.5-15.7-3.6-14,9.6-32,8.7-48.1,6.8h0c-8.7,2.3-18.7,1.6-26.9-1.9l-.2.3c-5.3,4.8-12.7,5.5-19.5,6.7-3,1.3-6,2.3-9.3,2.2-14.4,1.4-26.5-6.7-38.6-13.3-20.2,7.7-43.5,1.6-64.2-1.8v.2c-15.6,10.6-32.3,19.1-50.8,23.2-18.6,6-37.8,6.1-55.5-2.2l-.2.5c-15.6,3.4-34-3-47.4-10.9v-.2c-16.3,1.6-32.7-1.5-45.2-12.1-5.4-3.4-9.8-7.6-13.1-13.1-1.4-2.3.5-4.8-1.7-5.8-24.8-6-37.9-36.2-28.1-59.3h-.3v-.2h-.3c-22.8,13.1-67.4-.1-82.2-21.2l.2-.4c-5.8-2.6-10.6-6.6-14.8-11.3-12.8-9.4-24-22.5-23.7-39.3h.6c-2-4.1-3.1-7.4-3.1-12.1l.3-.3c-13.6-15-19.9-39-10.7-57.8h0c1.7-17,5.6-33.9,18.1-46.3,2.1-4.3,4.8-8.2,9.3-10.1h0l-.2-.2h0Z"/>
      <path class="st4" d="M676.2,150.3c.9,5.5,2.3,10.2,1.9,15.9l-.7.3c-6.4-7.1-15.4-13.5-24.7-15.8-5.7-.2-11.1.7-16.6.2v-.3c6.9-10.6,2.5-32-2.2-47.5,9.8,2.4,19.4,10.1,25.8,18.1,5.8,9.4,14.2,18,16.5,29.2h0Z"/>
      <path class="st4" d="M477.8,4.6v2.5c-11.9,0-21.9,4.2-33.3,6.7-6.3-.3-12.4-.9-18.7-.9v-.6c16.6-7,34.3-7.2,52-7.6h0Z"/>
      <path class="st4" d="M415.2,445.1c-21.9,9-45.9,9-68.8,4.7v-.2c12.3-4,23.2-11.4,34.1-18.2v-.2c20.7,3.4,44.1,9.5,64.3,1.8,6.7,3.9,13.8,7.3,20.5,10.9v.4c-15.6,8.4-33.7,3.1-50,.8h-.1Z"/>
      <path class="st4" d="M408.9,12.2c-9.5-6.2-20.9-6.8-31.7-8.3v-.2c-.6,0-1.1,0-1.7-.2v-.2c23.1-2.8,47.2-4.2,69.6,3-11.7,2.4-24.1,10.6-36.2,5.9h0Z"/>
      <path class="st4" d="M336.9,2.7v.3c-6.3,3.9-14.4,10.8-18.8,16.3-11-4.8-20.7-9.6-32.6-11.2v-.3c15.6-6.9,34.3-6.4,51.4-5.1h0Z"/>
      <path class="st4" d="M192,40.1h0c-1.4,1.1-2.7,2.3-3.9,3.6v.6c-17.6,2.6-33.4,13.6-45.7,26.1l-.5-.4c-3.6,0-7,.4-10.4.8v-.3c16.7-15.2,37.3-29.2,60.5-30.4h0Z"/>
      <path class="st4" d="M160.1,308.6c-7.8,6.8-11.9,16.7-14.5,26.5h-.1c.1-4.4-8.2-6.6-10.7-8.4-4.5-4.9-16.7-8.7-14.8-17.4,12.5,3,28.3,5.6,40.1-.7Z"/>
      <path class="st3" d="M263.8,74.8c-.8-4-1.7-8.4-3.3-11.9-2.8-4.8-6.8-10.9-1.6-15.2,22.2-24,30.3-11.7,51.9-20.8,4.1-1.7,4.7-4.7,7.7-8,4.2-5.3,12.3-12.2,18.5-15.9"/>
      <path class="st3" d="M263.9,75.4v-.5"/>
      <path class="st3" d="M263.9,75.5q0,0,0,0h0Z"/>
      <path class="st3" d="M263.9,75.5h0"/>
      <path class="st3" d="M263.8,74.9v.5"/>
      <path class="st3" d="M263.8,74.9h0"/>
      <path class="st3" d="M84.1,121.9c64.6,23.4,58.7-4.9,92.2-47.9,15.1-16.1,33.4-24.7,55.2-24.6,19.2-1.7,29.5,6.4,32.3,25.4"/>
      <path class="st3" d="M113.3,107.3c20.7-31,52.2-71.2,94.3-62.2"/>
      <path class="st3" d="M285.5,8c12.1,1.6,21.9,6.6,33,11.4"/>
      <path class="st3" d="M164.8,142.7c-10.6,22.4,2,51.8,22.3,64.4"/>
      <path class="st3" d="M164.9,142.4c1.5-2.8,3.3-6.1,3.5-6.4,1.3-1.7-2.7,4.9-3.5,6.4Z"/>
      <path class="st3" d="M164.9,142.4v.2"/>
      <path class="st3" d="M43.8,162.7c33.1-18.3,56.6,1.4,87.1,8.4,3.9-.3,7.4-1.9,10.6-5.6,7.2-7.8,19.3-11.8,23.3-22.8"/>
      <path class="st3" d="M313.2,53.7c6.8,1.3,11.3,8.5,17.5,10.7,8.5,0,19.2-3.7,28.6-2.3"/>
      <path class="st3" d="M310,52.4c1.1.5,2,.8,2.5,1"/>
      <path class="st3" d="M309.8,52.3c-2.9-1.3-5.3-2.7-7.8-3.2-2.2-.8,3.9,1.6,7.8,3.2Z"/>
      <path class="st3" d="M309.8,52.3h.1"/>
      <path class="st3" d="M312.5,53.4c-.9-.3-1.7-.7-2.5-1"/>
      <path class="st3" d="M312.5,53.4c.2,0,.5.2.8.3"/>
      <path class="st3" d="M209.7,90.6c6.2,14,17.7,31.8,31.2,40,4.3,3.3,9,1.4,12-2.2,6.9-7.7,15.1-15.2,23-22.3,12.2-11.4,21.2-22.7,36.4-30.8,4.8-2.7,11.2-6.8,15.1-8.8,2-1.1-3.2-5.3-4.4-6.9-1.7-2.3-6-4.5-9.8-5.9"/>
      <path class="st3" d="M537.5,93.6c16,14.8,2.5,15.2,26.4,16.3,41.1,8.8,50.7,30.9,27,65.6-19.5,15.4-9.1,19.1-12.9,38.3-1.3,2.9-13.9,17-19.4,17.8-3.9,2.9-17.3,4-21.6,6.1-3.7,1.8-11.6,8.4-14.2,8.4"/>
      <path class="st3" d="M629.1,93.6c9.3,14.9,14.6,44.3,7.1,57-2.9,2-7.2-4.3-14-8.3-5.1-2.9-13-6.5-18.8-6.6"/>
      <path class="st3" d="M320.2,294c.6-24.2,23.2-39.4,38.3-55.8,5.9-6.3,11.9-15,20.7-17.6"/>
      <path class="st3" d="M52.4,184.8c24.5,1.2,24.5-.9,44.2,14.3,4.8,3.6,12.1,5.4,13,12.4,4,26.8,25.9,47.9,48.2,60.8"/>
      <path class="st3" d="M24,176.5c.7,9,4.8,14.5,7.2,23.5,4.3,22.4,6,32.6,24.5,48.5"/>
      <path class="st3" d="M66.8,204c.2,4.5-4.6,9.4-6.5,14.5-2.1,5.6-4.2,11.3-4.5,16.1-2.7,27.8,8.4,52.5,34.4,64.3"/>
      <path class="st3" d="M13.8,222.6c2.4,8.2,3.8,11.2,6.1,18.2,3.4,9.5,11.7,15.9,16.5,24.5,5.1,7.4,10,14.7,17,20.6,10.5,6.7,23,11.9,35.1,15"/>
      <path class="st3" d="M24,282.1c6.2.1,10.1,5.6,16.1,7.2,7.7,2.1,18,4.3,25.5,7.4,10.3,4.3,22.1,3.4,32.9,5.8,20,5.5,43,16.3,62.8,5.3"/>
      <path class="st3" d="M33.9,296c17.2,8.2,18.5,11.9,30.4,10.8,10.9.8,15.2,3.3,23.6-5.8"/>
      <path class="st3" d="M119.8,309.9c-.9,8.5,10.5,12,15,16.8,2.5,1.8,10.8,4,10.7,8.4"/>
      <path class="st3" d="M389.7,16.9c15,0,33.5,7.3,47.5,2.8"/>
      <path class="st3" d="M272.6,27.3c2.1-.2,10.1,2.8,10.6,4.8"/>
      <path class="st3" d="M254.5,87.3c3.2-6.9,11.2-10.7,14-17.7"/>
      <path class="st3" d="M69.5,130.9c6.3-5.8,15.6-6.7,23.6-6.3"/>
      <path class="st3" d="M97.4,108.7c-2.5,5-4.8,11.4-1.6,16.6"/>
      <path class="st3" d="M205.7,48c2.2-3.6,6.2-7,10.6-7.6"/>
      <path class="st3" d="M181.9,209.7c-.9-2.2-.6-5.2-1.7-7.3"/>
      <path class="st3" d="M134.5,176.8c.4-3,2.6-6,4.3-8.4"/>
      <path class="st3" d="M52.1,194c2.7-3.5,8.5-7.4,12.9-8.3"/>
      <path class="st3" d="M36.2,175.1c-5.8,5.5-6.4,13.8-6,21.3"/>
      <path class="st3" d="M30.2,251.2c.8,3.2,3.6,5.8,3.3,9.4"/>
      <path class="st3" d="M204.9,107.1c5,0,11.3-1.2,15.3,2.2"/>
      <path class="st3" d="M205,99.7c3.6,2.8,8.2,4.5,11.7,7.5"/>
      <path class="st3" d="M234.7,135.6c3.1-2,6.4-3.1,10.1-3.3"/>
      <path class="st3" d="M244.3,140.7c0-4.1,4.2-6.4,5.9-9.8"/>
      <path class="st3" d="M211.4,37.1c-2.4,1.4-4.2,4.6-4.7,7.4"/>
      <path class="st3" d="M77.2,307.9c-1.1,14.4,16.1,22.3,26.7,28.5"/>
      <path class="st3" d="M121.7,344.9c6,.7,12.9,2.6,18.8.6"/>
      <path class="st3" d="M181.1,203.4c.3,2.9,3.5,4.3,4.9,6.7"/>
      <path class="st3" d="M371.5,18.9c-4.2,2.1-6.8,6.4-10.2,9.5-1.6,1.3-3,2.4-2.1,4.6,3.3,8.3,3,20.8.1,29.4"/>
      <path class="st3" d="M358.9,62.3c6.7,1.6,11.7-6.1,20.7-4.3"/>
      <path class="st3" d="M351.6,17.7c4.9,0,10.1,2.4,13.5,5.8"/>
      <path class="st3" d="M377.1,3.8c43.3,3.5,20.9,18.4,68,2.5"/>
      <path class="st3" d="M389.7,9.6c5.9,0,13.5,1.3,19.2,2.6"/>
      <path class="st3" d="M424.9,12.8c12.4,0,24.6,2.5,36.7-.6"/>
      <path class="st3" d="M444.3,13.8c14.4-2.6,31.6-11.1,45.8-4.2"/>
      <path class="st3" d="M386.6,38.1c12.6,1.8,24.8,7.5,33.9,16.6,1,1.7,2.2,2.2,3.8,3.2,1,1.1,1.7,3,2.4,4.3"/>
      <path class="st3" d="M404.2,39c4.1,1.3,7.6,5.2,11.3,7.5,3.4,2.8,5.1,7.1,8,10.3"/>
      <path class="st3" d="M453.5,23.9c5,2.2,7,9.8,6.8,14.8"/>
      <path class="st3" d="M520,22.9c5.2,4.1,4.8,12.4,4.4,18.4"/>
      <path class="st3" d="M540.3,37.2c-5.2-.3-10.7,1.2-13.8,5.7"/>
      <path class="st3" d="M416.7,80.4c10.5-29,40.5-47.2,71-45.8"/>
      <path class="st3" d="M487.2,34.7c13.2,0,26.7,2.9,38.8,8.1,4.1,1.8,9.5,2.2,11.8,6.6"/>
      <path class="st3" d="M527.3,42.6c6.7-.4,13.2,2.6,18.4,6.7"/>
      <path class="st3" d="M295.9,208c3.4-2.1,7.5-2.8,11.4-3.8,11.9-5.6,8.9-22.4,15.1-32.3,5.1-11.9,10.9-23.3,15.1-35.6,6.2-9.9,13.3-19.1,19.5-29,7.4-9,18.1-12.8,27.7-18.7,10.2-6.6,22.6-7.9,34.4-7.8,11.9-2,23.5-.6,35.3,1.3,8.4-.4,18.6.6,25-5.8,1.3-1.8,1.4-4.3,2.8-6.1"/>
      <path class="st3" d="M333.2,108.3c4.3,6.3,8.8,12.9,7.8,21"/>
      <path class="st3" d="M297.6,188.1c6.9,1.6,12.3,5.2,14.5,12.3"/>
      <path class="st3" d="M457.8,57.6c14.6,1.7,45.4,2.5,52.5,16.9,3.6,8.6.4,14.1-7.7,17.7-6.8,3.3-11.2,10-17.6,13.2-6.8,3.4-13.2,5.7-18.6,11.4-10.2,12.7-19,21.1-21.9,37.7-3.8,14.6-8.1,31.3,8.3,39.6"/>
      <path class="st3" d="M421.9,192.1c5.9-5.2,15.9-10.6,23.1-4.1,1.5,2,.6,5.4,1.5,7.8"/>
      <path class="st3" d="M426.6,172.5c4.8,1.2,11.3,7.2,12.6,12"/>
      <path class="st3" d="M421.9,180.5c5.4-.7,8.9,2.6,13.6,4.3"/>
      <path class="st3" d="M431.2,162.5c9.8,6.6,8.4,12.7,10.6,22.6"/>
      <path class="st3" d="M410,117.7c16.6,4.1,36.4-5.9,51.1,5.3"/>
      <path class="st3" d="M510.2,74.6c9.7-.4,22.7-2.7,31.4,2,4.8,2.6,11.5,4.5,13.7-.6,1.9-6.6,5-28.6.7-33.6"/>
      <path class="st3" d="M553.1,78.5c30.9-.6,55.9,12.7,66.1,42.5"/>
      <path class="st3" d="M545.6,94c0,2.8-.5,5.8,0,8.6"/>
      <path class="st3" d="M573.5,170.6c3,6.7,5.5,13.7,5.2,21.2"/>
      <path class="st3" d="M529.7,130.4c6.9,2.1,14,7.4,17.5,13.7"/>
      <path class="st3" d="M571.6,135.8c-7.5-.7-16.1,1.5-22.3,6-3.8,4.2-8,8.2-11.2,12.9"/>
      <path class="st3" d="M530.7,155c5.3.5,10.9-1.2,16.1.2"/>
      <path class="st3" d="M475.2,149.8c15.9,5.1,27.7,21.9,31,37.9,3.1,9.9-5.5,13.5-12.1,18.6-12.2,11.5-29,14.2-44.6,18.3-7.8,1.8-11.7,11.6-8.3,18.2,9.7,15,27.6,21.3,41.8,31.4,7,5.8,14.8-.2,22.2-1.8,8-3.2,17.4-1.9,24.2-7.5.9-.9,3-3.8,4.1-3.8"/>
      <path class="st3" d="M546.3,214.9c-10.4-11.6-24.5-19.4-40.5-18.7"/>
      <path class="st3" d="M389.5,158.4c-1.6,8.4-7,16.2-8.1,24.9-2.1,12.3-2.5,24.9-2.2,37.4,18.5-3.1,18.5.3,35.1,4.6,8.8,1.6,18.9,2.9,25.5,9.5"/>
      <path class="st3" d="M274.3,242.8c12.2-6.8,21.6-11.3,36.1-9.5,19-2.6,37.9-8,57.2-5.7"/>
      <path class="st3" d="M269.4,164.7c0,3-3.2,6.1-4.1,9-1.9,10.4-7.5,19.5-10,29.7-1,8.4-3.2,25.2,4.1,30.7,7.8.6,17.9-1.9,24.8,2.7"/>
      <path class="st3" d="M207.2,123.9c-4.8,8.4-10.8,15.8-9.2,26.2-1.4,15.3,11.3,25.2,19.6,36.2,8.7,15.7.7,35.3,8.7,51.1,1.8,3.8,2.9,11.8,8.8,7.9"/>
      <path class="st3" d="M189.5,148.4c2.5,2.6,4.4,4.7,7.7,6.2"/>
      <path class="st3" d="M191.4,141.1c.2,4.3,3.5,7.6,5.8,11"/>
      <path class="st3" d="M228.6,252.7c2.2-.7,4.6-2.8,5.9-4.7,5.7-7.5,14.5-13.3,24-13.9"/>
      <path class="st3" d="M146.6,212.1c13.3,8.3,21.3,21.8,33.3,31.4,8.6,5.5,15.2,14.8,24.8,18.5,6.8-.5,11.6-7.3,17.1-10.9,2.3-2.9,5.2-4.1,8.7-4.7"/>
      <path class="st3" d="M176.5,301.2c4.9-4.2,8.6-8.9,10.6-14.9,3.8-9.4,10.7-17.7,18.3-24.2"/>
      <path class="st3" d="M138.3,351.3c.5-2,1.3-3.9,2.3-5.9h0c7.1-11.7,7.9-26.8,18.8-36.2,7.3-5.7,12.6-14.4,21.2-18,3.1-.9,4.6-2.3,6.3-5.1"/>
      <path class="st3" d="M84.3,220.6c1.3,21.7,16.2,43.1,32,57.3,19,12.3,30.8,19.9,54.7,19.9"/>
      <path class="st3" d="M79.9,227.1c2.7,3.4,5.1,6.8,7.7,10.2"/>
      <path class="st3" d="M150.7,210.1c.8,3.3,4.2,6,5.9,9"/>
      <path class="st3" d="M525.5,220.1c7,3.1,8.6,12.2,8.6,19"/>
      <path class="st3" d="M428.6,255.7c1.3,23.9-3.1,49.1-17.2,68.8"/>
      <path class="st3" d="M417.5,315.2c-.8,15.3,1.1,11.1,10.2,20.7,6.1,8,11.8,15.6,21.1,20.1,3.9,3.6,9,3.7,13.7,5"/>
      <path class="st3" d="M435.2,346.4c-2.1,11.4,6.2,21.8,12.4,30.4"/>
      <path class="st3" d="M433.4,255.9c.3,3.3-1.8,6.7-4,9"/>
      <path class="st3" d="M425.1,293.8c6.6-.6,13.5-1.8,20.2-2.5,7.3.9,14.4,2.1,21.5,4.5,10.7,5.1,18.4,13.1,31.4,11.5,20.3.5,47.5-2.3,56.7,20.4,3.8,5.4,7.1,11.4,7.1,18.2"/>
      <path class="st3" d="M541,312.1c20.4-6.6,33.3-25.5,40.7-44.8,9.8-18,25.6-36.6,47.7-36.8"/>
      <path class="st3" d="M615.9,188.2c9.4,12.2,6.9,30,2.3,43.7"/>
      <path class="st3" d="M625.1,167.9c.2,8.5-1.4,16.5-6.1,23.6"/>
      <path class="st3" d="M667.6,175.4c-3.1,11.1-34.6-1.3-46,11.1"/>
      <path class="st3" d="M634.6,171.8c-.7,3.5-3.7,7.6-6.1,10.1"/>
      <path class="st3" d="M669.3,182.4c-1.2-1.4-3.4-3-5.3-2.9"/>
      <path class="st3" d="M628.1,222.7c-3,.8-7.1,3.9-9.2,6.3"/>
      <path class="st3" d="M688.1,226.1c-2.8-.3-5.6-3.6-8.2-4.8-7.6-2.4-20.8-.7-23.7,8-.5,6,2.5,11.5,1.7,17.6,0,5.7-.3,11.4-.7,17-1.6,6.6-2.3,14,4.4,18"/>
      <path class="st3" d="M656.6,273.3c21.6,8.9,31.6,45.7,24.4,66.4"/>
      <path class="st3" d="M691.8,248.9c3.7,17.5,1.3,39.5-12.8,51.9"/>
      <path class="st3" d="M663.2,205.6c.8,5,.7,10.1.7,15.2"/>
      <path class="st3" d="M668.9,209.8c-.2,3.9,1.1,6.8-.7,10.6"/>
      <path class="st3" d="M675,211.1c0,3,0,6.7-2.5,8.9"/>
      <path class="st3" d="M706.4,235.5c1.5,19.5,2.1,39,2.5,58.5-3.3,8.5-4.1,17.3-3.1,26.5"/>
      <path class="st3" d="M707,300.9c13.4,16.8,18.8,43.6,10.6,63.8"/>
      <path class="st3" d="M722,349.7c1.4.7,2.8,1.4,4.4,1.2"/>
      <path class="st3" d="M645.7,340c14.1,4.6,10.7.1,23.3-2.2,12.6-.3,27.1,6.9,33.5,17.9,2.7,4.1,3.7,8.3,3.5,13.1,3.7,18.3,13.2,37.9,2.2,55.6"/>
      <path class="st3" d="M701.2,341.1c.2,2.2-1.5,6-3.5,7"/>
      <path class="st3" d="M678.1,329.3c0,3,0,5.7-1.3,8.3"/>
      <path class="st3" d="M652.9,348.6c.3-2.6,1.9-3.9,3.2-5.9"/>
      <path class="st3" d="M703,345.7c-1.8-.2-3.9,1.8-5.4,2.7"/>
      <path class="st3" d="M627.3,299.2c-4.3.9-7.3,7.4-9.7,10.6-5.7,7.1-8.4,15.5-9.8,24.4-2,8.4-6.6,16-9.7,23.9-1.5,8.6-4.7,16.8-9.4,24-.4,3.2,3.2,9,4.2,12.2,2.8,9,.3,18.3-2.6,26.7"/>
      <path class="st3" d="M594.6,407.5c2.2,3.8,4.4,8.3,7.9,11"/>
      <path class="st3" d="M594.8,408.4c-.3,3.8,2,8,.6,11.8"/>
      <path class="st3" d="M595.4,369.2c25.4,11.6,59.9-8.3,81.2,14.3,11.3,17.5,7.5,40.4-4,56.8"/>
      <path class="st3" d="M680.6,426.7c2.9,2.7,4,10.5,1.1,13.5"/>
      <path class="st3" d="M682.6,421.4c0,3.1,3.2,6.8,5.3,8.8"/>
      <path class="st3" d="M674.1,379.9c1-3.9,2.8-7.1,3.1-11.3"/>
      <path class="st3" d="M674.4,380.5c3.8,0,7.4-.6,11.3-.6"/>
      <path class="st3" d="M674.1,380.2c3.7-2.6,6.2-6.7,9.9-9"/>
      <path class="st3" d="M620,306.3c6.7.7,12.3-1.1,18,3.7"/>
      <path class="st3" d="M633.5,307.1c3,0,6-.8,9-.6"/>
      <path class="st3" d="M492,347.5c5.8,35.2,21.2,19.5,45.7,32,8.3,4,15.6,10.6,25.4,9.8,11,.8,19.4,0,26.4-9"/>
      <path class="st3" d="M483.5,332.5c5.3,2.5,7.2,8.8,8.5,14.9"/>
      <path class="st3" d="M485.6,327.9c4.1,6,6.4,12.3,6.3,19.6h0v.7"/>
      <path class="st3" d="M491.4,330.1c-.6,2.1-.9,4.5-.8,6.9"/>
      <path class="st3" d="M429.3,389.2c11.2,5.3,23.5,8.1,35.9,7.1,5.9-.3,12.7-1.3,17.9,1.8,6.6,3.3,10.1,9.7,12.5,16.3,5.4,7.5,2.9,13.5-3.1,19.6"/>
      <path class="st3" d="M499,425.8c.8,4.7-2.3,7.6-4.3,11.4"/>
      <path class="st3" d="M499.4,422.7c2.7,14.6,21.9,18.4,34.7,17.3,12.5-2.4,24.7-12,30.4-23.4"/>
      <path class="st3" d="M553.4,431c7.7-2.9,16-8.7,19.6-16.3"/>
      <path class="st3" d="M587.6,432.5c4.4,2.5,10.5,3,15.5,3.3,12.2,3.1,22.1,6.7,30.7-5.6,4.2-8.2.8-19.3,7.5-26.8,1.3-1.5,2.5-1.9,4.1-2.9,1.4-.9,2.4-3,3.9-3.4"/>
      <path class="st3" d="M631.7,404.8c2.4,0,7.7.2,9.6-1.4"/>
      <path class="st3" d="M632.9,416.1c0-2.5,4-8.6,6.6-9.6"/>
      <path class="st3" d="M643.7,420.8c-3.6-2.4-6.6-7.7-5.6-12.1"/>
      <path class="st3" d="M364,271.6c1.5,6.4,5.3,11.8,6.2,18.4,1.1,8.4-1.7,17.8,2.7,25.6,4.4,9.9,15.5,11.1,25.2,10.9,6.4.9,12.9,1.8,19.1-.7"/>
      <path class="st3" d="M375.5,267.2c-5.2,2.1-7.5,8.9-7.5,14"/>
      <path class="st3" d="M298.6,254.9c-1.1,5.2-4.6,8.5-8.4,12.1-10,11.8-9.8,28.4.5,40,11,16.3,33.1,18.8,51.1,15.7,10.8-.2,21.8-.9,31-7.2"/>
      <path class="st3" d="M302,259.4c-1.8,0-3.7-.2-5.4.3"/>
      <path class="st3" d="M261.5,259.4c-.6,7.4,13.3,32.3,21.1,33.7"/>
      <path class="st3" d="M302,362.9c1-8.5,10-11.3,11.8-19.5,2.9-7.2,4-13.6,10.3-18.6"/>
      <path class="st3" d="M311.5,369.3c0-8,1.7-15.9,1.7-23.8"/>
      <path class="st3" d="M222.3,290.4c10.3,4.5,9.7,18.6,23.5,26.9"/>
      <path class="st3" d="M208,353.7c6.1-.4,7.2-6.2,10.7-10.1,3.2-3.3,7.6-9,12.4-10"/>
      <path class="st3" d="M227.1,342.1c2.3-17.4,44.2-44.3,61.6-37.5"/>
      <path class="st3" d="M225.7,287c2.9,3,2.3,7.4,4.8,10.5"/>
      <path class="st3" d="M211.4,356.1c.4-1.4,1.1-2.8,1.7-4.1"/>
      <path class="st3" d="M203.4,327.9c5.7,7.7,16.4,4.6,24.7,6.7"/>
      <path class="st3" d="M166.7,410.7c2.9-15.8-5.4-40.3,9.9-50.3,3.8-5.7,4.7-12.9,10.9-17,4.7-7.9,14.9-8.4,22.8-10.6"/>
      <path class="st3" d="M168,397.3c1.1,8.4,5,18.2,11.4,23.9"/>
      <path class="st3" d="M284.1,345.9c-15.4,14.2-21.6,47.9,2.2,56.8,8.8,1.5,19.1,10.6,28.2,7"/>
      <path class="st3" d="M263.4,337.1c7.5.5,12.9,8.5,15.1,15.1"/>
      <path class="st3" d="M271.4,332.8c0,2.5-.4,5.4.6,7.7"/>
      <path class="st3" d="M183.6,393.2c2.9-.3,5.9,2.6,8.6,3.3,8.3,1.1,16.1-3.1,24.6-2.6,8.7,0,17,3.9,25.8,1.5,11,.6,20.3-5.2,28.3-11.9"/>
      <path class="st3" d="M190.8,402.3c.9-1.4,5.5-4.7,7.1-4.9"/>
      <path class="st3" d="M302.8,416.9c-.4-2.4,2.6-4.9,4.3-6"/>
      <path class="st3" d="M314,417.5c-.2-15.7,9.1-27.9,22.8-34.7,6.6-5.4,13.9-12.8,22.6-13.6"/>
      <path class="st3" d="M353.4,364.1c1.7,0,3,1.8,4.1,2.8,4.8,5.2,12.8,2.9,18.9,5.2"/>
      <path class="st3" d="M370.3,365.1c2,.8,3.9,3.1,5.1,4.8,4.8,6.2,12.2,10.2,19.5,12.9,12,9.2,27.7,10.1,42.4,10.5"/>
      <path class="st3" d="M238,421.9c4.1.8,6.4,7,9.1,9.9"/>
      <path class="st3" d="M353.4,421.1c21.5,11.6,67.8,20.4,91.2,12.2"/>
      <path class="st3" d="M424.4,416.8c8.3,2.3,13.5,11.4,20.3,16.2,12.1,6.6,24.2,14.7,38.6,13.3,3.3,0,6.3-.9,9.3-2.2,6.8-1.2,14.2-1.9,19.5-6.7"/>
      <path class="st3" d="M221.8,418.9c8.3,4.3,17.7,7.3,25.3,12.9,8.1,6.7,14.6,15.3,24.6,19.5,18.4,9.1,38.6,9.8,58.1,3.4,18.4-4.2,35.2-12.7,50.7-23.2"/>
      <path class="st3" d="M138.6,351.3c-9.8,23.1,3.2,53.3,28.1,59.3,2.2,1.1.3,3.5,1.7,5.8,5.8,10,16.5,15.4,25.9,21.4,15.5,6.4,33.5,3.4,50,2.9"/>
      <path class="st3" d="M226.7,442c13.4,7.9,31.7,14.4,47.4,10.9"/>
      <path class="st3" d="M10.9,193.4c.8,5.9-5,11.8-7.4,17.2-10.3,25,4.2,56.4,27.1,68.7"/>
      <path class="st3" d="M14.9,266.9c-.6,9.5,7.3,16.1,8.4,25.1"/>
      <path class="st3" d="M17.4,279c-.3,22.4,19.5,37.6,36,49.3,4.4,3.4,11.4,2.3,14.9,7"/>
      <path class="st3" d="M55.7,330c14.8,21,59.4,34.3,82.3,21.1"/>
      <path class="st3" d="M4.3,208.8c1.7-16.9,5.6-33.9,18.1-46.3,2.1-4.3,4.8-8.2,9.3-10.1"/>
      <path class="st3" d="M28.4,159.9c2.6-3.6,3.3-7.6,4.7-11.7,2-4.3,5.3-7.7,7.2-12.2,6.5-8.5,18.2-11.3,24.6-20.4,10.4-12.8,21.1-25.5,35.5-34.1,13.3-5.7,26.6-12.1,41.5-11.6"/>
      <path class="st3" d="M131.5,70.5c16.7-15.2,37.3-29.2,60.5-30.4"/>
      <path class="st3" d="M188.1,43.8c14.6-14.1,33.3-21.5,52.4-27,13.8-6.3,30.1-8,45.1-9,15.3-6.7,33.6-6.6,50.2-5.1,6.3.3,12.1-2.4,18.7-2.4s14.9,2.9,22.8,3.4"/>
      <path class="st3" d="M375.5,3.2c16.2-2.2,32.4-2.7,48.6-1.6,9.1.3,17.6,5.8,26.7,4,12.5,0,25.1-2.2,37.5-.5,11.3,2.9,24,6.8,31.2,16.1"/>
      <path class="st3" d="M546,34c-8.1-8.2-19-15.4-30.5-17.5"/>
      <path class="st3" d="M541.3,29c17.6,3.5,31.1,16.5,43.1,29,8.5,9.4,20.7,12.5,30,20.5"/>
      <path class="st3" d="M573,45.7c18,3.2,33.1,14.3,46.3,26.6,8.5,8.7,15.3,19.9,18.8,31.5"/>
      <path class="st3" d="M634.3,102.9c16.4,4.9,27.1,19.2,35.6,33.3,6.2,8.7,8.2,19.4,8.3,29.9"/>
      <path class="st3" d="M636.1,150.8c5.6.5,11-.4,16.7-.2,10.6,3,21.5,10.3,27.3,19.9,12,10.5,18.7,25.1,16.9,41.2"/>
      <path class="st3" d="M697.2,201.4c4.9,7.3,9.3,15.4,12.3,23.6,5.7,11.3,14.1,22,14.8,35.2"/>
      <path class="st3" d="M716.5,245.2c1.2,2.5,2.2,5,2.6,7.8,7.1,11.1,15.4,23.3,15.7,37.1,2.7,23.4-3.8,16.6-6.3,31.7"/>
      <path class="st3" d="M733.6,310.7c0,6.3-1.6,11.9-2.3,18"/>
      <path class="st3" d="M735.4,287.5c7,9.8,9.1,31.7,6.7,43.5-2.5,7-3.4,14.6-6.3,21.5-1.5,2.6-2.7,4.3-2.7,7.4"/>
      <path class="st3" d="M740.2,339.6c3.2,26.1,1.6,54.8-12.8,77.5-1.9,3.6-5.3,5.6-8.4,8-2.4,2.8-3.5,6.8-6.2,9.3"/>
    </g>
    <path class="st3" d="M539.3,439c18.4,2.2,40.2,2.7,54-11.9"/>
    <path class="st3" d="M346.4,449.8c22.9,4.3,47,4.3,68.8-4.7,16.4,2.3,34.4,7.6,49.9-.8"/>
    <path class="st3" d="M650.5,449.4c9.6,8.1,22.3,6.7,34.1,6.4,17.7-3.7,32.3-17.3,39.3-33.9"/>
    <path class="st3" d="M620.5,439.1h0c2.4,3.3,6.5,3.9,9.7,6.1,7,6.4,16.8,9.5,26.1,8.1"/>
  </g>
  <g>
    <path class="st0" d="M684.6,456c-.7,11.5-17.1,13.4-26.1,12.3-4.6-1.3-9.7-2.3-14.4-2.8-15.5-.8-29-8.3-44.1-11.1-10.8-2.1-22-3-32.7-5.5-9.3-2.1-18.6-4.9-28.2-2.6l-.2-.2c3.1-2.3,6.3-3.7,9.3-6.3,6.3,1.1,12.4.7,18.6-.4h0c5.8.1,10.5,2.2,15.9,4,8.8,2.2,18.1,1.1,26.9,3.9,5.3,1.3,11.5,3.7,16.7,5.4,8.2,1.6,17-1,25.4.9,3,4.1,14.7,7.2,18.5,2.7v-.3c4.7,0,9.4.2,14.1-.1v.2h.3Z"/>
    <path class="st0" d="M639.9,478.8c-.8.7-1.3,1.9-1.5,3.1h-.4c-9.2-11.6-29.9-14.2-43.5-10.8h0c-10.5-8.4-24.4-9-37-11.8-3.9-1.4-7.3-3.5-11.6-3.5l-.2.2c-3.7-3.7-9-6.4-14.1-6.4,2-2,5.1-2.1,7.4-3.6l.2.2c9.5-2.3,18.8.5,28.2,2.6,10.7,2.5,21.9,3.4,32.7,5.5,15,2.8,28.7,10.3,44.1,11.1,4.6.5,9.8,1.5,14.4,2.8,7.9,1.2,17.4-.7,23.7-5.8l.2.2c.3,2-.4,4.1-1.8,6h0c-8,11.5-21.3,13.5-34,9.9-1.7-.3-5.2-.9-6.7.3h-.1Z"/>
    <path class="st0" d="M680.6,468.7c1.9,8.6-7.6,10.6-14,10.6h0c5.5-1.9,10.2-5.9,14-10.6Z"/>
    <path class="st0" d="M680.1,474.7c-.7,1.9-.2,4.7-.8,6.6-3.5,6.6-11.9,9.2-19,9.2-3.4.4-6.9.6-10.4.5-4-.5-7.2-2.9-11.5-2.2-2.7-20.5,14.8-4.4,28.2-9.6h0c4.2,0,10.6-1.1,13.5-4.5h0Z"/>
    <path class="st0" d="M654,499.5c-6.2,4.9-17.1,5.5-20.5-2.9,2.7-1.3,4.9-5.1,4.9-7.8,4.2-.7,7.4,1.8,11.5,2.2,8.6-.3,18,.5,25-5.1-2.2,8.2-12.3,14.9-20.8,13.6h0c0-.1,0,0,0,0h-.1Z"/>
    <path class="st0" d="M670.4,455.9v.3c-3.8,4.6-15.6,1.5-18.5-2.7,1.6.1,3.2.2,4.5-.3v-.2c4.4,2.7,9.2,2.8,14.1,2.8h0Z"/>
    <path class="st0" d="M668.2,495.2c-.2,3.2-1.8,8.4-4.7,9.9-7.7.8-15.4,4.4-23.4,3.9l-.2-.4c1.6-.6,2-2.4,3.5-3.1v-2.5c3.8,0,7.5-1.4,10.6-3.6h0c5.3,1,9.9-1.1,14.1-4.2h.1Z"/>
    <path class="st0" d="M658.8,512.5h0c-.5,2.2-3,6-5.1,7-6.5.5-20.2-.7-21.7-8.7,3,.4,5.5-.1,7.8-2l.2.4c7.9.5,15.7-3.2,23.4-3.9-.9,2.3-2.4,6-4.7,7.3h0Z"/>
    <path class="st0" d="M653.8,519.5v.3c-.4,7-7.5,5-12.5,6-8.7,2.4-19.1-5.6-18.6-14.8.7-.5,1.4-1.1,1.9-2h0c2.5.3,4.8,1.9,7.5,1.7,1.5,8,15.2,9.2,21.7,8.7h0Z"/>
    <path class="st0" d="M649.2,525v.2c-5.8,6.8-8.2,7.2-16.8,5.5h0c1.4-1.1,3-2.6,3.5-4.6,4.6,0,8.8-1,13.4-1.1h-.1Z"/>
    <path class="st0" d="M643.4,503.2v2.5c-5.8,6.6-11.1,5.8-18.8,3.4h0c.2-.4.5-.8.6-1.2-7.2-4-14.7-8.1-22.2-11.7-7.3-3.8-12-10.3-18.4-15-7.3-5.5-16.7-4.8-24.2-9.5-5.3-4.9-10.5-9.6-14.8-15.5l.2-.2c13.8,4.2,28.3,5.8,41.9,11,9.5,5.3,17.1,13.8,28,16.5,16.9,4.4,16.8,20,27.6,19.8h.1Z"/>
    <path class="st0" d="M643.4,530.5h0c-4.8,6-12.7,10.5-20.1,11.8,0-3.2-.2-6.3-1.2-9,3.6-.6,7.4-.8,10.2-2.8h0c3.7,0,7.6,2.5,10.9,0h.2,0Z"/>
    <path class="st0" d="M633.7,447.9c3,2.1,6,3.6,9.3,4.5-12.3,2.6-21.8-1.6-33.2-5.2-8.8-2.8-18.1-1.7-26.9-3.9-5.4-1.8-10.1-3.8-15.9-3.9h0c5.6-.9,11.2-2.1,16-4.6,13.1,1.7,26.5,9.6,39.9,6.5,3.7,2.1,7.6,3.6,10.8,6.6h0Z"/>
    <path class="st0" d="M638.1,482h.4c-.3,5.2.8,11.8-5,14.7-6-11-19.2-12.8-29.2-18.3-3.2-2.5-6.2-5-9.7-7.1h0c13.5-3.5,34.3-.9,43.5,10.7h0Z"/>
    <path class="st0" d="M635.9,526c-1.9,5.9-8.3,6.4-13.7,7.3-.9-2.5-2.5-4.8-5.3-6.5,1.5-4.5.8-12.1-3.1-15.1h0c3.1.9,6.5.9,8.9-.8-.5,7.2,6.5,14,13.2,15.1h0Z"/>
    <path class="st0" d="M629.2,540.5v.2c-1.4,2.4-3.8,3.4-6.4,4.4-4.6,3.2-9.5,5.9-14.8,7.6-4.7,2.8-9.3,4.8-14.9,3.2v-.2c1.8-1.5,5.2-3.8,5.7-6.4,5.5,2.2,11.3-.4,15.8-3.6,4.3-3.1,9.8-3,14.7-5.3h0Z"/>
    <path class="st0" d="M622.6,511c-7.2,3.8-17.8-2.3-24.9-4.9-14.2-8.4-27.2-19.4-43.9-22h0c-10.3-8.5-26.6-14.6-25.6-30.7l-.2-.3c1.3-1.1,2.5-2.3,3.8-3.4,13.3.2,19.2,14.8,28.8,21.9,7.5,4.7,17,4.1,24.2,9.5,6.4,4.7,11.1,11.3,18.4,15,7.5,3.6,15,7.7,22.2,11.7-.6,1.2-1.5,2.4-2.6,3.1h-.2Z"/>
    <path class="st0" d="M623.3,542.4h0c-14,3.2-17.9,15.3-31.4,1.4v-.2c1.1-.4,2.3-.6,3.5-.9v.5c5.6,2.7,12.4,4,16.5-1.6-3.7-3.4-5.3-9.7-5.3-14.5.2,0,.6-.2.8-.2,1.8,3.2,7.6,3.1,9.3-.2,5.7,3.6,6.5,9.3,6.5,15.5v.2h.1Z"/>
    <path class="st0" d="M620.5,439.1c.7.9,1.5,1.6,2.3,2.2-13.4,3.1-26.8-4.8-39.9-6.5,1.6-.8,3-1.7,4.4-2.7,4.1,3.1,10.7,3.2,15.7,3.6,5.9.6,11.4,4,17.4,3.3h0Z"/>
    <path class="st0" d="M613.7,511.8c3.9,3.1,5.5,12.4,2.1,16.4-2.5,1.9-6.7,1.7-8.3-1.1-2.6-3.6-1-9.8-4-12.9h0c-.2-1.8,1.1-4.1,3-4.7h0c2.5.6,4.9,1.5,7.3,2.4h0Z"/>
    <path class="st0" d="M601.2,540.5c-7.8-1.6-8.8-10.5-10.5-16.6,5.9,0,10.2,5.6,16,3.4,0,4.8,1.6,11,5.3,14.5-4.1,5.6-11,4.2-16.4,1.6v-.5c1.8-.6,4.7-.4,5.7-2.3h0Z"/>
    <path class="st0" d="M607.5,527c-3.4,1-6.2.9-9.6-.9,2.4-7.1-3.6-13.6-9.7-16.1h0c7.1,0,17.4,1,17.4,10.2.2,2.3.6,4.9,1.8,6.8h0Z"/>
    <path class="st0" d="M606.4,509.4h0c-1.9.6-3.2,2.9-3,4.7h0c-3.9-3.6-10.1-4-15.2-4.1h0c-14.2-3.9-25.8-14.3-34.5-25.8h0c20.2,2.3,33.9,19.4,52.6,25.3h.1Z"/>
    <path class="st0" d="M601.2,540.5c-1.9,2.5-6,1.9-8.8,3v-.5c-8.1-6.4-13-16.1-17-25.3-3-3.9-6.1-7.6-8.1-12.1,5.3,4.8,12.8,6.2,18.3,10.6,8.5,6.5,3.8,21.4,15.6,24.4h0Z"/>
    <path class="st0" d="M573.4,552.8c2.4-1.3,6.5.2,8.5-1.7,2.4-3.4,6-5.9,9.9-7.5v.2c2.5,1.2,4.2,4.5,6.9,5.6-3,6.3-10.9,10.7-17.8,10.4-3.1-.7-4.8-4.6-7.3-6.7h-.5l.2-.2h0Z"/>
    <path class="st0" d="M588.2,510.1c6.1,2.5,12.1,9,9.7,16.1-2.4-1.2-4.1-2.3-7.2-2.3-2.7-10.8-16.1-11.8-23.4-18.4h0c-.9-1.5-2.9-2.9-2.6-4.5,2.5.5,5.2,1.2,7.6,1.2,4.6,3.9,10.2,6.1,15.9,7.9h0Z"/>
    <path class="st0" d="M592.4,542.9v.5c-2.4.6-4.2,2.3-6.3,3.5-12.3-7.5-19.2-21.2-25.1-34-2-4.5-2.2-10.9-6.5-13.9,3.4.5,6.8,1.5,10.2,2-.3,1.6,1.8,3,2.6,4.5h0c2,4.5,5.1,8.2,8.1,12.1,4.1,9.3,8.9,18.9,17,25.3h0Z"/>
    <path class="st0" d="M545,494.5l.2-.2c11.3,4.6,12.6,6.9,15.7,18.5,5.9,12.8,12.8,26.6,25.1,34-7.3,7.1-3.1,4.1-12.7,5.9-1.2-.4-1.4-2.1-1.8-3.1-5-12.3-19.4-16.7-26.9-27.3l.3-.3c0-12.5-7.2-22.5-16.3-30.2-7.4-6.8-9.6-16.9-15.8-24.2l.2-.2c-1.5-4.1-2.4-8.5-1.9-13l.2-.2c16.8,12.7,9.1,28.8,33.6,40.3h0Z"/>
    <path class="st0" d="M568.5,554.5c1.8,0,3.3-.8,4.7-1.6h.5c2.4,2.2,4.2,6.1,7.3,6.8,0,2.8-6.8,2.6-8.7,2.2-2.7-.7-4.7-4-6.7-6.1v-1.1c.9,0,1.8,0,2.8-.2h.1Z"/>
    <path class="st0" d="M561.6,546.4c2.1,2.7.8,5.8,3.4,8.2v.2c-2.8,0-5.6.4-8.4.5-1.6-10.5-11.1-16.5-18.5-23-9-9.5-16.8-19.9-24.8-30.2h.2c21.4,3.7,23.5,12.4,37.2,26.6,10.5,9.4,16.8,10.7,22.8,24.2-1.5.8-3,1.7-5,1.7-1.7-3.4-2.6-7.4-6.6-8.4l-.3.2h0Z"/>
    <path class="st0" d="M569.1,500c1.1.7,2.1,1.5,3.1,2.2-5.9-.3-12-2.4-17.8-3.2-2.8-2-6.5-2.8-9.3-4.7l-.2.2c-12.3-5.8-20.2-16.5-24.1-29.4h0c0-2.2-.4-5.4,1.3-7h0c2.1-1.2,3.6-3.6,5.5-5.1l.2.3c-.9,15.9,14.9,22.1,25.2,30.5,4.8,5.9,9.5,11.9,15.8,16.2h.3Z"/>
    <path class="st0" d="M565.7,555.9c1.9,2.1,3.9,5.5,6.7,6.1-4.2,3.8-10.7,5.5-15.6,1.7-.6-2.8-2.8-5.3-2.4-8.4,3.8,0,7.5-.4,11.3-.5v1.1h0Z"/>
    <path class="st0" d="M561.8,546.2c4,.9,4.9,5,6.6,8.4-1.2,0-2.3.2-3.5.2v-.2c-2.6-2.4-1.3-5.5-3.4-8.2l.3-.2h0Z"/>
    <path class="st0" d="M436.7,449.5v-.3l-.6-.2v-.6c2,.2,3.9.4,5.8.5,4.1,5.6,6.4,12.2,11.6,17,4.3,5.8,6.3,12.7,10.2,18.9,9,13.3,22,23.1,33.5,34,6.6,4.2,12.8,8.3,18.6,13.8,6.8,8,14.8,16.1,24.3,20.6,3.8,0,5.1,0,6.8,3.8,1.1,1.3,2.5,2.5,3.9,3.4,1.5,1,5.6,1.6,6,3.5.6.3,1.2.6,1.8.9-1.3,2.2-8.6,2-10.6.5-4.1-6.9-10.8-14.1-19.4-15l-.3.2c-4.7-4.4-11-6.7-14.5-12.4-2.1-2.9-6.8-7.6-10.9-6.2-13.8-9.7-30.2-18-39.5-32.7-5.3-6.8-12.5-12.7-16.8-20.5-4-9.2-9.4-18.9-9.9-29h0v-.2h0Z"/>
    <path class="st0" d="M556.5,554.5v.7c-9.5.6-15.3-2.2-20.4-10.3-9.3-7.8-16.5-17.4-24.2-26.6-9.5-7.8-19.8-14.5-27.1-24.7-8.7-7.1-16.4-18.9-27.6-21.5-2.3-5.6-7-9.3-10.3-14.2-1.3-3.3-2.9-6.3-5.2-9.1,6.2.3,12.5-.2,18.3-2.3,11.2,9.9,18.9,23.3,29.3,34.1,12,8.4,22.4,17.9,30.5,30.2,5.8,7.3,11.6,14.7,18.1,21.4,7.4,6.4,16.3,12.2,18.5,22.4h.1Z"/>
    <path class="st0" d="M556.7,563.5c-.5-1.6-4.5-2.3-6-3.2-3.1-1.4-4.2-4.8-6.3-6.9,3.2,1.2,6.5,2,10,1.9-.4,3.1,1.6,5.5,2.3,8.2h0Z"/>
    <path class="st0" d="M547.9,565h-.3c-.5,2.4-4.5,1.9-7.4.9-6.8-2.5-9.6-9.7-11.9-15.7l.3-.2c8.6.9,15.2,8.1,19.4,15h0Z"/>
    <path class="st0" d="M548.3,439.7c-5,4.5-11,6.7-16.7,9.9-4.5,3.1-11.3,14.3-15.9,5.6,8.5-3.2,9.7-10.8,18.3-15v-.3c1.9-.2,3.5-.5,5.2-1.1h0c3,0,6,.5,9,.9h.1Z"/>
    <path class="st0" d="M545,522l-.3.3c-4.5-5.2-8.4-11.4-14.4-14.9l.2-.3c-8.8-9.4-14.2-21-21.6-31.5-8.6-9.1-17.7-18.7-24-29.5,6.7-.8,7.5-3.1,14.4,1.2-1.7,13.2,16,17.2,19.1,29.1,6.6,16.8,27.7,25.5,26.6,45.6h0Z"/>
    <path class="st0" d="M544.2,553.2h0c-5,.5-9.2-2.5-12.8-5.8-6.5-3.8-11-9.6-15.9-15.1-7.9-8.4-19.7-12.1-26.4-21.6-13.2-10.4-25.7-22.8-32-38.8,11.4,2.6,26.9,21.2,34.9,30.2,5.8,6.2,13.6,10.2,19.7,16,7.7,9.2,14.9,18.8,24.2,26.6,2.7,2.5,4.4,7.4,8.1,8.3h0v.2h.2Z"/>
    <path class="st0" d="M540.2,566c-11.1,8.4-17.3-12.7-24.4-18.3-5.7-4.2-8.6-10.7-12.9-16,9.5-1.1,12.8,12.3,21.1,15.3,3.7,1.7,5.5,4.7,6.1,8.5,2.2,4.2,5.4,8.8,10.1,10.5h0Z"/>
    <path class="st0" d="M534,440v.3c-8.7,4.1-10.8,13.7-20.5,15.6h0c-2.2-1.7-4.6-3.3-7-4.8h0c5.3-1.7,8.8-7.3,10.8-12.2,5.5,1.4,11,1.4,16.8,1.2h0Z"/>
    <path class="st0" d="M531.8,567h0c-13.4,1.2-21.9-11.3-26.6-22.1-4.1-6.9-13.5-11.4-13.1-19.9,8.3,3.3,13.8,9.4,18,17,8.9,6.8,13.4,18.3,21.8,25h0Z"/>
    <path class="st0" d="M530.4,507.2l-.2.3c-5.1-3.2-11.3-3.5-16.8-5.6h-.2c-6.3-8.9-15.3-14.5-23.8-21.3-10.4-10.8-18.1-24.2-29.3-34.1,1.7-.5,3.3-1.5,5-2.2v-.4c6.5,1.7,13.1,3,19.8,2.3,6.2,10.9,15.3,20.5,23.9,29.6,7.3,10.5,12.8,22.2,21.6,31.5h0Z"/>
    <path class="st0" d="M522.3,458h0c-1.8,1.7-1.3,4.9-1.3,7.1h0c-1.4-3.7-4.6-6.8-7.4-9.2h0c.7-.2,1.4-.4,2.2-.7.8,2.5,4.2,4.2,6.6,2.8h0Z"/>
    <path class="st0" d="M522,565.5v.2c-12.9,3.8-44.7-32-57.3-40.4-15.3-14.4-30.3-30.4-37.9-50.3-1.8-6.5.1-13.7,4.6-18.7,1.4-1.7,4.2-3.9,4-6.3l-.2-.2c.3-.3.6-.5.9-.8l.6.2c-2.2,12.9-7.2,26.1,4.3,36.6,4.5,5.6,8.3,11.5,13.8,16.1,1.7,3.1,3.5,6.7,7.1,8.1h0c.5,8.9,11.3,11,16.8,16.3,10,7.2,14.5,23.2,28.7,23.3,2.8,6.5,8.5,12.4,14.6,15.9h0Z"/>
    <path class="st0" d="M517.2,438.8c-2,4.9-5.5,10.5-10.8,12.2h0c-2.2-1.4-4.5-2.4-6.9-3.5,2.6-2.3,5.7-4.1,7.9-7,1.8-.8,3.2-2.1,4.8-3.1l.2-.3c1.6.8,3.2,1.4,4.9,1.8h-.1Z"/>
    <path class="st0" d="M515.1,565.5v.2c-10.2,2.3-17.6-5.6-24.2-11.9-7.7-6.4-16.1-12.2-23.8-18.7-12.8-11.6-23.9-24.6-34.2-38.4-13-16.5-19.9-34.8,2.2-46.9l.2.2c.2,2.5-2.5,4.6-4,6.4-13,14.2,1.4,30.8,9.5,43.4,10.4,14,23.7,25.8,37.3,36.7,11.8,10.4,23.1,21.7,37,29.2h0v-.2Z"/>
    <path class="st0" d="M513.1,467.5l-.2.2c-4.9-6.4-15.6-10.9-13.6-20.4,4.3,1.9,8.3,4.2,12,6.9l-.2.2c-.5,4.5.4,9,1.9,13h.1Z"/>
    <path class="st0" d="M507.4,549.5c-14.2,0-18.7-16.1-28.7-23.3-5.5-5.4-16.3-7.4-16.8-16.2h0c10.5,4.7,20,11.7,30.1,17,1.7,9,12.6,13.5,15.3,22.5h.1Z"/>
    <path class="st0" d="M507.4,440.5c-2.2,2.9-5.3,4.6-7.9,7-2.6-1.3-5.6-3.1-8.2-2.9,5.2-1.8,11.2-1.4,16.1-4h0Z"/>
    <path class="st0" d="M491.2,555.5c-10.4-5.4-18.8-13.6-28.7-19.7-6.2-3.1-8.8-9.5-12.9-14.5l2.3-.6c12.7,12.9,27.5,23.5,41.2,35.2v.2c-.7,0-1.3-.3-1.9-.5h0Z"/>
    <path class="st0" d="M492.1,527c-10.4-5.5-20.4-12.5-31.2-17.7-3.1-1.4-4.4-4.9-6-7.5-2.5-2.7-5.6-4.9-7.7-7.9-14-17.7-16.6-20.7-10.5-43.4,1.2,9.7,5.9,19,9.9,27.9,4.3,7.8,11.5,13.7,16.8,20.5,6.5,11.4,19,17.8,28.6,26-.2.7,0,1.4,0,2.1h.1Z"/>
    <path class="st0" d="M458.4,533c1.2,1.1,2.6,2,4.1,2.9-8.6-1.6-14.4-10.6-21.2-15.5h.1c-1.2-4.3-9.2-8.6-12.5-14.4.5.3.9.6,1.3.8h.1c5.8,5.3,13.9,8.4,19.3,14.5,3.3,3.7,4.9,8.3,8.8,11.7h0Z"/>
    <path class="st0" d="M417.7,463.9c1.4-3.3,4.7-5.7,8-7.4-16.7,23.6,14.9,45.8,26.3,64.3l-2.3.6c-5.8-6.6-14.6-9.6-20.6-15.9-5.5-7.3-12-13.5-17.1-21-3.6-6.9-2.3-17.3,5.8-20.5h0Z"/>
    <path class="st0" d="M441.3,520.2h-.1c-6.3-5.1-13.2-9.9-19.9-14.5l1.1-1.7c-6.6-7.7-16.1-12.9-21.6-21.6-5.3-6.8-13.5-12.9-12.9-22.3.4-3.9,4-8.3,8.3-7.7v-.5c.8,0,1.6.2,2.3.2h0c-3.9,1.1-7.1,6.3-7.3,9.5-.4,6.7,6.1,10,10,14.6,2.9,8.7,12.2,13.1,18,19.9,1.7,2.3,3.8,4.2,6,5.9,1,1.5,1.8,3.1,3.6,3.9,3.3,5.8,11.3,10.1,12.5,14.2h0Z"/>
    <path class="st0" d="M436.1,448.4v.6c-2.7,2.5-5.6,4.5-8.5,6.3-2.9-3.9-7.9-8.5-12.4-10.2,7,.7,13.9,2.6,20.9,3.2h0Z"/>
    <path class="st0" d="M428.8,506.1c-1.8-.9-2.7-2.4-3.6-3.9-2.2-1.8-4.3-3.6-6-5.9-5.8-6.8-15.1-11.2-18-19.9-3.8-4.6-10.4-7.9-10-14.6.2-3.2,3.5-8.4,7.3-9.4h0c2.1.2,4.3.5,6.4,1-5,.2-8.7,5.5-7.6,10.1,2.4,7.7,10.1,12,13.6,19.2h.1c4.9,8.9,12.9,16,19.2,24.1h-.1c-.4,0-.9-.3-1.3-.6h0Z"/>
    <path class="st0" d="M427.4,455l.2.4c-1.3.8-2.6,1.6-3.9,2.4-3.5-4.8-10.3-9.3-16.3-9.8h0c2.7-.5,5.1-2.5,7.8-2.8,4.6,1.7,9,6,12.2,9.8h0Z"/>
    <path class="st0" d="M423.5,457.2l.3.5c-.2.1-.4.2-.6.4l-.2-.3c-11.2,0-21.4-8-32.9-5.4.2,0,.3-.1.5-.2v-.3c5.7-.9,11.5-1.9,17-3.9h0c5.8.4,12.3,4.9,16,9.4v-.2h0Z"/>
    <path class="st0" d="M422.9,457.7l.2.3c-2.6,1.5-4.3,3.6-5.5,5.9-3.5,1.4-5.7,4.1-6.8,7.3h-.2c-3.6-5.7,2.6-13.8,8.8-13.5h0c1.2,0,2.4.1,3.6,0h-.1Z"/>
    <path class="st0" d="M422.4,504.1l-1.1,1.7c-.4-.3-.8-.5-1.1-.8h0c-6.6-7.5-15.4-12.9-22.1-20.3-3.3-3.8-5.5-8.1-9.5-11.3-2.1-3.8-4.8-7.8-4.9-12.2.5-6,6.4-10.9,12.6-9.3v.5c-4.3-.5-7.9,3.8-8.3,7.7-.6,9.4,7.6,15.6,12.9,22.3,5.6,8.7,15,14,21.6,21.6h-.1Z"/>
    <path class="st0" d="M420.2,505h0c-10-6.9-20.5-13.3-28.6-22.6-12.2-9.5-22.5-23.4-1.5-30.1-22.1,12.4,21.5,43,30.2,52.7h-.1Z"/>
    <path class="st0" d="M419.4,457.6h0c-6.2-.2-12.3,7.9-8.8,13.5h.2c-.4,1.3-.7,2.5-.8,3.8h-.3c-6.2-6-9.6-19,2.6-19.1h0c2.3.8,4.7,1.5,7,1.8h0Z"/>
    <path class="st0" d="M412.3,455.8h0c-12.2.2-8.7,13.2-2.6,19.2h.3c-.2,2.6.1,5.3,1,7.7h-.1c-3.5-7.1-11.2-11.5-13.6-19.2-1.1-9.6,7.6-12,15-7.7h0Z"/>
    <path class="st1" d="M404.9,453.2c-10.9-4.1-32.1.8-25.8,15.9,10.3,13.8,24.5,24.4,38.4,34.2,10.1,6.5,20,13.6,29.1,21.6,4.6,4.1,9.6,10.1,15.9,10.9"/>
    <path class="st1" d="M422.9,457.7c-6.4.7-12-3-18-4.4"/>
    <path class="st1" d="M436,449c-5.4,6-14.7,7.7-18.4,14.9-6.8,13.6,1.7,26.2,11,36.2"/>
    <path class="st1" d="M417.7,463.9c-8.1,3.2-9.4,13.6-5.8,20.5,5.1,7.5,11.7,13.7,17.1,21,5.9,6.3,14.7,9.3,20.6,15.9,4,5,6.6,11.5,12.8,14.5,10.5,6.1,19.1,15.6,30.5,20.2"/>
    <path class="st1" d="M419.4,457.7c-6.2-.2-12.3,7.8-8.8,13.4"/>
    <path class="st1" d="M412.3,455.8c-12.2.2-8.7,13.2-2.6,19.1"/>
    <path class="st1" d="M404.9,453.2c-5,.2-8.7,5.5-7.6,10.1,2.4,7.7,10.1,12,13.6,19.2"/>
    <path class="st1" d="M398.5,452.2c-3.9,1-7.1,6.2-7.3,9.4-.4,6.7,6.1,10,10,14.6,2.9,8.7,12.2,13.1,18,19.9,1.7,2.3,3.8,4.2,6,5.9,1.1,2.1,2.8,3.7,5,4.7"/>
    <path class="st1" d="M396.2,452.4c-4.3-.5-7.9,3.8-8.2,7.7-.6,9.4,7.6,15.6,12.9,22.3,5.6,8.7,15,14,21.6,21.6"/>
    <path class="st1" d="M390.5,452c-23.2,12,21,43.2,29.7,52.9"/>
    <path class="st1" d="M428.3,505c2.7,6.3,11.8,10.9,13,15.3"/>
    <path class="st1" d="M436.7,449.2c-5.2,24.6-5.3,25,10.4,44.8,2.1,3,5.3,5.2,7.7,7.9,1.6,2.6,2.9,6,6,7.5,10.7,5.3,20.8,11.9,31.1,17.8"/>
    <path class="st1" d="M461.9,510.1c.5,8.8,11.3,10.8,16.8,16.2,10,7.2,14.5,23.2,28.7,23.3"/>
    <path class="st1" d="M492,525.2c0,8.6,9,12.9,13.2,19.8,4.8,10.8,13.2,23.3,26.6,22.1"/>
    <path class="st1" d="M436.7,449.4c.4,10.2,5.9,20,9.9,29.2,4.3,7.8,11.5,13.7,16.8,20.5,9.3,14.7,25.8,22.9,39.5,32.7,4.3,5.3,7.2,11.8,12.9,16,7.5,5.9,12.3,25.7,24.2,18.7"/>
    <path class="st1" d="M503.8,531.4c3.9,0,7.9,3.6,10,6.5,3.5,6,10.4,8,14.9,12.9,1.7,6.1,5.2,12.8,11.6,15.2,2.9,1,6.9,1.5,7.4-.8"/>
    <path class="st1" d="M528.5,550c8.6.9,15.2,8.1,19.4,15,2.3,1.6,8,1.2,10.3,0"/>
    <path class="st1" d="M435.3,450c.2,2.5-2.5,4.6-4,6.4-4.5,5-6.4,12.2-4.6,18.7,7.6,19.8,22.7,35.9,37.9,50.3,12.8,8.5,44.3,44.1,57.2,40.4"/>
    <path class="st1" d="M425.6,456.5c-14.1,18.2,5.9,38.9,17.5,52.8,9.8,13.6,22.3,24.5,35.2,35,12.7,6.5,20.9,24.1,36.7,21.5"/>
    <path class="st1" d="M441.8,448.8c4.1,5.6,6.3,12.2,11.6,17,4.3,5.8,6.3,12.7,10.2,18.9,7.5,12.3,19.9,19.9,29.1,30.5,7.4,6.2,16,10.3,22.9,17.3,6.8,8,14.8,16.1,24.4,20.6,3.1,0,6,.8,8.9,1.8,5.4.9,10.6.2,16,0,4.6.6,8-2.6,12.4-2.6,4.6.8,5.5-3.3,8.7-5.3,4.2-4,10.6-3.3,15.1-6.2"/>
    <path class="st1" d="M457.5,472c13,4.5,25.5,20.1,34.7,30.3,5.8,6.2,13.6,10.2,19.7,16,7.7,9.2,14.9,18.8,24.2,26.6,2.7,2.5,4.4,7.4,8.1,8.3"/>
    <path class="st1" d="M544.2,553.2c2.3,2,3.3,5.5,6.5,6.9,1.5,1,5.6,1.6,6,3.5"/>
    <path class="st1" d="M565.3,555.5c2.1,2.2,4.1,5.8,7,6.5,1.8.4,8,.5,8.6-1.7"/>
    <path class="st1" d="M573.7,553c2.4,2.1,4.2,6,7.3,6.7,6.8.3,14.6-3.9,17.6-10"/>
    <path class="st1" d="M591.9,543.8c8.1,8,13,8.5,22.7,2.1,4.5-3.2,10.2-3.2,15.3-5.5"/>
    <path class="st1" d="M593.1,556c5.6,1.7,10.1-.4,14.9-3.2,5.4-1.8,10.2-4.4,14.8-7.6,2.8-.9,5.1-2.2,6.7-4.5"/>
    <path class="st1" d="M460.2,446.6c11.3,9.8,18.9,23.2,29.2,34,12,8.4,22.4,17.9,30.5,30.2,5.8,7.3,11.6,14.7,18.1,21.4,7.4,6.4,16.3,12.2,18.5,22.4"/>
    <path class="st1" d="M513.4,501.9c21.4,3.9,23.5,12.6,37.2,26.8,7.1,7,17.5,11.2,21,21,.4,1.1.6,2.9,1.9,3.2"/>
    <path class="st1" d="M540.6,527c4.7,9.4,17.1,12.2,22,21.3.8,2.5.3,4.3,2.4,6.3"/>
    <path class="st1" d="M561.8,546.2c6.9,1.7,4.9,12.6,12.7,13.2"/>
    <path class="st1" d="M484.9,446.4c7.5,13.3,19.9,23.1,28.3,35.7,4.9,9,10.4,17.5,17.2,25.1"/>
    <path class="st1" d="M491.3,444.5c10.3,2.3,20.6,8.7,27.6,16.9,4,6.6,5.6,14.4,10.4,20.7,3.8,5.8,10.2,8.8,15.8,12.4,7.1,10.3,11,22.7,12.4,35"/>
    <path class="st1" d="M557.6,525.8c3.2-.5,6.4,4,8.4,6"/>
    <path class="st1" d="M499.2,447.6c-1,13.1,16,16.9,19.3,28.9,6.6,16.8,27.7,25.5,26.6,45.6"/>
    <path class="st1" d="M511.2,454.5c-.5,4.5.4,9,1.9,13"/>
    <path class="st1" d="M499.7,447.1c2.9-1.9,5.5-3.9,7.7-6.6"/>
    <path class="st1" d="M506.5,451c5.2-1.7,8.8-7.2,10.7-12.1"/>
    <path class="st1" d="M513.5,455.8c9.6-1.9,11.8-11.5,20.5-15.6"/>
    <path class="st1" d="M515.8,455.4c4.8,8.4,11.4-2.6,15.9-5.7,5.7-3.3,11.6-5.5,16.7-9.9"/>
    <path class="st1" d="M522.3,458.1c-1.8,1.6-1.3,4.8-1.3,7"/>
    <path class="st1" d="M545.2,494.2c11.3,4.6,12.6,6.9,15.7,18.5,6,12.3,12.2,26.6,24.8,33.5"/>
    <path class="st1" d="M554.5,499c5.8.9,11.9,2.9,17.8,3.2"/>
    <path class="st1" d="M528,453.2c-.9,15.9,14.9,22.1,25.2,30.5,4.8,5.9,9.5,11.9,15.8,16.2,8.7,9.6,32.2,9,28.8,26.1"/>
    <path class="st1" d="M553.8,484c10.3,2.3,21.1,6.1,29.4,13,8.3,5.3,35.1,23.5,42.1,10.9"/>
    <path class="st1" d="M588.2,510c26.4.3,10.8,13.3,22.8,19.4,9.3,1.2,7.7-13.7,2.8-17.6"/>
    <path class="st1" d="M567.3,505.5c2,4.5,5.1,8.2,8.1,12.1,4.1,9.3,8.9,18.9,17,25.3"/>
    <path class="st1" d="M564.6,501.2c0,1.4,1.8,2.8,2.7,4.2"/>
    <path class="st1" d="M567.3,505.5h0c5.3,4.8,12.8,6.2,18.3,10.6,8.5,6.5,3.8,21.6,15.7,24.4"/>
    <path class="st1" d="M590.7,523.9c6,.2,10.5,5.8,16.5,3.3"/>
    <path class="st1" d="M606.7,527.2c0,4.8,1.6,11,5.3,14.4-4.1,5.6-11,4.2-16.4,1.6"/>
    <path class="st1" d="M617,527c5.6,3.7,6.4,9.2,6.3,15.5"/>
    <path class="st1" d="M622.5,533.2c5.5-.6,11-1.4,13.4-6.9"/>
    <path class="st1" d="M622.6,511h0c-.4,9.2,9.9,17.2,18.6,14.8,4.9-1,12,.9,12.6-6"/>
    <path class="st1" d="M624.6,509.1c7.7,2.4,13,3.2,18.8-3.4"/>
    <path class="st1" d="M632.1,511c2,7.8,15.1,9,21.7,8.5,2.1-.9,4.5-4.8,5.1-6.9"/>
    <path class="st1" d="M646,512.2c7.7,1.7,15.4,2.3,17.5-7"/>
    <path class="st1" d="M640.1,509.1c7.9.5,15.7-3.2,23.4-3.9,2.8-1.5,4.5-6.7,4.7-9.8"/>
    <path class="st1" d="M632.5,530.7c8.6,1.7,11,1.3,16.8-5.5"/>
    <path class="st1" d="M629.8,540.2c4.7-.8,10.5-6.3,13.6-9.7"/>
    <path class="st1" d="M531.6,449.7c13.3.2,19.2,14.8,28.8,21.9,7.5,4.7,17,4.1,24.2,9.5,6.4,4.7,11.1,11.3,18.4,15,7.5,3.6,15,7.7,22.2,11.7"/>
    <path class="st1" d="M545.9,455.9c13.8,4.2,28.3,5.8,41.9,11,5.8,3.4,11.2,7.4,16.5,11.5,7.3,4.6,16.9,5.4,23.2,11.6,3.4,2.4,5.7,5.8,7.7,9.4,7,8.2,18.1,1.6,24-4.4"/>
    <path class="st1" d="M654,499.6c8.6,1.3,18.6-5.4,20.8-13.6"/>
    <path class="st1" d="M680.6,468.7c1.3-1.9,2.1-3.9,1.8-6"/>
    <path class="st1" d="M639.9,478.8c1.5-1.2,5-.6,6.7-.3,12.7,3.6,26,1.6,34-9.9"/>
    <path class="st1" d="M634,496.4c7.1-3.9,2.1-12.4,5.9-17.5"/>
    <path class="st1" d="M594.6,471.1c13.5-3.3,34.3-.7,43.5,10.8"/>
    <path class="st1" d="M638.6,488.8c4.2-.7,7.3,1.8,11.2,2.2,7-.4,14.9.4,21.2-2.7,3-2.3,6.9-3.1,8.2-7.1.4-4.3,1.3-8.1,1.3-12.7h0"/>
    <path class="st1" d="M539.2,446.2c9.5-2.3,18.8.5,28.2,2.6,10.7,2.5,21.9,3.4,32.7,5.5,15,2.8,28.7,10.3,44.1,11.1,4.6.5,9.8,1.5,14.4,2.8,9,1.1,25.4-.8,26.1-12.3"/>
    <path class="st1" d="M566.9,439.4c5.8,0,10.5,2.1,15.9,3.9,8.8,2.2,18.1,1.1,26.9,3.9,11.4,3.5,20.9,7.8,33.2,5.2"/>
    <path class="st1" d="M583,434.8c13.1,1.7,26.5,9.6,39.9,6.5"/>
    <path class="st1" d="M415.2,445.1c4.5,1.6,9.1,6.1,12.2,9.8"/>
    <path class="st1" d="M407.5,447.9c5.8.4,12.3,4.8,16,9.3"/>
    <path class="st1" d="M583,550.2c.7,2.3,3.4,1.1,5,1.2"/>
    <path class="st1" d="M666.6,479.2c4.2,0,10.6-1.2,13.5-4.6"/>
    <path class="st1" d="M660.9,480.4c0,2.1,0,3.3-1.1,5.1"/>
    <path class="st1" d="M577.4,552.2c1.6.7,2.5,3.2,4.2,3.7,3.6,0,11.7-2.2,13.5-5.4"/>
    <path class="st1" d="M642.3,471.8c.2,2.7-.2,5.1-2.4,7.1"/>
    <path class="st1" d="M650.9,466.6c.4,2.7.6,5.3-.8,7.9"/>
    <path class="st1" d="M603.5,514c-.2-1.8,1.1-4.1,3-4.7"/>
    <path class="st1" d="M651.9,453.6c3,4.1,14.7,7.2,18.5,2.6"/>
    <path class="st1" d="M554.4,555.9c-.2,2.9,1.9,5.1,2.4,7.7"/>
    <path class="st1" d="M557,563.7c4.9,3.7,11.3,1.9,15.4-1.8"/>
  </g>
</svg>