<?xml version="1.0" encoding="UTF-8"?>
<svg id="Layer_2" xmlns="http://www.w3.org/2000/svg" version="1.1" viewBox="0 0 743.5 658">
  <!-- Generator: Adobe Illustrator 29.8.1, SVG Export Plug-In . SVG Version: 2.1.1 Build 2)  -->
  <defs>
    <style>
      .st0, .st1 {
        fill: #8e57e5;
      }

      .st2 {
        fill: none;
      }

      .st2, .st1, .st3, .st4, .st5, .st6 {
        stroke-miterlimit: 10;
        stroke-width: .5px;
      }

      .st2, .st1, .st5 {
        stroke: #33348e;
      }

      .st7 {
        fill: #e87979;
      }

      .st3 {
        fill: #774242;
        opacity: .8;
      }

      .st3, .st4, .st6 {
        isolation: isolate;
        stroke: #231f20;
        stroke-linecap: round;
      }

      .st4 {
        fill: #014c25;
      }

      .st4, .st6 {
        opacity: .8;
      }

      .st8 {
        fill: #00964c;
      }

      .st5, .st9 {
        fill: #e98a00;
      }

      .st6 {
        fill: #0e3760;
      }

      .st10 {
        fill: #ffcf6e;
      }

      .st11 {
        fill: #156aff;
      }

      .st12 {
        fill: #cf927d;
      }
    </style>
  </defs>
  <g id="brainstem">
    <g>
      <path class="st9" d="M497.9,628.4c.3,5.8,1,13.4,0,19.8-4.2,3.9-8.9,6.5-14.8,6.8,1.9-23.8-2.2-47.2-8.4-70.2-5.5-14.9-6-27.4-2.6-42.7h0c5.8,4.6,12.3,8.8,18.8,12.6,1.2,24.7,6.5,48.9,6.9,73.6h.1Z"/>
      <path class="st9" d="M483.2,630.7c1,7.9,0,16.4,0,24.3-7.8,3.2-12.1,1.9-19-2.1,2-28.4-3.3-57.5-15.8-83-10.3-16.4-25.5-32.2-26.7-52.5,4.3-.5,10.5,1.2,13.5-2.5,9.4,5.8,16.3,17.4,27.2,20.2,3.6,2,6.9,4.3,9.9,7h0c-.5,7.1-3.3,13.9-2.3,21.3,3.5,22.7,12.5,44.1,13.4,67.3h-.2Z"/>
      <path class="st9" d="M463.2,623.1c.9,10.1,2.2,19.7.9,29.8-8-.4-6.5-6.8-6.2-12.8-1.3-11.5-3.1-22.7-6-33.9-2-5.9-4.5-11.1-5.9-17.1-2.8-12.7-11.1-23.5-16-35.2-5.3-13.1-19.5-23-19.2-38.1,3.2,1.7,7,1.5,10.8,1.6,1.2,20.3,16.4,36.1,26.7,52.5,7.9,16.6,13.9,34.7,14.9,53.2h0Z"/>
      <path class="st9" d="M435.1,515c-4.6,4.3-15.3,2.1-21.3,1.9-7.2-2.7-13-9.1-19.2-13.8-7.1-6.5-15.8-11-20.6-19.8-8.8-8.8-16.3-21-18.8-33.2,11.3,3.2,23.5,1.6,35,.8v.3c-21.3,6.8-11.5,20.5,1.1,30.3,12.4,13.8,29.2,22,43.7,33.4h0Z"/>
    </g>
    <path class="st5" d="M355.2,450.3c2.9,12.1,10,24.1,18.9,32.9,4.8,8.8,13.5,13.3,20.6,19.8,6.2,4.6,12,11.1,19.2,13.8,6.3.2,15.9,2.3,21.1-1.7"/>
    <path class="st5" d="M491.1,554.3c1.6,31.5,9.2,62.1,6.9,93.9-4.2,3.9-8.9,6.5-14.8,6.8-6,2.5-12.4,2.7-17.6-1.5-2.8-1.4-6.5-.4-7.6-4.2,0-14.5-2.4-29-6-43.1-2-5.9-4.5-11.1-5.9-17.1-2.8-12.7-11.1-23.5-16-35.2-5.4-13.1-19-22.7-19.4-37.9"/>
    <path class="st5" d="M421.7,517.6c1.4,20.2,16.4,35.8,26.7,52.2,12.6,25.5,17.6,54.3,15.9,82.6"/>
    <path class="st5" d="M472.2,542.1c-3.5,15.1-2.9,28,2.6,42.7,6.2,22.9,10.4,46.3,8.4,70"/>
  </g>
  <g id="cerebellum">
    <path class="st0" d="M683.6,455.2c-.7,11.5-17.1,13.4-26.1,12.3-4.6-1.3-9.7-2.3-14.4-2.8-15.5-.8-29-8.3-44.1-11.1-10.8-2.1-22-3-32.7-5.5-9.3-2.1-18.6-4.9-28.2-2.6l-.2-.2c3.1-2.3,6.3-3.7,9.3-6.3,6.3,1.1,12.4.7,18.6-.4h0c5.8.1,10.5,2.2,15.9,4,8.8,2.2,18.1,1.1,26.9,3.9,5.3,1.3,11.5,3.7,16.7,5.4,8.2,1.6,17-1,25.4.9,3,4.1,14.7,7.2,18.5,2.7v-.3c4.7,0,9.4.2,14.1-.1v.2h.3Z"/>
    <path class="st0" d="M638.9,478c-.8.7-1.3,1.9-1.5,3.1h-.4c-9.2-11.6-29.9-14.2-43.5-10.8h0c-10.5-8.4-24.4-9-37-11.8-3.9-1.4-7.3-3.5-11.6-3.5l-.2.2c-3.7-3.7-9-6.4-14.1-6.4,2-2,5.1-2.1,7.4-3.6l.2.2c9.5-2.3,18.8.5,28.2,2.6,10.7,2.5,21.9,3.4,32.7,5.5,15,2.8,28.7,10.3,44.1,11.1,4.6.5,9.8,1.5,14.4,2.8,7.9,1.2,17.4-.7,23.7-5.8l.2.2c.3,2-.4,4.1-1.8,6h0c-8,11.5-21.3,13.5-34,9.9-1.7-.3-5.2-.9-6.7.3h-.1Z"/>
    <path class="st0" d="M679.6,467.9c1.9,8.6-7.6,10.6-14,10.6h0c5.5-1.9,10.2-5.9,14-10.6Z"/>
    <path class="st0" d="M679.1,473.9c-.7,1.9-.2,4.7-.8,6.6-3.5,6.6-11.9,9.2-19,9.2-3.4.4-6.9.6-10.4.5-4-.5-7.2-2.9-11.5-2.2-2.7-20.5,14.8-4.4,28.2-9.6h0c4.2,0,10.6-1.1,13.5-4.5h0Z"/>
    <path class="st0" d="M653,498.7c-6.2,4.9-17.1,5.5-20.5-2.9,2.7-1.3,4.9-5.1,4.9-7.8,4.2-.7,7.4,1.8,11.5,2.2,8.6-.3,18,.5,25-5.1-2.2,8.2-12.3,14.9-20.8,13.6h0c0-.1,0,0,0,0h-.1Z"/>
    <path class="st0" d="M669.4,455.1v.3c-3.8,4.6-15.6,1.5-18.5-2.7,1.6.1,3.2.2,4.5-.3v-.2c4.4,2.7,9.2,2.8,14.1,2.8h0Z"/>
    <path class="st0" d="M667.2,494.4c-.2,3.2-1.8,8.4-4.7,9.9-7.7.8-15.4,4.4-23.4,3.9l-.2-.4c1.6-.6,2-2.4,3.5-3.1v-2.5c3.8,0,7.5-1.4,10.6-3.6h0c5.3,1,9.9-1.1,14.1-4.2h.1Z"/>
    <path class="st0" d="M657.8,511.7h0c-.5,2.2-3,6-5.1,7-6.5.5-20.2-.7-21.7-8.7,3,.4,5.5-.1,7.8-2l.2.4c7.9.5,15.7-3.2,23.4-3.9-.9,2.3-2.4,6-4.7,7.3h0Z"/>
    <path class="st0" d="M652.8,518.7v.3c-.4,7-7.5,5-12.5,6-8.7,2.4-19.1-5.6-18.6-14.8.7-.5,1.4-1.1,1.9-2h0c2.5.3,4.8,1.9,7.5,1.7,1.5,8,15.2,9.2,21.7,8.7h0Z"/>
    <path class="st0" d="M648.2,524.2v.2c-5.8,6.8-8.2,7.2-16.8,5.5h0c1.4-1.1,3-2.6,3.5-4.6,4.6,0,8.8-1,13.4-1.1h-.1Z"/>
    <path class="st0" d="M642.4,502.4v2.5c-5.8,6.6-11.1,5.8-18.8,3.4h0c.2-.4.5-.8.6-1.2-7.2-4-14.7-8.1-22.2-11.7-7.3-3.8-12-10.3-18.4-15-7.3-5.5-16.7-4.8-24.2-9.5-5.3-4.9-10.5-9.6-14.8-15.5l.2-.2c13.8,4.2,28.3,5.8,41.9,11,9.5,5.3,17.1,13.8,28,16.5,16.9,4.4,16.8,20,27.6,19.8h.1Z"/>
    <path class="st0" d="M642.4,529.7h0c-4.8,6-12.7,10.5-20.1,11.8,0-3.2-.2-6.3-1.2-9,3.6-.6,7.4-.8,10.2-2.8h0c3.7,0,7.6,2.5,10.9,0h.2,0Z"/>
    <path class="st0" d="M632.7,447.1c3,2.1,6,3.6,9.3,4.5-12.3,2.6-21.8-1.6-33.2-5.2-8.8-2.8-18.1-1.7-26.9-3.9-5.4-1.8-10.1-3.8-15.9-3.9h0c5.6-.9,11.2-2.1,16-4.6,13.1,1.7,26.5,9.6,39.9,6.5,3.7,2.1,7.6,3.6,10.8,6.6h0Z"/>
    <path class="st0" d="M637.1,481.2h.4c-.3,5.2.8,11.8-5,14.7-6-11-19.2-12.8-29.2-18.3-3.2-2.5-6.2-5-9.7-7.1h0c13.5-3.5,34.3-.9,43.5,10.7h0Z"/>
    <path class="st0" d="M634.9,525.2c-1.9,5.9-8.3,6.4-13.7,7.3-.9-2.5-2.5-4.8-5.3-6.5,1.5-4.5.8-12.1-3.1-15.1h0c3.1.9,6.5.9,8.9-.8-.5,7.2,6.5,14,13.2,15.1h0Z"/>
    <path class="st0" d="M628.2,539.7v.2c-1.4,2.4-3.8,3.4-6.4,4.4-4.6,3.2-9.5,5.9-14.8,7.6-4.7,2.8-9.3,4.8-14.9,3.2v-.2c1.8-1.5,5.2-3.8,5.7-6.4,5.5,2.2,11.3-.4,15.8-3.6,4.3-3.1,9.8-3,14.7-5.3h0Z"/>
    <path class="st0" d="M621.6,510.2c-7.2,3.8-17.8-2.3-24.9-4.9-14.2-8.4-27.2-19.4-43.9-22h0c-10.3-8.5-26.6-14.6-25.6-30.7l-.2-.3c1.3-1.1,2.5-2.3,3.8-3.4,13.3.2,19.2,14.8,28.8,21.9,7.5,4.7,17,4.1,24.2,9.5,6.4,4.7,11.1,11.3,18.4,15,7.5,3.6,15,7.7,22.2,11.7-.6,1.2-1.5,2.4-2.6,3.1h-.2Z"/>
    <path class="st0" d="M622.3,541.6h0c-14,3.2-17.9,15.3-31.4,1.4v-.2c1.1-.4,2.3-.6,3.5-.9v.5c5.6,2.7,12.4,4,16.5-1.6-3.7-3.4-5.3-9.7-5.3-14.5.2,0,.6-.2.8-.2,1.8,3.2,7.6,3.1,9.3-.2,5.7,3.6,6.5,9.3,6.5,15.5v.2h.1Z"/>
    <path class="st0" d="M619.5,438.3c.7.9,1.5,1.6,2.3,2.2-13.4,3.1-26.8-4.8-39.9-6.5,1.6-.8,3-1.7,4.4-2.7,4.1,3.1,10.7,3.2,15.7,3.6,5.9.6,11.4,4,17.4,3.3h0Z"/>
    <path class="st0" d="M612.7,511c3.9,3.1,5.5,12.4,2.1,16.4-2.5,1.9-6.7,1.7-8.3-1.1-2.6-3.6-1-9.8-4-12.9h0c-.2-1.8,1.1-4.1,3-4.7h0c2.5.6,4.9,1.5,7.3,2.4h0Z"/>
    <path class="st0" d="M600.2,539.7c-7.8-1.6-8.8-10.5-10.5-16.6,5.9,0,10.2,5.6,16,3.4,0,4.8,1.6,11,5.3,14.5-4.1,5.6-11,4.2-16.4,1.6v-.5c1.8-.6,4.7-.4,5.7-2.3h0Z"/>
    <path class="st0" d="M606.5,526.2c-3.4,1-6.2.9-9.6-.9,2.4-7.1-3.6-13.6-9.7-16.1h0c7.1,0,17.4,1,17.4,10.2.2,2.3.6,4.9,1.8,6.8h0Z"/>
    <path class="st0" d="M605.4,508.6h0c-1.9.6-3.2,2.9-3,4.7h0c-3.9-3.6-10.1-4-15.2-4.1h0c-14.2-3.9-25.8-14.3-34.5-25.8h0c20.2,2.3,33.9,19.4,52.6,25.3h.1Z"/>
    <path class="st0" d="M600.2,539.7c-1.9,2.5-6,1.9-8.8,3v-.5c-8.1-6.4-13-16.1-17-25.3-3-3.9-6.1-7.6-8.1-12.1,5.3,4.8,12.8,6.2,18.3,10.6,8.5,6.5,3.8,21.4,15.6,24.4h0Z"/>
    <path class="st0" d="M572.4,552c2.4-1.3,6.5.2,8.5-1.7,2.4-3.4,6-5.9,9.9-7.5v.2c2.5,1.2,4.2,4.5,6.9,5.6-3,6.3-10.9,10.7-17.8,10.4-3.1-.7-4.8-4.6-7.3-6.7h-.5l.2-.2h0Z"/>
    <path class="st0" d="M587.2,509.3c6.1,2.5,12.1,9,9.7,16.1-2.4-1.2-4.1-2.3-7.2-2.3-2.7-10.8-16.1-11.8-23.4-18.4h0c-.9-1.5-2.9-2.9-2.6-4.5,2.5.5,5.2,1.2,7.6,1.2,4.6,3.9,10.2,6.1,15.9,7.9h0Z"/>
    <path class="st0" d="M591.4,542.1v.5c-2.4.6-4.2,2.3-6.3,3.5-12.3-7.5-19.2-21.2-25.1-34-2-4.5-2.2-10.9-6.5-13.9,3.4.5,6.8,1.5,10.2,2-.3,1.6,1.8,3,2.6,4.5h0c2,4.5,5.1,8.2,8.1,12.1,4.1,9.3,8.9,18.9,17,25.3h0Z"/>
    <path class="st0" d="M544,493.7l.2-.2c11.3,4.6,12.6,6.9,15.7,18.5,5.9,12.8,12.8,26.6,25.1,34-7.3,7.1-3.1,4.1-12.7,5.9-1.2-.4-1.4-2.1-1.8-3.1-5-12.3-19.4-16.7-26.9-27.3l.3-.3c0-12.5-7.2-22.5-16.3-30.2-7.4-6.8-9.6-16.9-15.8-24.2l.2-.2c-1.5-4.1-2.4-8.5-1.9-13l.2-.2c16.8,12.7,9.1,28.8,33.6,40.3h0Z"/>
    <path class="st0" d="M567.5,553.7c1.8,0,3.3-.8,4.7-1.6h.5c2.4,2.2,4.2,6.1,7.3,6.8,0,2.8-6.8,2.6-8.7,2.2-2.7-.7-4.7-4-6.7-6.1v-1.1c.9,0,1.8,0,2.8-.2h.1Z"/>
    <path class="st0" d="M560.6,545.6c2.1,2.7.8,5.8,3.4,8.2v.2c-2.8,0-5.6.4-8.4.5-1.6-10.5-11.1-16.5-18.5-23-9-9.5-16.8-19.9-24.8-30.2h.2c21.4,3.7,23.5,12.4,37.2,26.6,10.5,9.4,16.8,10.7,22.8,24.2-1.5.8-3,1.7-5,1.7-1.7-3.4-2.6-7.4-6.6-8.4l-.3.2h0Z"/>
    <path class="st0" d="M568.1,499.2c1.1.7,2.1,1.5,3.1,2.2-5.9-.3-12-2.4-17.8-3.2-2.8-2-6.5-2.8-9.3-4.7l-.2.2c-12.3-5.8-20.2-16.5-24.1-29.4h0c0-2.2-.4-5.4,1.3-7h0c2.1-1.2,3.6-3.6,5.5-5.1l.2.3c-.9,15.9,14.9,22.1,25.2,30.5,4.8,5.9,9.5,11.9,15.8,16.2h.3Z"/>
    <path class="st0" d="M564.7,555.1c1.9,2.1,3.9,5.5,6.7,6.1-4.2,3.8-10.7,5.5-15.6,1.7-.6-2.8-2.8-5.3-2.4-8.4,3.8,0,7.5-.4,11.3-.5v1.1h0Z"/>
    <path class="st0" d="M560.8,545.4c4,.9,4.9,5,6.6,8.4-1.2,0-2.3.2-3.5.2v-.2c-2.6-2.4-1.3-5.5-3.4-8.2l.3-.2h0Z"/>
    <path class="st0" d="M435.7,448.7v-.3l-.6-.2v-.6c2,.2,3.9.4,5.8.5,4.1,5.6,6.4,12.2,11.6,17,4.3,5.8,6.3,12.7,10.2,18.9,9,13.3,22,23.1,33.5,34,6.6,4.2,12.8,8.3,18.6,13.8,6.8,8,14.8,16.1,24.3,20.6,3.8,0,5.1,0,6.8,3.8,1.1,1.3,2.5,2.5,3.9,3.4,1.5,1,5.6,1.6,6,3.5.6.3,1.2.6,1.8.9-1.3,2.2-8.6,2-10.6.5-4.1-6.9-10.8-14.1-19.4-15l-.3.2c-4.7-4.4-11-6.7-14.5-12.4-2.1-2.9-6.8-7.6-10.9-6.2-13.8-9.7-30.2-18-39.5-32.7-5.3-6.8-12.5-12.7-16.8-20.5-4-9.2-9.4-18.9-9.9-29h0v-.2h0Z"/>
    <path class="st0" d="M555.5,553.7v.7c-9.5.6-15.3-2.2-20.4-10.3-9.3-7.8-16.5-17.4-24.2-26.6-9.5-7.8-19.8-14.5-27.1-24.7-8.7-7.1-16.4-18.9-27.6-21.5-2.3-5.6-7-9.3-10.3-14.2-1.3-3.3-2.9-6.3-5.2-9.1,6.2.3,12.5-.2,18.3-2.3,11.2,9.9,18.9,23.3,29.3,34.1,12,8.4,22.4,17.9,30.5,30.2,5.8,7.3,11.6,14.7,18.1,21.4,7.4,6.4,16.3,12.2,18.5,22.4h.1Z"/>
    <path class="st0" d="M555.7,562.7c-.5-1.6-4.5-2.3-6-3.2-3.1-1.4-4.2-4.8-6.3-6.9,3.2,1.2,6.5,2,10,1.9-.4,3.1,1.6,5.5,2.3,8.2h0Z"/>
    <path class="st0" d="M546.9,564.2h-.3c-.5,2.4-4.5,1.9-7.4.9-6.8-2.5-9.6-9.7-11.9-15.7l.3-.2c8.6.9,15.2,8.1,19.4,15h0Z"/>
    <path class="st0" d="M547.3,438.9c-5,4.5-11,6.7-16.7,9.9-4.5,3.1-11.3,14.3-15.9,5.6,8.5-3.2,9.7-10.8,18.3-15v-.3c1.9-.2,3.5-.5,5.2-1.1h0c3,0,6,.5,9,.9h.1Z"/>
    <path class="st0" d="M544,521.2l-.3.3c-4.5-5.2-8.4-11.4-14.4-14.9l.2-.3c-8.8-9.4-14.2-21-21.6-31.5-8.6-9.1-17.7-18.7-24-29.5,6.7-.8,7.5-3.1,14.4,1.2-1.7,13.2,16,17.2,19.1,29.1,6.6,16.8,27.7,25.5,26.6,45.6h0Z"/>
    <path class="st0" d="M543.2,552.4h0c-5,.5-9.2-2.5-12.8-5.8-6.5-3.8-11-9.6-15.9-15.1-7.9-8.4-19.7-12.1-26.4-21.6-13.2-10.4-25.7-22.8-32-38.8,11.4,2.6,26.9,21.2,34.9,30.2,5.8,6.2,13.6,10.2,19.7,16,7.7,9.2,14.9,18.8,24.2,26.6,2.7,2.5,4.4,7.4,8.1,8.3h0v.2h.2Z"/>
    <path class="st0" d="M539.2,565.2c-11.1,8.4-17.3-12.7-24.4-18.3-5.7-4.2-8.6-10.7-12.9-16,9.5-1.1,12.8,12.3,21.1,15.3,3.7,1.7,5.5,4.7,6.1,8.5,2.2,4.2,5.4,8.8,10.1,10.5h0Z"/>
    <path class="st0" d="M533,439.2v.3c-8.7,4.1-10.8,13.7-20.5,15.6h0c-2.2-1.7-4.6-3.3-7-4.8h0c5.3-1.7,8.8-7.3,10.8-12.2,5.5,1.4,11,1.4,16.8,1.2h0Z"/>
    <path class="st0" d="M530.8,566.2h0c-13.4,1.2-21.9-11.3-26.6-22.1-4.1-6.9-13.5-11.4-13.1-19.9,8.3,3.3,13.8,9.4,18,17,8.9,6.8,13.4,18.3,21.8,25h0Z"/>
    <path class="st0" d="M529.4,506.4l-.2.3c-5.1-3.2-11.3-3.5-16.8-5.6h-.2c-6.3-8.9-15.3-14.5-23.8-21.3-10.4-10.8-18.1-24.2-29.3-34.1,1.7-.5,3.3-1.5,5-2.2v-.4c6.5,1.7,13.1,3,19.8,2.3,6.2,10.9,15.3,20.5,23.9,29.6,7.3,10.5,12.8,22.2,21.6,31.5h0Z"/>
    <path class="st0" d="M521.3,457.2h0c-1.8,1.7-1.3,4.9-1.3,7.1h0c-1.4-3.7-4.6-6.8-7.4-9.2h0c.7-.2,1.4-.4,2.2-.7.8,2.5,4.2,4.2,6.6,2.8h0Z"/>
    <path class="st0" d="M521,564.7v.2c-12.9,3.8-44.7-32-57.3-40.4-15.3-14.4-30.3-30.4-37.9-50.3-1.8-6.5.1-13.7,4.6-18.7,1.4-1.7,4.2-3.9,4-6.3l-.2-.2c.3-.3.6-.5.9-.8l.6.2c-2.2,12.9-7.2,26.1,4.3,36.6,4.5,5.6,8.3,11.5,13.8,16.1,1.7,3.1,3.5,6.7,7.1,8.1h0c.5,8.9,11.3,11,16.8,16.3,10,7.2,14.5,23.2,28.7,23.3,2.8,6.5,8.5,12.4,14.6,15.9h0Z"/>
    <path class="st0" d="M516.2,438c-2,4.9-5.5,10.5-10.8,12.2h0c-2.2-1.4-4.5-2.4-6.9-3.5,2.6-2.3,5.7-4.1,7.9-7,1.8-.8,3.2-2.1,4.8-3.1l.2-.3c1.6.8,3.2,1.4,4.9,1.8h-.1Z"/>
    <path class="st0" d="M514.1,564.7v.2c-10.2,2.3-17.6-5.6-24.2-11.9-7.7-6.4-16.1-12.2-23.8-18.7-12.8-11.6-23.9-24.6-34.2-38.4-13-16.5-19.9-34.8,2.2-46.9l.2.2c.2,2.5-2.5,4.6-4,6.4-13,14.2,1.4,30.8,9.5,43.4,10.4,14,23.7,25.8,37.3,36.7,11.8,10.4,23.1,21.7,37,29.2h0v-.2Z"/>
    <path class="st0" d="M512.1,466.7l-.2.2c-4.9-6.4-15.6-10.9-13.6-20.4,4.3,1.9,8.3,4.2,12,6.9l-.2.2c-.5,4.5.4,9,1.9,13h.1Z"/>
    <path class="st0" d="M506.4,548.7c-14.2,0-18.7-16.1-28.7-23.3-5.5-5.4-16.3-7.4-16.8-16.2h0c10.5,4.7,20,11.7,30.1,17,1.7,9,12.6,13.5,15.3,22.5h.1Z"/>
    <path class="st0" d="M506.4,439.7c-2.2,2.9-5.3,4.6-7.9,7-2.6-1.3-5.6-3.1-8.2-2.9,5.2-1.8,11.2-1.4,16.1-4h0Z"/>
    <path class="st0" d="M490.2,554.7c-10.4-5.4-18.8-13.6-28.7-19.7-6.2-3.1-8.8-9.5-12.9-14.5l2.3-.6c12.7,12.9,27.5,23.5,41.2,35.2v.2c-.7,0-1.3-.3-1.9-.5h0Z"/>
    <path class="st0" d="M491.1,526.2c-10.4-5.5-20.4-12.5-31.2-17.7-3.1-1.4-4.4-4.9-6-7.5-2.5-2.7-5.6-4.9-7.7-7.9-14-17.7-16.6-20.7-10.5-43.4,1.2,9.7,5.9,19,9.9,27.9,4.3,7.8,11.5,13.7,16.8,20.5,6.5,11.4,19,17.8,28.6,26-.2.7,0,1.4,0,2.1h.1Z"/>
    <path class="st0" d="M457.4,532.2c1.2,1.1,2.6,2,4.1,2.9-8.6-1.6-14.4-10.6-21.2-15.5h.1c-1.2-4.3-9.2-8.6-12.5-14.4.5.3.9.6,1.3.8h.1c5.8,5.3,13.9,8.4,19.3,14.5,3.3,3.7,4.9,8.3,8.8,11.7h0Z"/>
    <path class="st0" d="M416.7,463.1c1.4-3.3,4.7-5.7,8-7.4-16.7,23.6,14.9,45.8,26.3,64.3l-2.3.6c-5.8-6.6-14.6-9.6-20.6-15.9-5.5-7.3-12-13.5-17.1-21-3.6-6.9-2.3-17.3,5.8-20.5h0Z"/>
    <path class="st0" d="M440.3,519.4h-.1c-6.3-5.1-13.2-9.9-19.9-14.5l1.1-1.7c-6.6-7.7-16.1-12.9-21.6-21.6-5.3-6.8-13.5-12.9-12.9-22.3.4-3.9,4-8.3,8.3-7.7v-.5c.8,0,1.6.2,2.3.2h0c-3.9,1.1-7.1,6.3-7.3,9.5-.4,6.7,6.1,10,10,14.6,2.9,8.7,12.2,13.1,18,19.9,1.7,2.3,3.8,4.2,6,5.9,1,1.5,1.8,3.1,3.6,3.9,3.3,5.8,11.3,10.1,12.5,14.2h0Z"/>
    <path class="st0" d="M435.1,447.6v.6c-2.7,2.5-5.6,4.5-8.5,6.3-2.9-3.9-7.9-8.5-12.4-10.2,7,.7,13.9,2.6,20.9,3.2h0Z"/>
    <path class="st0" d="M427.8,505.3c-1.8-.9-2.7-2.4-3.6-3.9-2.2-1.8-4.3-3.6-6-5.9-5.8-6.8-15.1-11.2-18-19.9-3.8-4.6-10.4-7.9-10-14.6.2-3.2,3.5-8.4,7.3-9.4h0c2.1.2,4.3.5,6.4,1-5,.2-8.7,5.5-7.6,10.1,2.4,7.7,10.1,12,13.6,19.2h.1c4.9,8.9,12.9,16,19.2,24.1h-.1c-.4,0-.9-.3-1.3-.6h0Z"/>
    <path class="st0" d="M426.4,454.2l.2.4c-1.3.8-2.6,1.6-3.9,2.4-3.5-4.8-10.3-9.3-16.3-9.8h0c2.7-.5,5.1-2.5,7.8-2.8,4.6,1.7,9,6,12.2,9.8h0Z"/>
    <path class="st0" d="M422.5,456.4l.3.5c-.2.1-.4.2-.6.4l-.2-.3c-11.2,0-21.4-8-32.9-5.4.2,0,.3-.1.5-.2v-.3c5.7-.9,11.5-1.9,17-3.9h0c5.8.4,12.3,4.9,16,9.4v-.2h0Z"/>
    <path class="st0" d="M421.9,456.9l.2.3c-2.6,1.5-4.3,3.6-5.5,5.9-3.5,1.4-5.7,4.1-6.8,7.3h-.2c-3.6-5.7,2.6-13.8,8.8-13.5h0c1.2,0,2.4.1,3.6,0h-.1Z"/>
    <path class="st0" d="M421.4,503.3l-1.1,1.7c-.4-.3-.8-.5-1.1-.8h0c-6.6-7.5-15.4-12.9-22.1-20.3-3.3-3.8-5.5-8.1-9.5-11.3-2.1-3.8-4.8-7.8-4.9-12.2.5-6,6.4-10.9,12.6-9.3v.5c-4.3-.5-7.9,3.8-8.3,7.7-.6,9.4,7.6,15.6,12.9,22.3,5.6,8.7,15,14,21.6,21.6h-.1Z"/>
    <path class="st0" d="M419.2,504.2h0c-10-6.9-20.5-13.3-28.6-22.6-12.2-9.5-22.5-23.4-1.5-30.1-22.1,12.4,21.5,43,30.2,52.7h-.1Z"/>
    <path class="st0" d="M418.4,456.8h0c-6.2-.2-12.3,7.9-8.8,13.5h.2c-.4,1.3-.7,2.5-.8,3.8h-.3c-6.2-6-9.6-19,2.6-19.1h0c2.3.8,4.7,1.5,7,1.8h0Z"/>
    <path class="st0" d="M411.3,455h0c-12.2.2-8.7,13.2-2.6,19.2h.3c-.2,2.6.1,5.3,1,7.7h-.1c-3.5-7.1-11.2-11.5-13.6-19.2-1.1-9.6,7.6-12,15-7.7h0Z"/>
    <path class="st1" d="M403.9,452.4c-10.9-4.1-32.1.8-25.8,15.9,10.3,13.8,24.5,24.4,38.4,34.2,10.1,6.5,20,13.6,29.1,21.6,4.6,4.1,9.6,10.1,15.9,10.9"/>
    <path class="st1" d="M421.9,456.9c-6.4.7-12-3-18-4.4"/>
    <path class="st1" d="M435,448.2c-5.4,6-14.7,7.7-18.4,14.9-6.8,13.6,1.7,26.2,11,36.2"/>
    <path class="st1" d="M416.7,463.1c-8.1,3.2-9.4,13.6-5.8,20.5,5.1,7.5,11.7,13.7,17.1,21,5.9,6.3,14.7,9.3,20.6,15.9,4,5,6.6,11.5,12.8,14.5,10.5,6.1,19.1,15.6,30.5,20.2"/>
    <path class="st1" d="M418.4,456.9c-6.2-.2-12.3,7.8-8.8,13.4"/>
    <path class="st1" d="M411.3,455c-12.2.2-8.7,13.2-2.6,19.1"/>
    <path class="st1" d="M403.9,452.4c-5,.2-8.7,5.5-7.6,10.1,2.4,7.7,10.1,12,13.6,19.2"/>
    <path class="st1" d="M397.5,451.4c-3.9,1-7.1,6.2-7.3,9.4-.4,6.7,6.1,10,10,14.6,2.9,8.7,12.2,13.1,18,19.9,1.7,2.3,3.8,4.2,6,5.9,1.1,2.1,2.8,3.7,5,4.7"/>
    <path class="st1" d="M395.2,451.6c-4.3-.5-7.9,3.8-8.2,7.7-.6,9.4,7.6,15.6,12.9,22.3,5.6,8.7,15,14,21.6,21.6"/>
    <path class="st1" d="M389.5,451.2c-23.2,12,21,43.2,29.7,52.9"/>
    <path class="st1" d="M427.3,504.2c2.7,6.3,11.8,10.9,13,15.3"/>
    <path class="st1" d="M435.7,448.4c-5.2,24.6-5.3,25,10.4,44.8,2.1,3,5.3,5.2,7.7,7.9,1.6,2.6,2.9,6,6,7.5,10.7,5.3,20.8,11.9,31.1,17.8"/>
    <path class="st1" d="M460.9,509.3c.5,8.8,11.3,10.8,16.8,16.2,10,7.2,14.5,23.2,28.7,23.3"/>
    <path class="st1" d="M491,524.4c0,8.6,9,12.9,13.2,19.8,4.8,10.8,13.2,23.3,26.6,22.1"/>
    <path class="st1" d="M435.7,448.6c.4,10.2,5.9,20,9.9,29.2,4.3,7.8,11.5,13.7,16.8,20.5,9.3,14.7,25.8,22.9,39.5,32.7,4.3,5.3,7.2,11.8,12.9,16,7.5,5.9,12.3,25.7,24.2,18.7"/>
    <path class="st1" d="M502.8,530.6c3.9,0,7.9,3.6,10,6.5,3.5,6,10.4,8,14.9,12.9,1.7,6.1,5.2,12.8,11.6,15.2,2.9,1,6.9,1.5,7.4-.8"/>
    <path class="st1" d="M527.5,549.2c8.6.9,15.2,8.1,19.4,15,2.3,1.6,8,1.2,10.3,0"/>
    <path class="st1" d="M434.3,449.2c.2,2.5-2.5,4.6-4,6.4-4.5,5-6.4,12.2-4.6,18.7,7.6,19.8,22.7,35.9,37.9,50.3,12.8,8.5,44.3,44.1,57.2,40.4"/>
    <path class="st1" d="M424.6,455.7c-14.1,18.2,5.9,38.9,17.5,52.8,9.8,13.6,22.3,24.5,35.2,35,12.7,6.5,20.9,24.1,36.7,21.5"/>
    <path class="st1" d="M440.8,448c4.1,5.6,6.3,12.2,11.6,17,4.3,5.8,6.3,12.7,10.2,18.9,7.5,12.3,19.9,19.9,29.1,30.5,7.4,6.2,16,10.3,22.9,17.3,6.8,8,14.8,16.1,24.4,20.6,3.1,0,6,.8,8.9,1.8,5.4.9,10.6.2,16,0,4.6.6,8-2.6,12.4-2.6,4.6.8,5.5-3.3,8.7-5.3,4.2-4,10.6-3.3,15.1-6.2"/>
    <path class="st1" d="M456.5,471.2c13,4.5,25.5,20.1,34.7,30.3,5.8,6.2,13.6,10.2,19.7,16,7.7,9.2,14.9,18.8,24.2,26.6,2.7,2.5,4.4,7.4,8.1,8.3"/>
    <path class="st1" d="M543.2,552.4c2.3,2,3.3,5.5,6.5,6.9,1.5,1,5.6,1.6,6,3.5"/>
    <path class="st1" d="M564.3,554.7c2.1,2.2,4.1,5.8,7,6.5,1.8.4,8,.5,8.6-1.7"/>
    <path class="st1" d="M572.7,552.2c2.4,2.1,4.2,6,7.3,6.7,6.8.3,14.6-3.9,17.6-10"/>
    <path class="st1" d="M590.9,543c8.1,8,13,8.5,22.7,2.1,4.5-3.2,10.2-3.2,15.3-5.5"/>
    <path class="st1" d="M592.1,555.2c5.6,1.7,10.1-.4,14.9-3.2,5.4-1.8,10.2-4.4,14.8-7.6,2.8-.9,5.1-2.2,6.7-4.5"/>
    <path class="st1" d="M459.2,445.8c11.3,9.8,18.9,23.2,29.2,34,12,8.4,22.4,17.9,30.5,30.2,5.8,7.3,11.6,14.7,18.1,21.4,7.4,6.4,16.3,12.2,18.5,22.4"/>
    <path class="st1" d="M512.4,501.1c21.4,3.9,23.5,12.6,37.2,26.8,7.1,7,17.5,11.2,21,21,.4,1.1.6,2.9,1.9,3.2"/>
    <path class="st1" d="M539.6,526.2c4.7,9.4,17.1,12.2,22,21.3.8,2.5.3,4.3,2.4,6.3"/>
    <path class="st1" d="M560.8,545.4c6.9,1.7,4.9,12.6,12.7,13.2"/>
    <path class="st1" d="M483.9,445.6c7.5,13.3,19.9,23.1,28.3,35.7,4.9,9,10.4,17.5,17.2,25.1"/>
    <path class="st1" d="M490.3,443.7c10.3,2.3,20.6,8.7,27.6,16.9,4,6.6,5.6,14.4,10.4,20.7,3.8,5.8,10.2,8.8,15.8,12.4,7.1,10.3,11,22.7,12.4,35"/>
    <path class="st1" d="M556.6,525c3.2-.5,6.4,4,8.4,6"/>
    <path class="st1" d="M498.2,446.8c-1,13.1,16,16.9,19.3,28.9,6.6,16.8,27.7,25.5,26.6,45.6"/>
    <path class="st1" d="M510.2,453.7c-.5,4.5.4,9,1.9,13"/>
    <path class="st1" d="M498.7,446.3c2.9-1.9,5.5-3.9,7.7-6.6"/>
    <path class="st1" d="M505.5,450.2c5.2-1.7,8.8-7.2,10.7-12.1"/>
    <path class="st1" d="M512.5,455c9.6-1.9,11.8-11.5,20.5-15.6"/>
    <path class="st1" d="M514.8,454.6c4.8,8.4,11.4-2.6,15.9-5.7,5.7-3.3,11.6-5.5,16.7-9.9"/>
    <path class="st1" d="M521.3,457.3c-1.8,1.6-1.3,4.8-1.3,7"/>
    <path class="st1" d="M544.2,493.4c11.3,4.6,12.6,6.9,15.7,18.5,6,12.3,12.2,26.6,24.8,33.5"/>
    <path class="st1" d="M553.5,498.2c5.8.9,11.9,2.9,17.8,3.2"/>
    <path class="st1" d="M527,452.4c-.9,15.9,14.9,22.1,25.2,30.5,4.8,5.9,9.5,11.9,15.8,16.2,8.7,9.6,32.2,9,28.8,26.1"/>
    <path class="st1" d="M552.8,483.2c10.3,2.3,21.1,6.1,29.4,13,8.3,5.3,35.1,23.5,42.1,10.9"/>
    <path class="st1" d="M587.2,509.2c26.4.3,10.8,13.3,22.8,19.4,9.3,1.2,7.7-13.7,2.8-17.6"/>
    <path class="st1" d="M566.3,504.7c2,4.5,5.1,8.2,8.1,12.1,4.1,9.3,8.9,18.9,17,25.3"/>
    <path class="st1" d="M563.6,500.4c0,1.4,1.8,2.8,2.7,4.2"/>
    <path class="st1" d="M566.3,504.7h0c5.3,4.8,12.8,6.2,18.3,10.6,8.5,6.5,3.8,21.6,15.7,24.4"/>
    <path class="st1" d="M589.7,523.1c6,.2,10.5,5.8,16.5,3.3"/>
    <path class="st1" d="M605.7,526.4c0,4.8,1.6,11,5.3,14.4-4.1,5.6-11,4.2-16.4,1.6"/>
    <path class="st1" d="M616,526.2c5.6,3.7,6.4,9.2,6.3,15.5"/>
    <path class="st1" d="M621.5,532.4c5.5-.6,11-1.4,13.4-6.9"/>
    <path class="st1" d="M621.6,510.2h0c-.4,9.2,9.9,17.2,18.6,14.8,4.9-1,12,.9,12.6-6"/>
    <path class="st1" d="M623.6,508.3c7.7,2.4,13,3.2,18.8-3.4"/>
    <path class="st1" d="M631.1,510.2c2,7.8,15.1,9,21.7,8.5,2.1-.9,4.5-4.8,5.1-6.9"/>
    <path class="st1" d="M645,511.4c7.7,1.7,15.4,2.3,17.5-7"/>
    <path class="st1" d="M639.1,508.3c7.9.5,15.7-3.2,23.4-3.9,2.8-1.5,4.5-6.7,4.7-9.8"/>
    <path class="st1" d="M631.5,529.9c8.6,1.7,11,1.3,16.8-5.5"/>
    <path class="st1" d="M628.8,539.4c4.7-.8,10.5-6.3,13.6-9.7"/>
    <path class="st1" d="M530.6,448.9c13.3.2,19.2,14.8,28.8,21.9,7.5,4.7,17,4.1,24.2,9.5,6.4,4.7,11.1,11.3,18.4,15,7.5,3.6,15,7.7,22.2,11.7"/>
    <path class="st1" d="M544.9,455.1c13.8,4.2,28.3,5.8,41.9,11,5.8,3.4,11.2,7.4,16.5,11.5,7.3,4.6,16.9,5.4,23.2,11.6,3.4,2.4,5.7,5.8,7.7,9.4,7,8.2,18.1,1.6,24-4.4"/>
    <path class="st1" d="M653,498.8c8.6,1.3,18.6-5.4,20.8-13.6"/>
    <path class="st1" d="M679.6,467.9c1.3-1.9,2.1-3.9,1.8-6"/>
    <path class="st1" d="M638.9,478c1.5-1.2,5-.6,6.7-.3,12.7,3.6,26,1.6,34-9.9"/>
    <path class="st1" d="M633,495.6c7.1-3.9,2.1-12.4,5.9-17.5"/>
    <path class="st1" d="M593.6,470.3c13.5-3.3,34.3-.7,43.5,10.8"/>
    <path class="st1" d="M637.6,488c4.2-.7,7.3,1.8,11.2,2.2,7-.4,14.9.4,21.2-2.7,3-2.3,6.9-3.1,8.2-7.1.4-4.3,1.3-8.1,1.3-12.7h0"/>
    <path class="st1" d="M538.2,445.4c9.5-2.3,18.8.5,28.2,2.6,10.7,2.5,21.9,3.4,32.7,5.5,15,2.8,28.7,10.3,44.1,11.1,4.6.5,9.8,1.5,14.4,2.8,9,1.1,25.4-.8,26.1-12.3"/>
    <path class="st1" d="M565.9,438.6c5.8,0,10.5,2.1,15.9,3.9,8.8,2.2,18.1,1.1,26.9,3.9,11.4,3.5,20.9,7.8,33.2,5.2"/>
    <path class="st1" d="M582,434c13.1,1.7,26.5,9.6,39.9,6.5"/>
    <path class="st1" d="M414.2,444.3c4.5,1.6,9.1,6.1,12.2,9.8"/>
    <path class="st1" d="M406.5,447.1c5.8.4,12.3,4.8,16,9.3"/>
    <path class="st1" d="M582,549.4c.7,2.3,3.4,1.1,5,1.2"/>
    <path class="st1" d="M665.6,478.4c4.2,0,10.6-1.2,13.5-4.6"/>
    <path class="st1" d="M659.9,479.6c0,2.1,0,3.3-1.1,5.1"/>
    <path class="st1" d="M576.4,551.4c1.6.7,2.5,3.2,4.2,3.7,3.6,0,11.7-2.2,13.5-5.4"/>
    <path class="st1" d="M641.3,471c.2,2.7-.2,5.1-2.4,7.1"/>
    <path class="st1" d="M649.9,465.8c.4,2.7.6,5.3-.8,7.9"/>
    <path class="st1" d="M602.5,513.2c-.2-1.8,1.1-4.1,3-4.7"/>
    <path class="st1" d="M650.9,452.8c3,4.1,14.7,7.2,18.5,2.6"/>
    <path class="st1" d="M553.4,555.1c-.2,2.9,1.9,5.1,2.4,7.7"/>
    <path class="st1" d="M556,562.9c4.9,3.7,11.3,1.9,15.4-1.8"/>
  </g>
  <g id="frontal">
    <g>
      <path class="st7" d="M478.1,7.9c-11,0-22.7,4.8-33,6.8-6.6-.2-13.2-.9-19.9-.9v-.5c4.8-1.1,11.2-3,20.2-6v-.4c1.9.2,3.8,0,5.7-.3,9,0,18-1.1,26.9-1.1v2.5h0Z"/>
      <path class="st7" d="M377.5,4.6h-1.7v-.3c16.2-2.2,32.4-2.7,48.6-1.6,7.2.2,14,3.7,21,4.3v.4c-9,3-15.5,4.9-20.3,6-20.6,4.6-12.6-5.7-47.7-8.5h0v-.2h.1Z"/>
      <path class="st12" d="M312.9,54.3c-.8-.2-1.4-.5-2.1-.8.3,0,.6.2.8.3.2,0,.4.2.6.2h.7v.2h0Z"/>
      <path class="st12" d="M312.6,54.2h-.5c-.2,0-.4,0-.6-.2-.4-.2-.8-.4-1.2-.5,1,.3,1.8.7,2.3.9h0v-.2h0Z"/>
      <path class="st12" d="M312.1,54.1h.3-.3Z"/>
      <path class="st12" d="M311.6,53.8c-.2,0-.5-.2-.8-.3-.1,0-.3,0-.4-.2.4,0,.8.3,1.2.5h0Z"/>
      <path class="st12" d="M302.4,50c2.5.5,4.9,1.9,7.8,3.2-3.9-1.6-10-4-7.8-3.2Z"/>
      <path class="st7" d="M337.4,3.9c-6.2,3.7-14.3,10.6-18.5,15.9-.1.1-.2.2-.3.4-11-4.8-20.7-9.7-32.7-11.3v-.2h.1c15.3-6.7,33.6-6.6,50.2-5.1h1.2v.3h0Z"/>
      <path class="st12" d="M264,74.5c.1.4.2.8.3,1.2h-.1c0-.4-.1-.8-.2-1.2h0Z"/>
      <path class="st12" d="M263.6,73.2c.2.8.3,1.7.5,2.5-.2-1-.4-2-.6-2.9v.4h.1Z"/>
      <path class="st12" d="M263.6,73.2c.1.5.2.9.3,1.3,0,.4.1.8.2,1.2-.2-.8-.3-1.7-.5-2.5Z"/>
      <path class="st12" d="M263.3,71.8c0,.3.1.6.2,1-.6-2.6-1.4-5.6-2.4-8.2.3.7.6,1.4.8,2.1.2.7.4,1.4.6,2.1,0,.2.1.5.2.8,0,.3.1.5.2.8.1.5.2.9.3,1.4h0Z"/>
      <path class="st12" d="M263,70.4c0-.3-.1-.6-.2-.8,0,.3.1.6.2.8Z"/>
      <path class="st12" d="M262.2,67.4c.1.5.3,1,.4,1.5-.2-.7-.4-1.4-.6-2.1,0,.2.2.4.2.6Z"/>
      <path class="st12" d="M262.2,67.4c0-.2-.1-.4-.2-.6-.3-1-.7-2-1.1-2.9v-.2c-.4-.7-.7-1.3-1-1.9,1,1.8,1.8,3.7,2.3,5.6h0Z"/>
      <path class="st12" d="M262,66.8c-.3-.7-.5-1.4-.8-2.1-.1-.3-.2-.7-.4-1v.2c.5.9.9,1.9,1.2,2.9h0Z"/>
      <path class="st7" d="M192.4,41h0c-1.4,1.2-2.7,2.4-4,3.7v.5c-17.4,2.4-32.6,12.8-45.7,26l-.5-.5c-3.5,0-7,0-10.4.7h0c16.7-15.3,37.3-29.3,60.5-30.5h0Z"/>
      <path class="st7" d="M302.4,50c-2.2-.8,3.9,1.6,7.8,3.2-2.9-1.3-5.3-2.7-7.8-3.2ZM312.9,54.3h-.2c-.5-.2-1.3-.6-2.3-.9.1,0,.3,0,.4.2.7.3,1.4.6,2.1.8h0ZM322.7,59.8c-.7-.7-1.5-1.4-2.5-2-2-1.5-4.2-2.7-6.6-3.2,2.2.8,4.7,1.9,6.6,3.2.9.6,1.7,1.3,2.5,2ZM165.2,143.6c-.3.7-.7,1.5-.9,2.2.4-.7.7-1.4.9-2.2-.4.7-.9,1.5-1.2,2.4.3-.7.8-1.5,1.2-2.4ZM165.3,143.3c.6-1.1,2.9-4.9,3.6-6.2v-.4c0-.1,0,0-.2.1h0c-.5.8-2.1,3.7-3.4,6.3h0v.2h0ZM259.9,61.8c.3.6.6,1.2.9,1.9-.1-.2-.3-.5-.4-.7-.4-.8-.8-1.5-1.2-2.2.4.7.8,1.5,1.2,2.2.3.5.6,1.1.8,1.7,1,2.6,1.8,5.6,2.4,8.2.2,1,.4,2,.6,2.9h.1c0-.4-.2-.8-.3-1.2-.4-2.6-1-5-1.8-7.1-.6-1.9-1.3-3.8-2.3-5.6h0ZM181,292.1c-8.1,3.4-13.2,11.2-19.8,16.9-12.9,6.9-27,4.7-40.9.9v1c-1,8.5,10.4,12,14.9,16.8,2.5,1.8,10.5,3.9,10.7,8.1-1.4,3.7-2.9,7.2-4.9,10.6-1,2-1.8,3.8-2.3,5.8h-.3c-22.9,13.1-67.5-.2-82.3-21.2v-.3c-.7-.4-1.6-.8-2.3-1.4-16.5-11.7-36.3-26.9-36-49.3l.6-.3c-1.8-3.7-3.4-7.4-3.1-11.8l.2-.2c-13.2-15.2-19.3-37.4-11.6-56.1.3-.6.6-1.2.9-1.8h0c1.7-16.9,5.6-33.9,18.1-46.3,2.1-4.3,4.8-8.2,9.3-10.1h0c.4-1.4.8-2.8,1.3-4.2,2-4.3,5.3-7.7,7.2-12.2,6.5-8.5,18.2-11.3,24.6-20.4,10.4-12.8,21.1-25.5,35.5-34.1,10.1-4.3,20.3-9.1,31.1-10.9,3.4-.6,6.8-.8,10.4-.7l.5.5c13.1-13.2,28.4-23.7,45.8-26v-.5c1.2-1.2,2.6-2.5,3.9-3.6,13.9-11.8,31-18.4,48.4-23.4,13.8-6.3,30-8,45-9v.2c12,1.6,21.7,6.5,32.7,11.3.1-.1.2-.2.3-.4,4.2-5.3,12.3-12.2,18.5-15.9v-.3c5.8,0,11.3-2.4,17.5-2.4s13.6,2.5,21,3.2h1.7c35,2.9,27.1,13.2,47.7,8.6v.5c6.8,0,13.4.7,20,.9,10.3-1.9,22-6.8,33-6.8v-2.5c3.5,0,7.1.2,10.6.6,11.3,2.9,24.5,8.5,31.7,17.8,5.2,4.1,4.8,13.1,4.4,19.1h0c-11.6-4.7-24.1-7.3-36.6-7.3h0c-30.4-1.5-60.5,17.2-71.1,46.1h-.1c-7.3-.2-14.6-.2-21.6,2.8-14,6-27,13-38,23-5,11-15,19-20,31-6,13-11,27-17,40-2,5-2,11-4,17-2,8-10,11-18,12-1,0-2,1-2,2,0,10-4,23-13,28-6-5-14-2-21-2s-2.2-.3-3.2-.9l-.2.5c-8.7.6-16.8,5.4-22.5,12l-.9-.8c-1.9,1.2-3.2,1.3-4.3.6l-.3.5c-3.5.6-6.4,1.8-8.7,4.7-5.3,3.5-10,9.9-16.4,10.8v.2c-7.5,6.5-14.4,14.7-18.2,24.1h-.2c-1.7,2.7-3.2,4.1-6.3,5h-.4Z"/>
      <path class="st12" d="M169,136.8v.2-.2Z"/>
      <path class="st12" d="M165.5,142.9c1.3-2.5,2.8-5.2,3.2-5.8h0c.2-.4.3-.4.2-.2v.4c-.6,1.2-2.5,4.3-3.3,5.7h0Z"/>
      <path class="st12" d="M168.7,137c-.4.6-1.9,3.4-3.2,5.8l-.2.3c1.3-2.6,2.9-5.5,3.4-6.2h0Z"/>
      <path class="st12" d="M165.3,143.2l.2-.3c0,.1-.1.2-.2.3Z"/>
      <path class="st12" d="M168.8,137.1c-.7,1.3-2.9,5.1-3.6,6.2h0c0-.2.1-.3.2-.4.8-1.4,2.7-4.6,3.3-5.7h.1Z"/>
      <path class="st12" d="M164,146c.3-.9.8-1.7,1.2-2.4-.4.9-.9,1.7-1.2,2.4Z"/>
      <path class="st7" d="M161.1,309c-.5.4-.9.8-1.4,1.1-5.4,4.7-8.4,10.8-10.8,17.2-1.1,2.8-2,5.6-3.1,8.4-.2-4.2-8.2-6.4-10.7-8.1-4.5-4.8-15.9-8.3-15-16.8v-1c13.9,3.8,28.1,6,41-.9h0Z"/>
    </g>
    <g>
      <path class="st2" d="M259.1,60.8c-2.3-4.1-4-8.7.2-12.1,10.2-11,17.4-14.4,24.3-15.7,8.2-1.5,15.9-.2,27.6-5.1,4-1.6,4.7-4.5,7.4-7.6.1-.1.2-.2.3-.4,4.2-5.3,12.3-12.2,18.5-15.9"/>
      <path class="st2" d="M264.2,75.7c-.2-.8-.3-1.7-.5-2.5h0c0-.4-.2-.9-.3-1.3-.1-.5-.2-1-.3-1.4,0-.3-.1-.6-.2-.8,0-.2-.1-.5-.2-.8-.2-.7-.4-1.4-.6-2.1-.3-1-.7-2-1.1-2.9v-.2c-.2-.2-.4-.5-.5-.7-.4-.7-.8-1.4-1.2-2.2"/>
      <line class="st2" x1="264.3" y1="76.3" x2="264.3" y2="75.8"/>
      <path class="st2" d="M264.3,76.4h0"/>
      <line class="st2" x1="264.2" y1="75.8" x2="264.2" y2="76.3"/>
      <path class="st2" d="M84.5,122.8c2.7,1,5.2,1.9,7.7,2.6,56.5,18.4,52.4-9.3,84.5-50.6,15.1-16.1,33.4-24.7,55.2-24.6,13-1.2,22,2.2,27.2,10.4h0c.4.7.9,1.4,1.2,2.2.3.5.6,1.1.8,1.7.3.7.6,1.4.8,2.1,0,.2.2.4.2.6.8,2.2,1.3,4.6,1.8,7.1,0,.4.1.8.2,1.2"/>
      <path class="st2" d="M113.7,108.2c8.1-12.1,17.8-25.5,29.1-36.9,13.1-13.2,28.4-23.7,45.8-26,6.2-.9,12.7-.7,19.4.8"/>
      <path class="st2" d="M285.9,8.9c12,1.6,21.7,6.5,32.7,11.3.1,0,.2,0,.3.1"/>
      <path class="st2" d="M165.2,143.6c-.3.7-.7,1.5-.9,2.2-8.8,22.1,3.6,50,23.2,62.2"/>
      <path class="st2" d="M165.3,143.2l.2-.3c1.3-2.5,2.8-5.2,3.2-5.8h0c.2-.4.3-.4.2-.2v.4c-.6,1.2-2.5,4.3-3.3,5.7,0,.1-.1.2-.2.3h0"/>
      <line class="st2" x1="165.3" y1="143.3" x2="165.3" y2="143.5"/>
      <path class="st2" d="M44.2,163.6c33.1-18.3,56.6,1.4,87.1,8.4,3.9-.3,7.4-1.9,10.6-5.6,6.7-7.3,17.6-11.2,22.4-20.6.4-.7.7-1.4.9-2.2"/>
      <path class="st2" d="M313.6,54.6c2.4.5,4.6,1.7,6.6,3.2.9.6,1.7,1.3,2.5,2,2.7,2.2,5.3,4.5,8.3,5.5,8.5,0,19.2-3.7,28.6-2.3"/>
      <path class="st2" d="M312.1,54.1h.3"/>
      <path class="st2" d="M310.4,53.3c.1,0,.3,0,.4.2.3,0,.6.2.8.3"/>
      <path class="st2" d="M310.2,53.2c-2.9-1.3-5.3-2.7-7.8-3.2-2.2-.8,3.9,1.6,7.8,3.2Z"/>
      <line class="st2" x1="310.2" y1="53.2" x2="310.3" y2="53.2"/>
      <path class="st2" d="M312.9,54.3h-.7c-.2,0-.4,0-.6-.2-.4-.2-.8-.4-1.2-.5"/>
      <path class="st2" d="M312.9,54.3c.2,0,.5.2.8.3"/>
      <path class="st2" d="M210.1,91.5c2.6,5.8,6.1,12.4,10.3,18.5,5.9,8.6,13,16.7,20.9,21.5,4.3,3.3,9,1.4,12-2.2,6.9-7.7,15.1-15.2,23-22.3,12.2-11.4,21.2-22.7,36.4-30.8,4.8-2.7,11.2-6.8,15.1-8.8,2-1.1-3.2-5.3-4.4-6.9-.2-.2-.4-.5-.6-.7-.7-.7-1.5-1.4-2.5-2-2-1.2-4.4-2.3-6.6-3.2"/>
      <path class="st2" d="M52.8,185.7c24.5,1.2,24.5-.9,44.2,14.3,4.8,3.6,12.1,5.4,13,12.4,4,26.8,25.9,47.9,48.2,60.8"/>
      <path class="st2" d="M24.4,177.4c.7,9,4.8,14.5,7.2,23.5,4.3,22.4,6,32.6,24.4,48.4h0"/>
      <path class="st2" d="M67.2,204.9c.2,4.5-4.6,9.4-6.5,14.5-2.1,5.6-4.2,11.3-4.5,16.1-.5,4.7-.5,9.3-.2,13.8,1.7,22,13,40.7,34.6,50.5"/>
      <path class="st2" d="M14.2,223.5c2.4,8.2,3.8,11.2,6.1,18.2,3.4,9.5,11.7,15.9,16.5,24.5,5.1,7.4,10,14.7,17,20.6,10.5,6.7,23,11.9,35.1,15"/>
      <path class="st2" d="M24.4,283c6.2.1,10.1,5.6,16.1,7.2,7.7,2.1,18,4.3,25.5,7.4,10.3,4.3,22.1,3.4,32.9,5.8,6.9,1.9,14.1,4.4,21.4,6.4,13.8,3.8,28,6,40.9-.9.2,0,.3-.2.5-.3"/>
      <path class="st2" d="M34.3,296.9c17.2,8.2,18.5,11.9,30.4,10.8,10.9.8,15.2,3.3,23.6-5.8"/>
      <path class="st2" d="M120.2,310.8c-.9,8.5,10.5,12,15,16.8,2.5,1.8,10.5,3.9,10.7,8.1v.3"/>
      <path class="st2" d="M390.1,17.8c15,0,33.5,7.3,47.5,2.8"/>
      <path class="st2" d="M273,28.2c2.1-.2,9.9,2.7,10.6,4.7h0"/>
      <path class="st2" d="M254.9,88.2c3.2-6.9,11.2-10.7,14-17.7"/>
      <path class="st2" d="M69.9,131.8c6-5.5,14.6-6.6,22.3-6.4h1.3"/>
      <path class="st2" d="M97.8,109.6c-2.5,5-4.8,11.4-1.6,16.6"/>
      <path class="st2" d="M206.1,48.9c2.2-3.6,6.2-7,10.6-7.6"/>
      <path class="st2" d="M182.3,210.6c-.9-2.2-.6-5.2-1.7-7.3"/>
      <path class="st2" d="M134.9,177.7c.4-3,2.6-6,4.3-8.4"/>
      <path class="st2" d="M52.5,194.9c2.7-3.5,8.5-7.4,12.9-8.3"/>
      <path class="st2" d="M36.6,176c-5.8,5.5-6.4,13.8-6,21.3"/>
      <path class="st2" d="M30.6,252.1c.8,3.2,3.6,5.8,3.3,9.4"/>
      <path class="st2" d="M205.3,108c4.9,0,11.1-1.2,15.1,2,0,0,.1,0,.2.2"/>
      <path class="st2" d="M205.4,100.6c3.6,2.8,8.2,4.5,11.7,7.5"/>
      <path class="st2" d="M235.1,136.5c3.1-2,6.4-3.1,10.1-3.3"/>
      <path class="st2" d="M244.7,141.6c0-4.1,4.2-6.4,5.9-9.8"/>
      <path class="st2" d="M211.8,38c-2.4,1.4-4.2,4.6-4.7,7.4"/>
      <path class="st2" d="M77.6,308.8c-1.1,14.4,16.1,22.3,26.7,28.5"/>
      <path class="st2" d="M122.1,345.8c6,.7,12.9,2.6,18.8.6"/>
      <path class="st2" d="M181.5,204.3c.3,2.9,3.5,4.3,4.9,6.7"/>
      <path class="st2" d="M371.9,19.8c-4.2,2.1-6.8,6.4-10.2,9.5-1.6,1.3-3,2.4-2.1,4.6,3.3,8.3,3,20.8.1,29.4q-.3.7,0,0"/>
      <path class="st2" d="M359.3,63.2h.4c6.5,1.2,11.5-6.1,20.3-4.4"/>
      <path class="st2" d="M352,18.6c4.9,0,10.1,2.4,13.5,5.8"/>
      <path class="st2" d="M377.5,4.7c35,2.8,27.1,13.1,47.7,8.5,4.9-1.1,11.3-3,20.3-6"/>
      <path class="st2" d="M390.1,10.5c5.9,0,13.5,1.3,19.2,2.6"/>
      <path class="st2" d="M425.3,13.7c6.7,0,13.3.7,19.9.9,5.6.2,11.2,0,16.8-1.5"/>
      <path class="st2" d="M444.7,14.7h.5c10.3-1.9,22-6.8,33-6.8s8.4.7,12.4,2.6"/>
      <path class="st2" d="M387,39c12.6,1.8,24.8,7.5,33.9,16.6,1,1.7,2.2,2.2,3.8,3.2,1,1.1,1.7,3,2.4,4.3"/>
      <path class="st2" d="M404.6,39.9c4.1,1.3,7.6,5.2,11.3,7.5,3.4,2.8,5.1,7.1,8,10.3"/>
      <path class="st2" d="M453.9,24.8c5,2.2,7,9.8,6.8,14.8"/>
      <path class="st2" d="M520.4,23.8c5.2,4.1,4.8,13.1,4.4,19.1"/>
      <path id="REMOVE" class="st2" d="M416.8,82s0-.2.1-.3c10.6-28.9,40.7-47.6,71.1-46.2"/>
      <path id="REMOVE1" class="st2" d="M487.6,35.6h.5c12.5,0,25,2.7,36.6,7.4"/>
      <path id="REMOVE2" class="st2" d="M269.8,165.6c-.5,1.9-2.5,4.9-3.5,6.9-1,3-1,6-2,9-7,16-15,34-7,51,.4.9,1.1,1.6,1.8,2.1.9.6,2.1.9,3.2.9,7,0,15-3,21,2,9-5,13-18,13-28s1-2,2-2c8-1,16-4,18-12,2-6,2-12,4-17,6-13,11-27,17-40,5-12,15-20,20-31,11-10,24-17,38-23s14.3-3.1,21.6-2.9"/>
      <path class="st2" d="M333.6,109.2c4.3,6.3,8.8,12.9,7.8,21"/>
      <path class="st2" d="M298,189c6.9,1.6,12.3,5.2,14.5,12.3"/>
      <path class="st2" d="M207.6,124.8c-4.8,8.4-10.8,15.8-9.2,26.2-1.4,15.3,11.3,25.2,19.6,36.2,8.7,15.7.7,35.3,8.7,51.1,1.2,2.6,2.1,7.2,4.5,8.5,1.1.6,2.5.6,4.3-.6"/>
      <path class="st2" d="M189.9,149.3c2.5,2.6,4.4,4.7,7.7,6.2"/>
      <path class="st2" d="M191.8,142c.2,4.3,3.5,7.6,5.8,11"/>
      <path id="REMOVE3" class="st2" d="M229,253.6c2.2-.7,4.6-2.8,5.9-4.7.5-.6,1-1.3,1.5-1.9,5.7-6.6,13.8-11.5,22.5-12"/>
      <path class="st2" d="M147,213c13.3,8.3,21.3,21.8,33.3,31.4,8.6,5.5,15.2,14.8,24.8,18.5h.7c6.5-.9,11.1-7.4,16.4-10.8,2.3-2.9,5.2-4.1,8.7-4.7"/>
      <path id="REMOVE4" class="st2" d="M176.9,302.1c4.9-4.2,8.6-8.9,10.6-14.9s0,0,0,0c3.8-9.4,10.7-17.6,18.3-24.1"/>
      <path id="REMOVE5" class="st2" d="M138.7,352.2h0c.5-2.1,1.3-3.9,2.3-5.9,2-3.3,3.5-6.9,4.9-10.6,1-2.8,2-5.6,3.1-8.4,2.4-6.4,5.4-12.5,10.8-17.2.5-.4.9-.7,1.4-1.1,6.6-5.7,11.8-13.5,19.8-16.9,3.1-.9,4.6-2.3,6.3-5.1"/>
      <path class="st2" d="M84.7,221.5c1.3,21.7,16.2,43.1,32,57.3,19,12.3,30.8,19.9,54.7,19.9"/>
      <path class="st2" d="M80.3,228c2.7,3.4,5.1,6.8,7.7,10.2"/>
      <path class="st2" d="M151.1,211c.8,3.3,4.2,6,5.9,9"/>
      <path class="st2" d="M11.3,194.3c.7,5.3-3.8,10.5-6.5,15.4-.3.6-.6,1.2-.9,1.8-7.7,18.7-.9,40.8,12.3,56,4.4,5.1,9,9.6,14.8,12.7"/>
      <path class="st2" d="M15.3,267.8c-.3,4.4,1.2,8.1,3.1,11.8,2.1,4.3,4.7,8.4,5.3,13.3"/>
      <path class="st2" d="M17.8,279.9c-.3,22.4,19.5,37.6,36,49.3.7.6,1.6,1,2.4,1.4,4.2,1.8,9.6,1.7,12.5,5.6"/>
      <path class="st2" d="M56.1,330.9c14.8,21,59.4,34.3,82.3,21.1"/>
      <path class="st2" d="M4.7,209.7c1.7-16.9,5.6-33.9,18.1-46.3,2.1-4.3,4.8-8.2,9.3-10.1"/>
      <path class="st2" d="M28.8,160.8c1.7-2.4,2.6-4.9,3.4-7.5.4-1.4.8-2.8,1.3-4.2,2-4.3,5.3-7.7,7.2-12.2,6.5-8.5,18.2-11.3,24.6-20.4,10.4-12.8,21.1-25.5,35.5-34.1,10.1-4.3,20.3-9.1,31.1-10.9,3.4-.6,6.8-.8,10.4-.7"/>
      <path class="st2" d="M131.9,71.4c16.7-15.2,37.3-29.2,60.5-30.4"/>
      <path class="st2" d="M188.5,44.7c1.3-1.2,2.6-2.5,4-3.6,13.9-11.8,31-18.4,48.4-23.4,13.8-6.3,30-8,45-9h.1c15.3-6.7,33.6-6.6,50.2-5.1h1.2c5.8,0,11.3-2.4,17.5-2.4s13.6,2.5,21,3.2h1.9"/>
      <path class="st2" d="M375.9,4.1c16.2-2.2,32.4-2.7,48.6-1.6,7.2.2,14,3.7,21,4.3,1.9.2,3.8,0,5.7-.3,9,0,18-1.1,26.9-1.1s7.1.2,10.6.6c11.3,2.9,24.5,8.5,31.7,17.8"/>
    </g>
  </g>
  <g id="temporal">
    <g>
      <path class="st8" d="M588.8,380.4l.2.2c-1.8,4.2.2,7.2,2.2,10.2,4,10,1,20,0,30-1,2,1,5,0,7-13,16-35,14-53.3,11.6v-.5c-1.6.5-3,.8-4.4,1.1-6.6.6-15-.2-21.8-3l-.2.4c-5.3,4.8-12.7,5.5-19.5,6.7-3,1.3-6,2.2-9.3,2.2-6.4.6-12.3-.6-17.9-2.8-7.1-2.7-13.9-6.8-20.6-10.5v.3c-15.9,5.5-42.1,3.3-64.1-2.3v.5c-10.7,7.2-22,13.4-33.9,18-5.5,2.1-11.1,3.9-16.9,5.2-18.6,6.1-37.8,5.8-55.5-2.2l-.2.4c-15.7,3.5-34-3-47.4-10.9v-.4c-11.1.5-22.3.3-32.4-3.8-9.4-6-20.1-11.4-25.9-21.4-1.4-2.3.5-4.7-1.7-5.8,2.8-15.8-5.4-40.2,9.9-50.2,3.8-5.7,4.7-12.9,10.9-17,4.7-7.9,14.9-8.4,22.8-10.6v-.2c5.6,1.6,12.2.6,17.8,2.1v.2c.9-.5,1.7-.8,2.5-1.1,10.9-16.4,43.3-34.9,58.1-29.1h0c.6.8,1.2,1.6,2,2.4,11,16.3,33.1,18.8,51.1,15.7,10.8-.2,21.8-.9,31-7.2h0c4.4,10,15.5,11.2,25.2,11,6.4.9,12.9,1.8,19.1-.7l.7-.2c-.6-2-.6-5-.4-10.4h-.3c3.6-6.9,6.2-14,8-21.4,6.5-.6,13.4-1.8,20-2.5,7.3.9,14.4,2.1,21.5,4.5,10.7,5.1,18.4,13.1,31.4,11.5,13.3.3,29.6-.8,41.8,4.9,6.4,2.9,11.7,7.7,14.9,15.5,3.8,5.4,7.1,11.4,7.1,18.2l27.5,34.4h0Z"/>
      <path class="st8" d="M235.4,246.2c5.8-6.6,14.4-11.7,23.1-12.3,3.8.6,9,0,12.7,0s8.7.4,12.3,2.9l.3.7c8-3.6,15.7-5.5,25.9-4.2,19-2.6,37.9-8,57.2-5.7l.3.3c3.3-3.2,7-6,11.3-7.3h0c7.5-1.2,14.5-1.7,21.8.6,11.8,6.6,27.8,2.6,38.7,13.5-.8,14.1,14.1,21.1,24.1,28,7,4,12,8,19,12,2.9,1,4.8,1,7.8,1.7v.2c17,12,32.8,22.9,49.8,35l-.4.5c-12.2-5.6-28.5-4.5-41.8-4.9-13,1.6-20.7-6.4-31.4-11.5-7.1-2.4-14.2-3.6-21.5-4.5-6.6.7-13.5,1.9-20,2.5-1.9,7.4-4.5,14.6-8,21.3h.3c-.3,5.6-.2,8.5.4,10.5l-.7.2c-6.2,2.5-12.7,1.6-19.1.7-9.7.2-20.8-1-25.2-10.9h0c-9.2,6.2-20.2,6.9-31,7.1-18,3.1-40.1.6-51.1-15.7-.7-.8-1.4-1.6-2-2.4h0c-14.8-5.7-47.2,12.8-58.1,29.1-.8.2-1.7.6-2.5,1.1v-.2c-5.7-1.4-12.3-.5-17.8-2.1v.2c-8,2.2-18.2,2.7-22.9,10.6-6.2,4.1-7.1,11.3-10.9,17-15.3,10-7,34.4-9.9,50.2h0c-24.9-6-37.9-36.1-28.1-59.2h-.3c.5-2.1,1.3-4,2.3-6,3.5-5.9,5.5-12.5,8-19,2.4-6.4,5.4-12.5,10.8-17.2,7.3-5.7,12.6-14.4,21.2-18,3.1-.9,4.6-2.3,6.3-5.1h.2c3.8-9.3,10.7-17.5,18.3-24v-.2c10.2-1.4,14.9-13.8,25.1-15.5l5.5-.2v.2h0Z"/>
      <path class="st8" d="M464.8,443.6l-.2.4c-15.5,8.4-33.5,3.1-49.9.8-21.7,9-45.7,9-68.6,4.7,11.9-4.6,23.2-10.8,33.8-18v-.5c22.1,5.6,48.3,7.8,64.1,2.3v-.3c6.9,3.7,13.6,7.8,20.8,10.5h0Z"/>
    </g>
    <g>
      <path class="st2" d="M319.6,294c.6-24.2,23.2-39.4,38.3-55.8,3-3.2,6-7,9.4-10.3,3.3-3.2,7-6,11.3-7.3"/>
      <path id="REMOVE6" class="st2" d="M439.2,234.6v.2c-.8,14.1,14.1,21.1,24.1,28,7,4,12,8,19,12,2.9,1,4.8,1,7.8,1.7.1,0,.3,0,.5.1"/>
      <path class="st2" d="M378.6,220v.6h0c7.5-1.2,14.5-1.7,21.8.6,11.8,6.6,27.8,2.6,38.7,13.5h0"/>
      <path class="st2" d="M273.7,242.8c3.6-2,6.9-3.8,10.2-5.3,8-3.6,15.7-5.5,25.9-4.2,19-2.6,37.9-8,57.2-5.7"/>
      <path class="st2" d="M258.5,233.9c3.8.6,9,0,12.7,0s8.7.4,12.3,2.9"/>
      <path class="st2" d="M228,252.7c2.2-.7,4.6-2.8,5.9-4.7.5-.6,1-1.2,1.5-1.8,5.8-6.6,14.4-11.7,23.1-12.3"/>
      <path class="st2" d="M204.6,262h.2c10.2-1.4,15-13.8,25.1-15.5l5.5-.2"/>
      <path class="st2" d="M175.9,301.2c4.9-4.2,8.6-8.9,10.6-14.9s0,0,0-.1c3.8-9.4,10.7-17.6,18.3-24.1"/>
      <path class="st2" d="M137.7,351.3c.5-2,1.3-3.9,2.3-5.9,3.5-5.9,5.5-12.5,8-19,2.4-6.4,5.4-12.5,10.8-17.2,7.3-5.7,12.6-14.4,21.2-18,3.1-.9,4.6-2.3,6.3-5.1"/>
      <path class="st2" d="M428,255.7c.7,12.7-.2,25.7-3.3,38.1-1.9,7.4-4.5,14.6-8,21.3-1.7,3.3-3.7,6.4-5.8,9.5"/>
      <path class="st2" d="M416.9,315.2c-.3,5.4-.2,8.4.4,10.4,1.1,3.7,4,4.1,9.8,10.3,6.1,8,11.8,15.6,21.1,20.1,3.9,3.6,9,3.7,13.7,5"/>
      <path class="st2" d="M434.6,346.4c-2.1,11.4,6.2,21.8,12.4,30.4"/>
      <path class="st2" d="M432.8,255.9c.3,3.3-1.8,6.7-4,9"/>
      <path class="st2" d="M491.4,347.5c5.8,35.2,21.2,19.5,45.7,32,8.3,4,15.6,10.6,25.4,9.8,11,.8,19.3,0,26.3-8.9h0l-27.5-34.4c0-6.8-3.3-12.8-7.1-18.2-3.2-7.8-8.4-12.6-14.9-15.5-12.2-5.6-28.5-4.5-41.8-4.9-13,1.6-20.7-6.4-31.4-11.5-7.1-2.4-14.2-3.6-21.5-4.5-6.6.7-13.5,1.9-20,2.5h-.2"/>
      <path class="st2" d="M537.9,439.4c18.3,2.4,40.3,4.4,53.3-11.6,1-2-1-5,0-7,1-10,4-20,0-30-2-3-4-6-2.2-10.2"/>
      <path class="st2" d="M482.9,332.5c5.2,2.4,7.1,8.5,8.4,14.4,0,.2,0,.3.1.5"/>
      <path class="st2" d="M485,327.9c4,5.8,6.3,12,6.3,19v1.3"/>
      <path class="st2" d="M490.8,330.1c-.6,2.1-.9,4.5-.8,6.9"/>
      <path class="st2" d="M428.7,389.2c11.2,5.3,23.5,8.1,35.9,7.1,5.9-.3,12.7-1.3,17.9,1.8,6.6,3.3,10.1,9.7,12.5,16.3,5.4,7.5,2.9,13.5-3.1,19.6"/>
      <path class="st2" d="M498.4,425.8c.8,4.7-2.3,7.6-4.3,11.4"/>
      <path class="st2" d="M498.8,422.7c1.3,7.1,6.5,11.6,12.9,14.3,6.9,2.9,15.2,3.6,21.8,3,1.4-.3,2.8-.6,4.2-1.1,11-3.5,21.1-12.2,26.1-22.3"/>
      <path class="st2" d="M552.8,431c7.7-2.9,16-8.7,19.6-16.3"/>
      <path class="st2" d="M363.4,271.6c1.5,6.4,5.3,11.8,6.2,18.4,1.1,8.4-1.7,17.7,2.6,25.5h0c4.4,10,15.5,11.2,25.2,11,6.4.9,12.9,1.8,19.1-.7"/>
      <path class="st2" d="M374.9,267.2c-5.2,2.1-7.5,8.9-7.5,14"/>
      <path class="st2" d="M298,254.9c-.4,1.8-1,3.4-1.9,4.8-1.6,2.7-4,5-6.5,7.3-9.3,11-9.8,26.2-1.5,37.6.6.8,1.2,1.6,2,2.4,11,16.3,33.1,18.8,51.1,15.7,10.8-.2,21.8-.9,31-7.2"/>
      <path class="st2" d="M301.4,259.4c-1.8,0-3.6-.2-5.3.3h-.1"/>
      <path class="st2" d="M260.9,259.4c-.6,7.4,13.3,32.3,21.1,33.7"/>
      <path class="st2" d="M301.4,362.9c1-8.5,10-11.3,11.8-19.5,2.9-7.2,4-13.6,10.3-18.6"/>
      <path class="st2" d="M310.9,369.3c0-8,1.7-15.9,1.7-23.8"/>
      <path class="st2" d="M221.7,290.4c10.3,4.5,9.7,18.6,23.5,26.9"/>
      <path class="st2" d="M207.4,353.7c6.1-.4,7.2-6.2,10.7-10.1,2.5-2.6,5.8-6.8,9.5-8.8.8-.5,1.6-.8,2.5-1.1.1,0,.3,0,.5-.1"/>
      <path class="st2" d="M226.5,342.1c.4-2.6,1.6-5.5,3.5-8.4,10.9-16.4,43.3-34.9,58.1-29.1"/>
      <path class="st2" d="M225.1,287c2.9,3,2.3,7.4,4.8,10.5"/>
      <path class="st2" d="M210.8,356.1c.4-1.4,1.1-2.8,1.7-4.1"/>
      <path class="st2" d="M202.8,327.9c1.9,2.5,4.3,3.9,7,4.6,5.5,1.6,12.2.6,17.7,2.1"/>
      <path class="st2" d="M166.1,410.7h0c2.8-15.8-5.4-40.2,9.9-50.2,3.8-5.7,4.7-12.9,10.9-17,4.7-7.9,14.9-8.4,22.8-10.6"/>
      <path class="st2" d="M167.4,397.3c1.1,8.4,5,18.2,11.4,23.9"/>
      <path class="st2" d="M283.5,345.9c-9.4,8.6-15.3,24.5-13.2,37.6,1.4,8.4,6.1,15.7,15.4,19.2,8.8,1.5,19.1,10.6,28.2,7"/>
      <path class="st2" d="M262.8,337.1c7.5.5,12.9,8.5,15.1,15.1"/>
      <path class="st2" d="M270.8,332.8c0,2.5-.4,5.4.6,7.7"/>
      <path class="st2" d="M183,393.2c2.9-.3,5.9,2.6,8.6,3.3,8.3,1.1,16.1-3.1,24.6-2.6,8.7,0,17,3.9,25.8,1.5,11,.6,20.3-5.2,28.3-11.9h0"/>
      <path class="st2" d="M190.2,402.3c.9-1.4,5.5-4.7,7.1-4.9"/>
      <path class="st2" d="M302.2,416.9c-.4-2.4,2.6-4.9,4.3-6"/>
      <path class="st2" d="M313.4,417.5c-.2-15.7,9.1-27.9,22.8-34.7,6.6-5.4,13.9-12.8,22.6-13.6"/>
      <path class="st2" d="M352.8,364.1c1.7,0,3,1.8,4.1,2.8,4.8,5.2,12.8,2.9,18.9,5.2"/>
      <path class="st2" d="M369.7,365.1c2,.8,3.9,3.1,5.1,4.8,4.8,6.2,12.2,10.2,19.5,12.9,12,9.2,27.7,10.1,42.4,10.5"/>
      <path class="st2" d="M237.4,421.9c4.1.8,6.4,7,9.1,9.9"/>
      <path class="st2" d="M352.8,421.1c7,3.8,16.6,7.2,27.2,9.9,22,5.6,48.2,7.8,64,2.3"/>
      <path class="st2" d="M423.8,416.8c8.3,2.3,13.5,11.4,20.3,16.2h0c6.7,3.7,13.5,7.8,20.6,10.5,5.7,2.1,11.6,3.4,17.9,2.8,3.3,0,6.3-.9,9.3-2.2,6.8-1.2,14.2-1.9,19.5-6.7"/>
      <path id="REMOVE7" class="st2" d="M221.2,418.9c8.3,4.3,17.7,7.3,25.3,12.9,8.1,6.7,14.6,15.3,24.6,19.5.9.4,1.7.8,2.6,1.2,17.7,7.9,36.9,8.3,55.5,2.2,5.8-1.3,11.4-3.1,16.9-5.2,11.9-4.6,23.2-10.8,33.8-18"/>
      <path class="st2" d="M138,351.3h0c-9.7,23.2,3.3,53.3,28.1,59.3h0c2.2,1.1.3,3.5,1.7,5.8,5.8,10,16.5,15.4,25.9,21.4,10.1,4.2,21.3,4.4,32.4,3.8,5.9-.3,11.9-.8,17.6-.9"/>
      <path class="st2" d="M226.1,442c13.4,7.9,31.7,14.4,47.4,10.9"/>
      <path id="REMOVE8" class="st2" d="M345.9,449.5h.2c22.8,4.3,46.8,4.2,68.6-4.7,16.4,2.3,34.4,7.6,49.9-.8"/>
      <path class="st2" d="M490,276.7c17.1,12,32.9,22.9,49.8,35,.2.1.4.3.6.4"/>
    </g>
  </g>
  <g id="parietal">
    <path class="st10" d="M677,168.6c-9.3-12.6-26.2-18.9-42-16.8h0c0-.1,0-.2.2-.2,6.1-10.4,3.7-31.8-2.4-47.5l.5-.2c1.2.4,2.5.8,3.6,1.3,14.4,5.8,24.1,19,32,32,6.2,8.7,8.2,20.8,8.3,31.3h-.2,0Z"/>
    <path class="st10" d="M489.5,277.7c-2.6.2-5.1-.4-7.6-2.4-14.2-10.1-32.1-16.4-41.8-31.4-1.2-2.4-1.5-5.2-1-7.9h-.4c-6.6-6.6-16.7-7.9-25.5-9.6-16.6-4.3-16.6-7.7-35.1-4.6h0c-4.4,1.2-8.1,4-11.3,7.2l-.3-.3c-19.3-2.3-38.2,3.1-57.2,5.7-10.5-1.3-18.3.7-26.4,4.4l-.4-.9,7-7.1c3.1-5.3,4.8-12.2,5.4-18.6v-3.2c2.4-2.2,7.6-1.4,11.3-3.8,11.9-3.4,8.9-22.4,15.1-32.3,5.1-11.9,10.9-23.3,15.1-35.6,6.2-9.9,13.3-19.1,19.5-29,7.4-9,18.1-12.8,27.7-18.7,9.5-6.1,20.9-7.7,32-7.8v-.4c10.5-29,40.5-47.2,71-45.8h0c12.5.2,25.2,2.8,36.7,7.5h0c.4-6.1.8-15.1-4.4-19.2l-4.5-6.4c9.3,1.7,18.1,6.7,25.5,12.9l.3-.4c12,2.4,22.1,9.2,31.2,17.3l.5-.6c18,3.2,33.1,14.3,46.3,26.6,8.5,8.7,15.3,19.9,18.8,31.5l-.2.4c-1.2-.5-2.4-.9-3.6-1.3l-.5.2c6.1,15.6,8.5,37.1,2.4,47.5h-.2c15.8-2.1,32.7,4.3,42,16.9.7.9,1.4,1.9,2,2.9-4.8,2.8-10.4,5.4-14.8,8.2h0c-8.2,5-33.3-3-43.4,7.6-.9,2.1-1.9,4-3.1,5.9h0c6.2,11.9,3.8,27.4-.3,39.7v.3c-16.3,4.5-28.2,18.4-36.1,33.3-1,1,0,3-1,4-2,2-2,5-3,7-8,16-20,30-37,36-17-12-34-24-50.5-35.8h-.2Z"/>
    <path class="st2" d="M577.6,192.8c-.8,5.7,1.4,11.5-.7,22-1.3,2.9-13.9,17-19.4,17.8-3.9,2.9-17.3,4-21.6,6.1-3.7,1.8-11.6,8.4-14.2,8.4"/>
    <path class="st2" d="M536.4,94.6c16,14.8,2.5,15.2,26.4,16.3,41.1,8.8,50.7,30.9,27,65.6-8.9,7-11.5,11.6-12.2,16.3"/>
    <path class="st2" d="M628,94.6c1.7,2.7,3.3,6,4.7,9.5,6.1,15.6,8.5,37.1,2.4,47.5h-.2c-2.9,1.7-7.2-4.5-13.8-8.4-5.1-2.9-13-6.5-18.8-6.6"/>
    <path class="st2" d="M366.7,229.1h.1c3.2-3.3,6.9-6.1,11.3-7.4"/>
    <path class="st2" d="M539.2,38.2c-5.2-.3-10.7,1.2-13.8,5.7"/>
    <path class="st2" d="M415.6,81.4c10.5-29,40.5-47.2,71-45.8"/>
    <path class="st2" d="M486.1,35.7h.5c12.5,0,25.2,2.7,36.7,7.4.5.2,1.1.4,1.6.7,4.1,1.8,9.5,2.2,11.8,6.6"/>
    <path class="st2" d="M525.7,43.8c6.7-.4,13.7,2.5,18.9,6.6"/>
    <path class="st2" d="M456.7,58.6c14.6,1.7,45.4,2.5,52.5,16.9h0c3.5,8.5.3,14-7.7,17.6-6.8,3.3-11.2,10-17.6,13.2s-13.2,5.7-18.6,11.4c-10.2,12.7-19,21.1-21.9,37.7-3.8,14.6-8.1,31.3,8.3,39.6"/>
    <path class="st2" d="M420.8,193.1c5.9-5.2,15.9-10.6,23.1-4.1,1.5,2,.6,5.4,1.5,7.8"/>
    <path class="st2" d="M425.5,173.5c4.8,1.2,11.3,7.2,12.6,12"/>
    <path class="st2" d="M420.8,181.5c5.4-.7,8.9,2.6,13.6,4.3"/>
    <path class="st2" d="M430.1,163.5c9.8,6.6,8.4,12.7,10.6,22.6"/>
    <path class="st2" d="M408.9,118.7c16.6,4.1,36.4-5.9,51.1,5.3"/>
    <path class="st2" d="M552,79.5c.9-.5,1.7-1.3,2.2-2.5,1.9-6.6,5-28.6.7-33.6"/>
    <path class="st2" d="M509.1,75.6h.1c9.7-.4,22.6-2.7,31.3,2,3.7,2,8.5,3.6,11.5,1.9"/>
    <path class="st2" d="M552,79.5h0c30.9-.6,55.9,12.7,66.1,42.5"/>
    <path class="st2" d="M544.5,95c0,2.8-.5,5.8,0,8.6"/>
    <path class="st2" d="M572.4,171.6c3,6.7,5.5,13.7,5.2,21.2h0"/>
    <path class="st2" d="M528.6,131.4c6.9,2.1,14,7.4,17.5,13.7h0"/>
    <path class="st2" d="M570.5,136.8c-7.5-.7-16.1,1.5-22.3,6-.7.8-1.4,1.5-2.1,2.3-3.2,3.4-6.5,6.8-9.1,10.6"/>
    <path class="st2" d="M529.6,156c5.3.5,10.9-1.2,16.1.2"/>
    <path class="st2" d="M474.1,150.8c15.9,5.1,27.7,21.9,31,37.9,3.1,9.9-5.5,13.5-12.1,18.6-12.2,11.5-29,14.2-44.6,18.3-5,1.2-8.3,5.5-9.3,10.2-.5,2.7-.3,5.5,1,7.9,9.7,15,27.6,21.3,41.8,31.4,2.4,2,5,2.6,7.6,2.4,4.8-.3,9.8-3.2,14.6-4.2,8-3.2,17.4-1.9,24.2-7.5.9-.9,3-3.8,4.1-3.8"/>
    <path class="st2" d="M545.2,215.9c-10.4-11.6-24.5-19.4-40.5-18.7"/>
    <path class="st2" d="M388.4,159.4c-1.6,8.4-7,16.2-8.1,24.9-2.1,12.3-2.5,24.8-2.2,37.3h0c18.5-3,18.5.4,35.1,4.7,8.8,1.6,18.9,2.9,25.5,9.5"/>
    <path id="REMOVE9" class="st2" d="M273.2,243.8c3.4-1.9,6.6-3.6,9.7-5.1,8.1-3.8,15.9-5.7,26.4-4.4,19-2.6,37.9-8,57.2-5.7"/>
    <path class="st2" d="M524.4,221.1c7,3.1,8.6,12.2,8.6,19"/>
    <path class="st2" d="M614.8,189.2c1,1.3,1.9,2.7,2.6,4.1,6.2,11.9,3.8,27.4-.3,39.6"/>
    <path class="st2" d="M624,168.9c0,6.3-.9,12.6-3.3,18.4-.9,2.1-1.9,4-3.1,5.9"/>
    <path id="REMOVE10" class="st2" d="M666.5,176.4c-.4,1.4-1.2,2.4-2.4,3.2-8.2,5.2-33.3-2.8-43.4,7.8,0,0,0,.1-.2.2"/>
    <path class="st2" d="M633.5,172.8c-.7,3.5-3.7,7.6-6.1,10.1"/>
    <path class="st2" d="M663.4,180.3l.8-.5c4.5-2.8,10.1-5.4,14.8-8.2"/>
    <path class="st2" d="M544.9,35c-1.6-1.6-3.2-3.1-5-4.6-7.3-6.2-16.2-11.2-25.5-12.9l4.5,6.4c5.2,4.1,4.9,13.1,4.4,19.1"/>
    <path class="st2" d="M540.2,30c12,2.4,22.1,9.2,31.2,17.3,4.2,3.7,8.1,7.7,11.9,11.7,8.5,9.4,20.7,12.5,30,20.5"/>
    <path class="st2" d="M571.9,46.7c18,3.2,33.1,14.3,46.3,26.6,8.5,8.7,15.3,19.9,18.8,31.5"/>
    <path class="st2" d="M633.2,103.9c1.2.4,2.5.8,3.6,1.3,14.4,5.8,24.1,19,32,32,6.2,8.7,8.2,20.8,8.3,31.3"/>
    <path class="st2" d="M635,151.8c15.8-2.2,32.7,4.2,42,16.8.7.9,1.4,1.9,2,2.9"/>
    <path class="st2" d="M489.5,277.7c16.5,11.8,33.5,23.8,50.5,35.8,17-6,29-20,37-36s1-5,3-7,0-3,1-4c7.9-14.9,19.8-28.8,36.2-33.3,0,0,.3,0,.4-.1"/>
    <path class="st2" d="M282.9,238.8l-.4-.9,7-7.1c3.1-5.3,4.8-12.2,5.4-18.6v-3.2c2.4-2.2,7.6-1.4,11.3-3.8,11.9-3.4,8.9-22.4,15.1-32.3,5.1-11.9,10.9-23.3,15.1-35.6,6.2-9.9,13.3-19.1,19.5-29,7.4-9,18.1-12.8,27.7-18.7,9.5-6.1,20.9-7.7,32-7.8h2.4c11.9-2,23.5-.6,35.3,1.3,8.4-.4,18.6.6,25-5.8,1.3-1.8,1.4-4.3,2.8-6.1"/>
  </g>
  <g id="occipital">
    <path class="st11" d="M721.9,260.4c5.2,8.3,9.9,17.3,10.8,27h.8c7,9.8,9.1,31.7,6.7,43.5-1,2.8-1.7,5.6-2.4,8.5h.5c3.2,26.2,1.6,54.9-12.8,77.6-1,1.8-2.3,3.2-3.8,4.5l.3.4c-7,16.6-21.6,30.2-39.3,33.9-9.6.2-19.8,1.2-28.4-2.8v.3c-9.4,1.4-19.2-1.7-26.2-8.1-3.2-2.2-7.3-2.8-9.7-6.1v-.4c-5.2.4-10.9-1.4-17.1-2.9-5-.3-11.1-.8-15.5-3.3l-.6-.3c2.6-.9,6.6-1.9,5.6-5.9-1-2-2-3-2-5,3-12,5-26-2-37,.2-1,.5-2,.9-3l-.5-.2c-.3-.5-.4-1.1-.4-1.8-9-12-18-22-26-33-3-13-9-27-22.1-33.9l.2-.5c10.9-3.6,19.9-9.6,26.9-18.6,1-2,3-5,5-7,11.3-20.9,22.6-47.1,45.7-54v-.3c.2-1.1.6-2.2.9-3.3,3.6-11.9,5.1-25.8-1-36.9l.8-.2c1.1-1.6,2-3.4,2.8-5.2,11-9,25.9-5.1,38.8-6,2,0,4-2,5.7-2.6l.2.4,13.6-7.6c9.2,8.1,15.4,19,16.9,30.9h.2c4.9,7.3,9.3,15.4,12.3,23.6,5.7,11.3,14.1,22,14.8,35.2l-.5.3v-.2h-.1Z"/>
    <g>
      <path id="REMOVE11" class="st2" d="M587.1,381c-.3-.5-.4-1.1-.4-1.8-9-12-18-22-26-33-3-13-9-27-22.1-33.9"/>
      <path id="REMOVE12" class="st2" d="M616.3,191.6c6.2,11.2,4.6,25,1,36.9-.3,1.1-.7,2.2-1,3.3"/>
      <path class="st2" d="M620.4,185.1c0,.4-.3.8-.5,1.1-.8,1.8-1.7,3.5-2.8,5.2"/>
      <path id="REMOVE13" class="st2" d="M664.4,177.6c-1.7.6-3.7,2.6-5.7,2.6-12.9,1-27.8-2.9-38.8,6,0,0,0,.1-.2.2"/>
      <path id="REMOVE14" class="st2" d="M667.4,182.3c-1.2-1.4-3.4-3-5.3-2.9l2.5-1.4,13.6-7.6"/>
      <path class="st2" d="M626.2,222.6c-2.9.8-6.7,3.6-8.9,5.9,0,.1-.2.2-.3.4"/>
      <path class="st2" d="M686.2,226c-2.8-.3-5.6-3.6-8.2-4.8-7.6-2.4-20.8-.7-23.7,8-.5,6,2.5,11.5,1.7,17.6,0,5.7-.3,11.4-.7,17-1.6,6.6-2.3,14,4.4,18"/>
      <path class="st2" d="M654.7,273.2c10.4,4.3,18.1,15.1,22.5,27.4,4.7,13.2,5.6,28.2,1.9,38.9h0"/>
      <path class="st2" d="M689.9,248.8c3.7,17.4,1.3,39.4-12.7,51.8h0"/>
      <path class="st2" d="M661.3,205.5c.8,5,.7,10.1.7,15.2"/>
      <path class="st2" d="M667,209.7c-.2,3.9,1.1,6.8-.7,10.6"/>
      <path class="st2" d="M673.1,211c0,3,0,6.7-2.5,8.9"/>
      <path class="st2" d="M704.5,235.4c1.5,19.5,2.1,39,2.5,58.5-3.3,8.5-4.1,17.3-3.1,26.5"/>
      <path class="st2" d="M705.1,300.8c13.4,16.8,18.8,43.6,10.6,63.8"/>
      <path class="st2" d="M720.1,349.6c1.4.7,2.8,1.4,4.4,1.2"/>
      <path class="st2" d="M643.8,339.9c14.1,4.6,10.7.1,23.3-2.2,3.9,0,8,.5,12,1.8,8.8,2.8,17.1,8.5,21.5,16.1,2.7,4.1,3.7,8.3,3.5,13.1,3.7,18.3,13.2,37.9,2.2,55.6"/>
      <path class="st2" d="M699.3,341c.2,2.2-1.5,6-3.5,7"/>
      <path class="st2" d="M676.2,329.2c0,3,0,5.7-1.3,8.3"/>
      <path class="st2" d="M651,348.5c.3-2.6,1.9-3.9,3.2-5.9"/>
      <path class="st2" d="M701.1,345.6c-1.8-.2-3.9,1.8-5.4,2.7"/>
      <path id="REMOVE15" class="st2" d="M585.1,432.1c2.6-.9,6.6-1.9,5.6-5.9-1-2-2-3-2-5,3-12,5-26-2-37,.2-1,.5-2,.9-3,1.3-3.7,3.5-6.8,5.1-10,3-11,8-21,12-32,3-9,3-19,9-27,3-3,3-6,6-9s3-4,5.7-4.1"/>
      <path class="st2" d="M592.7,407.4c2.2,3.8,4.4,8.3,7.9,11"/>
      <path class="st2" d="M592.9,408.3c-.3,3.8,2,8,.6,11.8"/>
      <path class="st2" d="M593.5,369.1c25.4,11.6,59.9-8.3,81.2,14.3,11.3,17.5,7.5,40.4-4,56.8"/>
      <path class="st2" d="M678.7,426.6c2.9,2.7,4,10.5,1.1,13.5"/>
      <path class="st2" d="M680.7,421.3c0,3.1,3.2,6.8,5.3,8.8"/>
      <path class="st2" d="M672.2,379.8c1-3.9,2.8-7.1,3.1-11.3"/>
      <path class="st2" d="M672.5,380.4c3.8,0,7.4-.6,11.3-.6"/>
      <path class="st2" d="M672.2,380.1c3.7-2.6,6.2-6.7,9.9-9"/>
      <path class="st2" d="M618.1,306.2c6.7.7,12.3-1.1,18,3.7"/>
      <path class="st2" d="M631.6,307c3,0,6-.8,9-.6"/>
      <path class="st2" d="M585.7,432.4c4.4,2.5,10.5,3,15.5,3.3,6.3,1.6,11.9,3.3,17.1,2.9,4.9-.3,9.4-2.6,13.6-8.5,3.2-6.2,2-14.2,4.2-20.9.3-.9.6-1.7,1.1-2.6.6-1.2,1.3-2.3,2.2-3.3,1.3-1.5,2.5-1.9,4.1-2.9,1.4-.9,2.4-3,3.9-3.4"/>
      <path class="st2" d="M629.8,404.7c2.4,0,7.7.2,9.6-1.4"/>
      <path class="st2" d="M631,416c0-2.4,3.6-7.9,6.1-9.4,0,0,.3-.1.4-.2"/>
      <path class="st2" d="M641.8,420.7c-3.5-2.3-6.3-7.2-5.7-11.5v-.6"/>
      <path class="st2" d="M678.2,170.4c9.2,8.1,15.4,19,16.9,30.9.4,3.4.4,6.8,0,10.3"/>
      <path class="st2" d="M695.3,201.3c4.9,7.3,9.3,15.4,12.3,23.6,5.7,11.3,14.1,22,14.8,35.2"/>
      <path class="st2" d="M714.6,245.1c1.2,2.5,2.2,5,2.6,7.8,1.6,2.4,3.2,4.9,4.8,7.5,5.2,8.3,9.9,17.3,10.8,27v2.6c2.7,23.4-3.8,16.6-6.3,31.7"/>
      <path class="st2" d="M731.7,310.6c0,6.3-1.6,11.9-2.3,18"/>
      <path class="st2" d="M733.5,287.4c7,9.8,8.9,31.4,6.5,43.2-1,2.8-1.5,5.9-2.2,8.8-1.1,4.4-2.1,8.8-3.9,13-1.5,2.6-2.7,4.3-2.7,7.4"/>
      <path class="st2" d="M738.3,339.5c3.2,26.1,1.6,54.8-12.8,77.5-1,1.8-2.3,3.2-3.8,4.5-1.5,1.2-3,2.3-4.6,3.5-2.4,2.8-3.5,6.8-6.2,9.3"/>
      <path class="st2" d="M648.6,449.4c1.8,1.5,3.7,2.7,5.7,3.6,8.6,4,18.8,3,28.4,2.8,17.7-3.7,32.3-17.3,39.3-33.9"/>
      <path class="st2" d="M618.3,439.1c2.4,3.3,6.5,3.9,9.7,6.1,7,6.4,16.8,9.5,26.1,8.1"/>
      <path id="REMOVE16" class="st2" d="M538.8,311.8c10.9-3.6,19.9-9.6,26.9-18.6,1-2,3-5,5-7,11.3-20.9,22.6-47.1,45.7-54,3.4-1,7.1-1.6,11.1-1.8"/>
    </g>
  </g>
  <path id="frontalPole" class="st3" d="M37.9,194.3c7.2,7.2,17.5,25.6,21,33.7s3.1,25.9,2.3,33.5c-2.4,25.1-23.2,42-30.7,42s-12.4-11.6-12.5-19.7-.3-5.6-1.1-7.2c-2.1-4-1.7-7.8-1.7-8.7-.1-1.6-6.1-8.1-10.1-16.6S.1,235.8.4,229.4c.3-6.4.5-9.4,1.8-13.4,1.3-4,1.4-4.2,2.4-6.4s-.4,1.2.6-5.5,2.5-12.8,3.1-13.9c4.7-8.9,24.4-1.1,29.5,3.9v.2h.1Z"/>
  <path id="temporalPole" class="st4" d="M167.1,356.1c7.2,7.2,30.4,15.7,36.4,22.1s22.4,16.8,27,22.9,6.7,17.2,6.8,20.8-5.9,19.9-11.2,20.1-9.6.7-19.1-.8-11.7-2.3-13.3-3.4c-.8-.6-13.9-7.5-20.7-14.7s-3.8-3.8-5.3-6.7.1-5-1.6-5.8-12.9-1.6-21.3-13.9-7.5-10.9-9-17.7-1.1-5.2-1.3-7.3,0-3.1,0-5.7c.1-6.7,2.6-13.8,3.1-14.8,4.7-8.9,24.4-.1,29.4,4.9h.1Z"/>
  <path id="occipitalPole" class="st6" d="M733.1,287c0,.8.8-.1,2.8,4.5s4.7,13.4,5.1,22.5.5,9.5-.2,13.5-2.7,9.9-2.5,11.9c.4,3.3,1,8,1.4,12.7.6,7.6.3,15.3,0,17-.8,5.1-2.7,20-3.3,21.5s-3.6,16.3-7,18c-6.5,3.2-16.7-8.6-18.5-10.6-3.6-4-3.9-4.6-18.2-18.2-9.9-12-6.8-10.3-9.1-14.2s-1.9-5.3-3.5-11.5-2.1-8.3-1-14.6-1.6-10.9-.4-19.9,4.8-16.1,5.6-19,9.1-21.9,11.4-23.9c9.8-8.4,25.4-16.8,26.3-16.1,3,2.4,10.8,19.6,11.1,26.4Z"/>
</svg>