<svg xmlns="http://www.w3.org/2000/svg" xmlns:xlink="http://www.w3.org/1999/xlink" width="1080" zoomAndPan="magnify" viewBox="0 0 810 809.999993" height="1080" preserveAspectRatio="xMidYMid meet" version="1.0"><defs><clipPath id="d881792e60"><path d="M 14.25 186 L 801 186 L 801 582.902344 L 14.25 582.902344 Z M 14.25 186 " clip-rule="nonzero"/></clipPath><clipPath id="0eed5cc00f"><path d="M 58.949219 232.425781 C 51.375 237.976562 49.574219 241.125 48.449219 244.875 C 46.875 250.199219 48.148438 259.125 46.875 265.125 C 45.824219 270.226562 43.949219 274.199219 42 278.773438 C 39.976562 283.648438 37.125 288.449219 35.023438 293.398438 C 32.851562 298.351562 30.375 304.800781 29.25 308.550781 C 28.648438 310.648438 28.425781 311.550781 28.199219 313.648438 C 27.824219 317.175781 28.5 323.625 27.976562 327.824219 C 27.523438 331.199219 26.101562 333.75 25.800781 336.75 C 25.425781 339.75 25.125 342.449219 25.875 345.898438 C 27 350.925781 32.550781 359.773438 33.675781 363.824219 C 34.273438 365.851562 34.273438 366.824219 34.351562 368.476562 C 34.425781 370.199219 34.648438 372.375 34.050781 374.023438 C 33.375 375.675781 31.199219 376.5 30.675781 378.375 C 30 381 31.199219 385.125 32.25 388.800781 C 33.449219 393.226562 36.898438 399.300781 37.875 402.824219 C 38.398438 404.925781 38.175781 406.273438 38.625 407.851562 C 39 409.5 39.523438 410.550781 40.5 412.5 C 42.074219 415.726562 45.148438 421.199219 47.851562 425.476562 C 50.625 429.898438 53.699219 435.375 57 438.449219 C 59.625 440.851562 61.726562 442.050781 65.25 443.398438 C 70.5 445.351562 80.476562 445.800781 86.101562 447.300781 C 90 448.425781 93.375 449.625 95.925781 450.824219 C 97.726562 451.726562 98.699219 452.324219 100.199219 453.523438 C 102.375 455.175781 104.851562 458.699219 107.175781 460.125 C 109.050781 461.324219 110.324219 461.699219 112.648438 462.148438 C 116.625 463.050781 123.898438 462.75 129.300781 463.351562 C 134.476562 464.023438 138.976562 465.449219 144.523438 465.976562 C 151.050781 466.648438 159.601562 467.25 166.125 466.5 C 171.675781 465.824219 176.851562 463.199219 181.273438 462.449219 C 184.726562 461.925781 187.875 461.851562 190.574219 461.851562 C 192.675781 461.925781 194.023438 461.851562 196.050781 462.300781 C 198.898438 462.824219 202.351562 463.875 205.800781 465.300781 C 210.074219 467.101562 216.300781 470.101562 219.375 472.574219 C 221.324219 474.148438 222.898438 475.351562 223.5 477.375 C 224.175781 479.925781 222.148438 483.375 221.699219 487.273438 C 221.175781 492.675781 219.75 502.050781 221.175781 507 C 222.148438 510.375 224.773438 512.773438 226.5 514.726562 C 227.699219 516.074219 228.148438 516.675781 229.949219 517.875 C 234.074219 520.574219 245.625 525.675781 252.449219 528.449219 C 257.851562 530.625 263.699219 531.976562 267.226562 533.476562 C 269.324219 534.300781 269.773438 534.523438 272.023438 535.875 C 278.324219 539.550781 295.050781 553.199219 306.449219 559.125 C 316.425781 564.300781 330.226562 568.726562 336.226562 570.449219 C 338.773438 571.125 339.601562 571.273438 341.699219 571.425781 C 344.550781 571.726562 349.050781 571.648438 351.824219 571.574219 C 353.773438 571.5 354.523438 571.726562 356.773438 571.050781 C 362.324219 569.398438 376.648438 561.75 384.449219 557.101562 C 390.523438 553.5 394.875 549.449219 400.050781 546.449219 C 404.699219 543.675781 410.476562 540.976562 413.925781 539.476562 C 415.875 538.648438 416.773438 538.273438 418.726562 537.824219 C 421.574219 537.074219 425.175781 536.476562 429.675781 536.023438 C 436.726562 535.351562 448.273438 536.699219 457.050781 535.351562 C 465.675781 534 476.398438 531.148438 482.023438 527.925781 C 485.476562 525.824219 486.898438 522.148438 489.300781 520.800781 C 490.949219 519.898438 491.773438 519.601562 494.25 519.523438 C 501.074219 519.300781 524.851562 525.898438 534 526.875 C 538.800781 527.398438 540.898438 527.773438 544.949219 527.25 C 550.425781 526.425781 558.898438 523.425781 563.773438 521.324219 C 567.148438 519.824219 569.476562 517.648438 571.875 516.675781 C 573.523438 515.925781 574.875 515.550781 576.523438 515.398438 C 578.324219 515.175781 580.125 515.175781 582.226562 515.476562 C 584.925781 515.851562 588.226562 517.425781 591.375 517.875 C 594.449219 518.324219 597.675781 518.625 600.824219 518.25 C 603.976562 517.875 607.351562 517.050781 610.273438 515.699219 C 613.050781 514.425781 615.675781 511.5 618 510.375 C 619.648438 509.550781 620.773438 509.175781 622.648438 508.949219 C 625.351562 508.648438 629.324219 509.023438 632.550781 509.550781 C 635.851562 510.148438 639.523438 512.175781 642.300781 512.476562 C 644.324219 512.699219 645.523438 512.851562 647.550781 512.101562 C 651 510.824219 656.925781 504.449219 660.226562 502.800781 C 662.101562 501.898438 662.925781 501.824219 665.023438 501.375 C 668.773438 500.476562 675.976562 500.101562 681.148438 498.824219 C 686.25 497.625 689.851562 495.523438 695.851562 493.949219 C 704.851562 491.625 721.273438 488.699219 730.351562 487.425781 C 736.199219 486.523438 741.300781 486.824219 744.824219 485.851562 C 747 485.324219 748.199219 484.648438 749.773438 483.75 C 751.425781 482.773438 752.398438 481.949219 754.425781 480.226562 C 759.148438 476.175781 771.976562 462.898438 776.398438 459.300781 C 778.125 457.875 778.949219 458.175781 780.226562 456.523438 C 783 453 787.050781 440.398438 788.550781 435.824219 C 789.226562 433.648438 789.601562 432.601562 789.824219 430.949219 C 790.050781 429.226562 790.125 427.875 789.898438 425.699219 C 789.523438 421.949219 788.101562 415.273438 786.449219 410.324219 C 784.875 405.449219 781.273438 400.273438 780.226562 396.449219 C 779.550781 393.976562 779.398438 392.550781 779.550781 390.074219 C 779.625 386.699219 781.351562 381.898438 781.875 378 C 782.324219 374.476562 783.449219 371.324219 782.550781 367.875 C 781.5 363.675781 776.175781 358.273438 774.449219 355.050781 C 773.476562 353.175781 773.023438 352.574219 772.574219 350.398438 C 771.675781 346.125 772.425781 334.648438 771.898438 330 C 771.601562 327.523438 771.523438 327 770.699219 324.375 C 768.523438 317.476562 758.175781 296.625 754.875 287.925781 C 753.074219 283.125 753.300781 280.949219 751.199219 276.601562 C 747.976562 269.773438 740.550781 257.851562 735.226562 251.773438 C 731.550781 247.574219 727.875 244.949219 724.125 242.324219 C 720.898438 239.925781 716.398438 238.574219 714.375 236.476562 C 712.949219 235.050781 712.574219 234 711.824219 232.050781 C 710.625 228.601562 710.550781 220.351562 709.5 216.976562 C 708.898438 215.101562 708.300781 214.425781 707.398438 212.851562 C 706.125 210.523438 704.023438 207.148438 702.074219 204.449219 C 700.125 201.75 697.648438 198.75 695.773438 196.800781 C 694.351562 195.375 692.550781 194.773438 691.949219 193.5 C 691.425781 192.523438 691.5 191.175781 691.800781 190.125 C 692.023438 189.074219 692.699219 187.875 693.675781 187.273438 C 694.875 186.523438 697.273438 186 698.625 186.523438 C 700.050781 186.976562 701.699219 188.699219 702.074219 190.125 C 702.449219 191.550781 701.925781 193.949219 701.023438 195.074219 C 700.050781 196.199219 697.800781 197.023438 696.300781 196.875 C 694.875 196.726562 692.851562 195.375 692.175781 194.023438 C 691.5 192.75 691.648438 190.273438 692.175781 189 C 692.625 187.949219 693.675781 187.125 694.726562 186.675781 C 695.699219 186.226562 696.898438 186 698.101562 186.300781 C 699.75 186.75 701.550781 188.25 703.425781 189.976562 C 706.351562 192.601562 710.550781 197.925781 713.175781 201.675781 C 715.273438 204.75 717.226562 208.050781 718.351562 210.523438 C 719.175781 212.175781 719.476562 213 719.925781 214.875 C 720.75 218.25 719.699219 225.898438 721.875 229.125 C 723.675781 231.75 727.5 231.898438 730.5 234 C 734.25 236.625 738.375 239.476562 742.351562 243.976562 C 748.050781 250.5 754.800781 261 759.824219 270.824219 C 765.300781 281.550781 769.5 296.851562 773.550781 306 C 776.175781 312.148438 779.398438 317.476562 780.898438 321.074219 C 781.648438 322.949219 781.949219 323.476562 782.324219 325.5 C 783 329.773438 781.875 341.476562 782.550781 345.75 C 782.851562 347.851562 783.148438 348.523438 783.976562 350.324219 C 785.398438 353.476562 790.125 359.175781 791.625 362.398438 C 792.449219 364.273438 792.75 365.25 792.976562 367.199219 C 793.273438 369.976562 792.824219 374.101562 792.449219 377.550781 C 792 381.074219 790.875 384.976562 790.648438 387.976562 C 790.425781 390.226562 790.199219 391.648438 790.726562 393.976562 C 791.476562 397.800781 795.375 403.875 796.875 408.375 C 798.148438 412.050781 798.898438 415.875 799.5 418.726562 C 799.949219 420.675781 800.324219 421.726562 800.398438 423.675781 C 800.625 426.449219 800.699219 430.199219 799.949219 433.949219 C 799.050781 438.75 796.648438 444.824219 794.398438 450 C 792.226562 455.175781 790.800781 459.75 786.675781 465.074219 C 780.300781 473.25 762.375 487.648438 756.300781 492 C 753.976562 493.648438 753 494.101562 751.125 494.851562 C 749.324219 495.601562 747.75 495.976562 745.351562 496.425781 C 741.601562 497.101562 736.574219 497.023438 730.800781 497.925781 C 722.25 499.199219 707.476562 502.050781 699.074219 504.226562 C 693.375 505.726562 690.148438 507.523438 684.898438 508.800781 C 678.601562 510.449219 669.675781 510.300781 663.824219 512.851562 C 658.875 515.023438 655.125 520.425781 651.675781 522.074219 C 649.5 523.125 648.375 523.5 645.824219 523.574219 C 641.25 523.648438 630.976562 519.601562 626.476562 519.75 C 624.148438 519.824219 623.023438 520.351562 621.074219 521.25 C 618.449219 522.375 615.449219 525.375 612.300781 526.648438 C 609.226562 527.925781 605.925781 528.601562 602.625 528.898438 C 599.023438 529.273438 595.125 528.976562 591.523438 528.523438 C 587.925781 528 583.800781 526.351562 580.949219 526.125 C 579.148438 525.898438 578.101562 525.824219 576.375 526.273438 C 573.824219 527.023438 571.351562 529.574219 567.675781 531.148438 C 562.273438 533.398438 553.125 536.625 546.675781 537.523438 C 541.351562 538.199219 537.675781 537.675781 531.976562 537 C 523.648438 536.101562 508.125 532.949219 501.898438 531.300781 C 499.050781 530.550781 497.699219 528.75 495.75 529.199219 C 493.273438 529.800781 492.226562 534.148438 488.699219 536.324219 C 482.398438 540.074219 468.976562 543.824219 458.699219 545.550781 C 448.351562 547.273438 434.773438 545.324219 426.898438 546.523438 C 422.101562 547.273438 419.175781 548.324219 415.574219 549.824219 C 412.050781 551.25 409.199219 552.898438 405.523438 555.148438 C 400.875 558.074219 396.449219 562.425781 390.300781 566.101562 C 382.050781 571.050781 365.925781 579.148438 359.925781 581.175781 C 357.523438 581.925781 356.925781 581.925781 354.75 582.148438 C 350.851562 582.375 343.125 582.300781 338.476562 581.625 C 334.875 581.023438 333 580.351562 329.023438 579 C 321.976562 576.675781 309.898438 572.851562 300.148438 567.675781 C 288.75 561.75 274.726562 548.925781 265.273438 544.351562 C 259.5 541.5 255.824219 541.574219 250.425781 539.476562 C 243.449219 536.773438 231.824219 531.523438 227.25 528.898438 C 225.148438 527.773438 224.398438 527.324219 222.898438 526.050781 C 220.875 524.324219 218.25 521.851562 216.375 519.375 C 214.425781 516.824219 212.476562 513.449219 211.5 510.976562 C 210.824219 509.175781 210.601562 508.351562 210.375 506.101562 C 209.925781 501.675781 209.851562 489.824219 211.125 485.699219 C 211.800781 483.75 214.050781 483 213.75 481.648438 C 213.074219 479.25 203.324219 475.726562 199.949219 474.300781 C 198.074219 473.476562 197.324219 473.25 195.449219 472.949219 C 192.824219 472.5 189 472.125 185.324219 472.5 C 180.898438 473.023438 175.648438 475.726562 170.699219 476.476562 C 165.75 477.226562 160.648438 477.148438 155.476562 477.074219 C 150.074219 477.074219 143.699219 476.851562 138.898438 476.175781 C 135.074219 475.726562 132.824219 474.675781 128.773438 474.074219 C 123 473.25 111.75 473.25 107.398438 472.199219 C 105.375 471.675781 104.773438 471.449219 103.125 470.476562 C 100.199219 468.675781 95.25 462.976562 92.25 461.101562 C 90.601562 460.050781 89.398438 459.824219 87.824219 459.300781 C 86.175781 458.625 84.976562 458.175781 82.648438 457.574219 C 78.148438 456.375 66.449219 455.101562 62.175781 453.75 C 60.148438 453.074219 59.476562 452.625 57.824219 451.726562 C 55.351562 450.375 51.375 447.898438 49.273438 445.875 C 47.625 444.449219 47.101562 443.25 45.675781 441.375 C 43.351562 438.148438 39.449219 432.898438 36.675781 428.324219 C 33.824219 423.675781 30.449219 418.125 28.800781 413.625 C 27.449219 410.023438 27.675781 407.101562 26.625 403.574219 C 25.351562 399.300781 22.273438 393.375 21.300781 390 C 20.699219 388.050781 20.550781 386.851562 20.324219 385.199219 C 20.101562 383.476562 19.875 381.523438 19.949219 379.726562 C 20.023438 378.074219 20.25 376.351562 20.851562 374.851562 C 21.449219 373.273438 23.175781 372 23.476562 370.425781 C 23.773438 368.851562 23.398438 367.5 22.800781 365.476562 C 21.75 361.875 17.25 355.648438 16.050781 351.148438 C 15.074219 347.476562 15.148438 343.5 15 340.648438 C 14.925781 338.699219 14.851562 337.648438 15.074219 335.773438 C 15.375 333.226562 16.726562 330.226562 17.175781 326.925781 C 17.699219 322.875 17.101562 316.800781 17.476562 313.125 C 17.699219 310.800781 17.925781 309.449219 18.449219 307.273438 C 19.199219 304.5 19.949219 301.949219 21.523438 297.976562 C 24.449219 290.25 34.050781 271.199219 36.074219 265.050781 C 36.824219 262.726562 36.898438 262.199219 37.199219 260.101562 C 37.726562 256.425781 37.273438 248.476562 37.949219 244.949219 C 38.25 243.074219 38.625 242.25 39.375 240.601562 C 40.425781 238.273438 42.300781 235.050781 44.25 232.574219 C 46.199219 230.023438 48.75 227.023438 51.148438 225.523438 C 53.023438 224.324219 55.273438 223.5 57.074219 223.5 C 58.574219 223.425781 60.300781 223.949219 61.199219 224.625 C 61.800781 225.074219 62.175781 225.75 62.324219 226.5 C 62.625 227.398438 62.699219 228.75 62.25 229.726562 C 61.726562 230.773438 58.949219 232.425781 58.949219 232.425781 " clip-rule="nonzero"/></clipPath><clipPath id="8f8926dd8a"><path d="M 50.171875 70.320312 L 703.800781 70.320312 L 703.800781 235.757812 L 50.171875 235.757812 Z M 50.171875 70.320312 " clip-rule="nonzero"/></clipPath><clipPath id="bd01069bc5"><path d="M 50.925781 229.5 C 58.050781 213.824219 58.648438 212.773438 60 211.125 C 61.800781 208.875 64.726562 206.101562 67.273438 203.925781 C 69.675781 201.824219 72.300781 200.773438 74.699219 198.300781 C 77.851562 195 81.375 188.175781 83.925781 185.25 C 85.351562 183.601562 85.949219 183 87.675781 181.648438 C 90.523438 179.25 96.074219 176.101562 99.976562 173.023438 C 103.875 169.875 107.625 165.675781 111.226562 162.976562 C 114.074219 160.726562 115.949219 159.449219 119.476562 157.425781 C 125.25 154.199219 138.375 148.800781 143.023438 146.101562 C 145.125 144.898438 145.125 144.300781 147.375 143.101562 C 153.449219 139.800781 174 133.425781 182.625 128.25 C 188.398438 124.800781 192.226562 119.925781 195.898438 117.675781 C 198.074219 116.25 199.273438 115.800781 201.675781 114.976562 C 205.574219 113.699219 213.675781 113.023438 217.125 111.824219 C 219 111.148438 219.523438 110.773438 221.175781 109.726562 C 224.476562 107.699219 229.800781 102.226562 234.601562 99.824219 C 239.25 97.425781 244.648438 97.273438 249.523438 95.25 C 254.476562 93.148438 258.675781 89.699219 264 87.375 C 270.226562 84.601562 280.273438 81.375 284.773438 80.175781 C 286.875 79.648438 287.398438 79.574219 289.5 79.425781 C 293.851562 78.976562 303.226562 79.648438 309.449219 79.199219 C 315 78.824219 319.875 77.398438 325.050781 77.101562 C 330.148438 76.726562 335.550781 77.476562 340.199219 77.101562 C 344.175781 76.726562 347.175781 75.601562 351.226562 75.074219 C 356.023438 74.550781 361.574219 74.851562 367.199219 74.175781 C 373.574219 73.5 381.898438 71.476562 387.601562 70.949219 C 391.5 70.574219 393.75 70.425781 397.726562 70.648438 C 403.5 71.023438 412.5 72.300781 418.800781 73.726562 C 424.050781 74.851562 427.800781 77.324219 433.199219 78.148438 C 439.574219 79.125 448.800781 78 454.648438 78.226562 C 458.625 78.449219 462 78.449219 464.773438 79.125 C 466.800781 79.574219 468 80.023438 469.800781 81 C 472.273438 82.351562 475.125 85.273438 477.976562 87.074219 C 481.050781 89.023438 483.824219 91.050781 487.574219 92.324219 C 492.375 93.824219 499.050781 93.300781 504.675781 94.5 C 510.375 95.773438 514.800781 98.699219 521.476562 99.824219 C 530.925781 101.324219 549.75 99.601562 556.351562 100.351562 C 558.976562 100.574219 559.726562 100.800781 561.824219 101.398438 C 564.824219 102.375 569.324219 104.101562 572.476562 105.976562 C 575.398438 107.773438 576.75 110.625 580.199219 112.199219 C 585.074219 114.449219 591.976562 114.074219 600 115.949219 C 612.824219 118.949219 642.074219 126.375 649.425781 129.824219 C 651.75 130.949219 652.5 131.550781 653.699219 132.75 C 654.898438 133.949219 655.648438 135.300781 656.625 137.023438 C 657.976562 139.425781 657.976562 143.398438 660.449219 146.101562 C 664.125 150 674.550781 151.574219 679.273438 155.699219 C 683.25 159.226562 684.675781 164.398438 687.898438 168.148438 C 690.976562 171.824219 695.476562 174.523438 698.023438 178.199219 C 700.425781 181.648438 702.675781 187.273438 703.050781 189.375 C 703.199219 190.199219 703.125 190.5 702.976562 191.101562 C 702.675781 192 702 193.425781 701.175781 194.101562 C 700.351562 194.851562 699.148438 195.449219 697.949219 195.375 C 696.601562 195.375 694.273438 194.476562 693.375 193.273438 C 692.476562 192.074219 692.023438 189.675781 692.550781 188.25 C 693 186.824219 694.875 185.25 696.226562 184.800781 C 697.273438 184.351562 698.625 184.574219 699.675781 184.949219 C 700.648438 185.324219 701.773438 186.148438 702.300781 187.199219 C 702.898438 188.398438 703.199219 190.875 702.601562 192.226562 C 702 193.574219 700.050781 195.074219 698.550781 195.375 C 697.050781 195.601562 695.101562 195 693.75 193.726562 C 691.726562 191.925781 691.199219 186.675781 689.023438 183.824219 C 686.925781 181.050781 683.699219 179.699219 681.148438 176.851562 C 678.148438 173.324219 676.574219 167.550781 672.601562 164.023438 C 668.101562 160.050781 658.273438 157.726562 654.675781 154.949219 C 652.726562 153.523438 651.976562 152.699219 650.851562 150.976562 C 649.351562 148.574219 648.75 143.550781 647.101562 141.449219 C 646.050781 140.023438 645.523438 139.648438 643.425781 138.601562 C 636.675781 135.226562 608.324219 128.625 595.949219 125.773438 C 588.148438 123.898438 582.148438 124.351562 576.601562 122.023438 C 571.800781 120 568.273438 115.425781 564.300781 113.398438 C 561.148438 111.824219 559.125 111.074219 555.074219 110.476562 C 547.726562 109.273438 529.5 110.851562 523.351562 110.324219 C 520.800781 110.101562 520.199219 109.949219 517.949219 109.425781 C 514.199219 108.523438 508.199219 105.824219 502.949219 104.773438 C 497.476562 103.648438 490.574219 104.25 485.699219 102.898438 C 481.875 101.851562 479.175781 100.425781 475.875 98.476562 C 472.125 96.226562 467.625 91.5 464.550781 90.074219 C 462.75 89.175781 462.074219 89.25 459.824219 88.949219 C 454.125 88.199219 437.023438 89.550781 429.601562 88.273438 C 425.023438 87.449219 423.148438 85.574219 418.875 84.523438 C 413.101562 83.101562 402.226562 81.523438 397.726562 81.148438 C 395.550781 81 395.398438 81 393 81.148438 C 384.75 81.601562 351.824219 86.773438 338.925781 87.523438 C 331.800781 87.976562 327.074219 87.148438 322.273438 87.601562 C 318.601562 87.976562 316.648438 89.023438 312.601562 89.476562 C 306.148438 90.226562 294.375 88.949219 286.875 90.226562 C 280.800781 91.351562 276.375 93.226562 270.824219 95.550781 C 264.601562 98.25 257.175781 103.425781 251.476562 105.675781 C 247.273438 107.25 244.199219 106.875 240.226562 108.75 C 234.824219 111.226562 229.050781 117.824219 222.675781 120.675781 C 216.300781 123.601562 207.675781 123.300781 202.050781 126.148438 C 197.398438 128.476562 193.648438 133.199219 190.648438 135.226562 C 188.773438 136.5 188.101562 136.949219 185.925781 138 C 181.425781 140.175781 172.875 143.023438 164.699219 146.699219 C 153.148438 151.949219 130.648438 163.199219 123.601562 167.324219 C 120.976562 168.824219 120.449219 169.125 118.425781 170.699219 C 115.125 173.175781 110.476562 178.199219 106.199219 181.574219 C 101.925781 184.949219 96.601562 187.273438 92.851562 190.949219 C 89.175781 194.625 86.175781 200.773438 83.773438 203.625 C 82.351562 205.199219 81.449219 206.101562 80.101562 207.148438 C 78.898438 208.050781 77.699219 208.273438 76.199219 209.476562 C 73.425781 211.574219 68.625 215.699219 65.699219 219.75 C 62.625 223.949219 60.375 232.351562 58.425781 234.375 C 57.75 235.125 57.300781 235.273438 56.550781 235.425781 C 55.574219 235.648438 54.148438 235.574219 53.25 235.125 C 52.351562 234.675781 51.449219 233.699219 51 232.726562 C 50.625 231.824219 50.925781 229.5 50.925781 229.5 " clip-rule="nonzero"/></clipPath><clipPath id="76a1bfe369"><path d="M 372 535 L 552.765625 535 L 552.765625 747.605469 L 372 747.605469 Z M 372 535 " clip-rule="nonzero"/></clipPath><clipPath id="5dd7e9bbed"><path d="M 381.523438 569.476562 C 382.199219 578.25 382.800781 578.925781 383.773438 580.800781 C 385.875 584.851562 391.199219 594.523438 394.574219 599.023438 C 396.824219 602.101562 398.625 603.976562 401.023438 606.074219 C 403.425781 608.25 406.125 610.125 408.976562 611.851562 C 411.824219 613.574219 415.125 614.699219 418.050781 616.425781 C 420.824219 618.074219 423.148438 620.25 425.925781 621.824219 C 428.773438 623.398438 431.773438 624.898438 435 625.800781 C 438.300781 626.699219 442.5 626.25 445.425781 627.148438 C 447.898438 627.898438 450.300781 628.5 451.648438 630.300781 C 453.375 632.476562 452.699219 636.375 453.976562 640.050781 C 455.773438 645.226562 458.550781 651.601562 462.375 658.199219 C 467.625 667.125 476.324219 680.25 483.675781 687.675781 C 489.300781 693.449219 495.523438 696 500.925781 700.648438 C 506.101562 705.074219 511.875 710.625 515.398438 714.824219 C 517.800781 717.675781 519.226562 719.773438 520.726562 722.550781 C 522.300781 725.324219 522.449219 729.074219 524.550781 731.25 C 526.574219 733.5 530.699219 734.773438 533.175781 735.601562 C 534.976562 736.199219 536.324219 736.5 537.898438 736.351562 C 539.324219 736.273438 541.800781 735.976562 542.25 734.925781 C 542.851562 733.351562 539.773438 729.601562 537.824219 726.75 C 535.351562 722.925781 531 718.726562 527.925781 714.449219 C 524.699219 710.175781 522.449219 707.175781 519 701.023438 C 512.398438 689.398438 500.773438 661.050781 493.875 648.449219 C 489.75 641.023438 485.925781 636.824219 483 631.351562 C 480.523438 626.625 479.476562 622.199219 477 617.699219 C 474.375 612.976562 469.425781 607.425781 467.625 603.824219 C 466.648438 601.800781 466.351562 601.050781 465.898438 598.726562 C 464.925781 594.226562 465.074219 584.625 463.875 578.398438 C 462.898438 572.925781 461.625 567.976562 459.75 563.25 C 457.875 558.675781 455.101562 552.75 452.625 550.425781 C 451.273438 549.148438 449.476562 549.449219 448.425781 548.398438 C 447.375 547.425781 446.175781 544.425781 446.324219 544.273438 C 446.476562 544.199219 449.925781 548.175781 449.773438 548.398438 C 449.550781 548.625 446.023438 546.601562 444.824219 545.476562 C 443.925781 544.574219 443.175781 543.675781 442.800781 542.625 C 442.5 541.574219 442.425781 540.226562 442.949219 539.175781 C 443.550781 537.976562 445.425781 536.324219 446.699219 535.875 C 447.824219 535.5 449.175781 535.726562 450.148438 536.175781 C 451.199219 536.625 452.25 537.449219 452.699219 538.5 C 453.300781 539.773438 453.523438 542.175781 452.851562 543.523438 C 452.175781 544.875 450.074219 546.148438 448.726562 546.449219 C 447.523438 546.675781 446.25 546.449219 445.273438 545.773438 C 444.148438 545.023438 442.726562 543 442.648438 541.5 C 442.5 540 443.625 537.824219 444.675781 536.851562 C 445.5 536.101562 447 535.800781 447.898438 535.726562 C 448.574219 535.648438 448.949219 535.648438 449.625 535.949219 C 451.050781 536.550781 453.523438 539.398438 455.476562 540.675781 C 457.125 541.648438 458.699219 541.574219 460.273438 543 C 462.898438 545.398438 465.898438 551.101562 468 555.601562 C 470.175781 560.25 471.75 564.976562 473.101562 570.75 C 474.675781 578.023438 474.976562 590.851562 476.101562 595.800781 C 476.625 598.050781 476.773438 598.574219 477.75 600.449219 C 479.476562 603.898438 484.5 609.300781 487.050781 613.949219 C 489.523438 618.300781 490.351562 622.574219 492.898438 627.300781 C 496.050781 633.226562 500.699219 638.476562 505.050781 646.425781 C 511.5 658.199219 519.75 680.398438 526.125 692.023438 C 530.324219 699.601562 534.148438 704.773438 537.976562 710.023438 C 541.125 714.375 545.25 718.5 547.273438 721.5 C 548.476562 723.300781 549 724.199219 549.824219 726 C 550.875 728.398438 552.375 732.375 552.601562 734.925781 C 552.75 736.800781 552.601562 738.375 551.851562 739.875 C 551.175781 741.449219 549.523438 742.726562 548.101562 743.925781 C 546.675781 745.050781 545.175781 746.25 543.226562 746.851562 C 540.675781 747.523438 537.148438 747.300781 533.851562 746.773438 C 530.175781 746.175781 525.449219 744.375 522.300781 743.023438 C 519.898438 742.050781 517.875 741.675781 516.375 739.949219 C 514.5 737.925781 514.273438 733.800781 512.925781 731.023438 C 511.5 728.175781 510.300781 726 507.976562 723.074219 C 504.523438 718.648438 497.398438 711.523438 492.824219 707.773438 C 489.601562 705.074219 486.675781 703.875 483.824219 701.773438 C 481.050781 699.675781 478.949219 698.25 475.949219 695.023438 C 470.25 688.949219 459.449219 673.425781 454.800781 666.300781 C 452.25 662.398438 451.199219 660.300781 449.476562 656.773438 C 447.300781 652.5 443.925781 645.976562 443.175781 642.375 C 442.726562 640.5 444.074219 638.773438 443.101562 637.726562 C 441.75 636.148438 436.5 637.273438 432.976562 636.300781 C 428.625 635.023438 424.273438 632.625 419.25 630 C 412.800781 626.625 403.574219 621.601562 397.800781 617.101562 C 393.300781 613.5 389.925781 609.523438 386.925781 605.851562 C 384.449219 602.699219 382.875 599.925781 380.851562 596.398438 C 378.449219 592.273438 375.226562 585.75 373.800781 582.300781 C 373.050781 580.5 372.75 579.601562 372.449219 577.875 C 372.074219 575.550781 372 571.574219 372.375 569.476562 C 372.601562 568.199219 372.824219 567.226562 373.5 566.398438 C 374.175781 565.648438 375.449219 565.125 376.351562 564.898438 C 377.175781 564.75 377.925781 564.898438 378.601562 565.199219 C 379.199219 565.425781 379.875 565.800781 380.398438 566.398438 C 380.925781 567.148438 381.523438 569.476562 381.523438 569.476562 " clip-rule="nonzero"/></clipPath><clipPath id="bdcaac9a78"><path d="M 522.300781 489.710938 L 753 489.710938 L 753 668.738281 L 522.300781 668.738281 Z M 522.300781 489.710938 " clip-rule="nonzero"/></clipPath><clipPath id="74bc7c64aa"><path d="M 527.773438 651 C 577.875 657.675781 601.800781 658.800781 611.773438 658.125 C 616.125 657.824219 617.175781 657.449219 621.226562 656.476562 C 628.425781 654.675781 641.625 649.648438 651.074219 647.175781 C 659.476562 645 670.125 643.5 674.925781 642.074219 C 677.175781 641.398438 678 641.25 679.648438 640.273438 C 682.050781 638.851562 685.199219 634.949219 687.449219 633.375 C 689.023438 632.25 689.851562 631.875 691.648438 630.976562 C 694.800781 629.476562 702.074219 629.101562 704.699219 625.800781 C 707.625 622.199219 706.273438 613.949219 707.324219 609.300781 C 708.148438 605.773438 708.976562 602.773438 710.101562 600.148438 C 710.925781 597.898438 711.824219 595.949219 713.101562 594.375 C 714.226562 593.023438 715.351562 592.273438 717.074219 591.300781 C 719.476562 589.800781 723.824219 589.050781 726.523438 587.023438 C 729.226562 585 731.699219 581.625 733.273438 579.226562 C 734.398438 577.425781 734.925781 576.523438 735.601562 574.199219 C 736.800781 569.773438 736.425781 559.125 737.699219 553.648438 C 738.523438 549.898438 740.699219 547.125 741.074219 544.425781 C 741.300781 542.476562 740.625 541.199219 740.699219 539.175781 C 740.699219 536.101562 742.800781 530.925781 741.75 527.773438 C 740.773438 524.773438 736.574219 523.273438 735.074219 520.425781 C 733.648438 517.648438 734.625 512.550781 732.976562 510.824219 C 731.925781 509.625 729.523438 510.300781 728.398438 509.398438 C 727.199219 508.425781 727.199219 506.101562 725.925781 505.199219 C 724.5 504.148438 721.648438 504.675781 719.851562 503.851562 C 718.199219 503.023438 716.925781 501.148438 715.574219 500.550781 C 714.675781 500.101562 713.773438 500.324219 712.949219 499.875 C 712.125 499.273438 711.226562 497.925781 710.851562 497.101562 C 710.550781 496.5 710.476562 496.050781 710.550781 495.375 C 710.625 494.398438 711.074219 492.824219 711.601562 492 C 711.976562 491.476562 712.273438 491.101562 712.875 490.800781 C 713.699219 490.273438 715.125 489.75 716.25 489.824219 C 717.375 489.824219 718.726562 490.5 719.550781 491.101562 C 720.074219 491.476562 720.375 491.925781 720.675781 492.375 C 720.976562 492.898438 721.273438 493.351562 721.351562 494.023438 C 721.5 495 721.351562 496.648438 721.050781 497.550781 C 720.824219 498.148438 720.523438 498.523438 720 499.050781 C 719.324219 499.648438 717.898438 500.476562 716.925781 500.699219 C 716.324219 500.851562 715.800781 500.851562 715.199219 500.699219 C 714.300781 500.476562 712.875 499.875 712.050781 499.125 C 711.300781 498.300781 710.699219 497.023438 710.550781 495.976562 C 710.398438 494.851562 710.851562 493.351562 711.300781 492.523438 C 711.601562 491.925781 711.898438 491.550781 712.425781 491.175781 C 713.175781 490.574219 714.148438 489.824219 715.648438 489.824219 C 719.175781 489.824219 730.273438 494.550781 733.351562 497.101562 C 734.851562 498.375 734.699219 500.101562 735.75 501.074219 C 736.875 502.050781 738.601562 502.050781 739.875 503.101562 C 741.375 504.449219 743.175781 506.851562 744 508.726562 C 744.75 510.300781 744.523438 511.949219 745.050781 513.375 C 745.574219 514.875 746.25 516.226562 747.148438 517.5 C 747.976562 518.773438 749.398438 519.523438 750.226562 520.875 C 751.199219 522.375 752.023438 524.550781 752.398438 526.351562 C 752.773438 528.074219 752.699219 529.875 752.476562 531.523438 C 752.25 533.101562 751.5 534.300781 751.273438 536.175781 C 750.976562 538.800781 751.949219 543.375 751.726562 546.148438 C 751.5 548.101562 751.199219 549.601562 750.601562 551.175781 C 750 552.75 748.726562 553.5 748.125 555.523438 C 747.074219 559.199219 747.449219 568.050781 746.851562 572.023438 C 746.550781 574.273438 746.398438 575.25 745.726562 577.199219 C 744.75 580.050781 742.5 584.476562 740.773438 587.101562 C 739.574219 588.976562 738.300781 590.324219 737.023438 591.675781 C 735.824219 593.023438 735 594.074219 733.351562 595.199219 C 730.875 596.925781 725.398438 598.351562 723.074219 600.148438 C 721.648438 601.351562 720.976562 602.25 720.074219 603.898438 C 718.800781 606.300781 717.976562 610.050781 717.148438 613.726562 C 716.175781 618.074219 716.023438 625.125 714.824219 628.574219 C 714.074219 630.675781 713.324219 631.949219 712.199219 633.148438 C 711.226562 634.351562 710.324219 634.949219 708.601562 635.925781 C 705.375 637.875 697.351562 639.75 693.300781 642.226562 C 690.226562 644.101562 688.351562 647.023438 685.949219 648.675781 C 684 649.949219 682.800781 650.550781 680.175781 651.449219 C 675 653.25 664.949219 654.300781 656.398438 656.550781 C 646.351562 659.101562 631.800781 664.648438 623.851562 666.523438 C 619.425781 667.574219 616.726562 667.949219 613.199219 668.25 C 609.824219 668.625 607.726562 668.625 603.300781 668.550781 C 594.226562 668.324219 573.675781 666.976562 561.824219 665.476562 C 552.675781 664.273438 544.425781 662.023438 537.824219 661.125 C 533.25 660.449219 528.523438 660.898438 526.125 659.925781 C 524.851562 659.398438 524.101562 658.726562 523.574219 657.898438 C 523.125 657 522.824219 655.726562 523.050781 654.75 C 523.199219 653.699219 523.949219 652.574219 524.699219 651.976562 C 525.523438 651.375 527.773438 651 527.773438 651 " clip-rule="nonzero"/></clipPath><clipPath id="25308264ac"><path d="M 520.578125 651.066406 L 564.597656 651.066406 L 564.597656 733.390625 L 520.578125 733.390625 Z M 520.578125 651.066406 " clip-rule="nonzero"/></clipPath><clipPath id="2f5e2e887b"><path d="M 529.875 654.523438 C 542.476562 676.574219 548.773438 683.699219 552.976562 691.050781 C 557.101562 698.25 562.125 708.898438 563.550781 713.773438 C 564.226562 715.949219 564.226562 716.925781 564.300781 718.648438 C 564.300781 720.601562 564.449219 723.226562 563.625 724.949219 C 562.949219 726.449219 561.675781 727.351562 560.25 728.550781 C 558.300781 730.050781 554.851562 732.300781 552.75 732.898438 C 551.398438 733.199219 550.351562 733.199219 549.300781 732.824219 C 548.324219 732.523438 547.125 731.773438 546.601562 730.800781 C 545.925781 729.601562 545.625 727.125 546.074219 725.773438 C 546.375 724.648438 547.273438 723.675781 548.324219 723.148438 C 549.523438 722.550781 552 722.324219 553.351562 722.925781 C 554.625 723.523438 555.976562 725.550781 556.351562 726.898438 C 556.648438 728.023438 556.273438 729.375 555.75 730.273438 C 555.300781 731.25 554.25 732.226562 553.273438 732.675781 C 552.300781 733.125 550.949219 733.351562 549.898438 733.050781 C 548.550781 732.601562 546.601562 731.101562 546.074219 729.75 C 545.476562 728.398438 545.851562 725.925781 546.601562 724.726562 C 547.199219 723.824219 548.476562 723.824219 549.449219 723 C 550.800781 721.875 553.273438 720 553.726562 718.351562 C 554.023438 716.925781 553.199219 715.875 552.523438 713.925781 C 551.023438 709.949219 547.351562 702.300781 543.976562 696.226562 C 540 689.25 533.699219 681.226562 529.800781 674.773438 C 526.800781 669.601562 523.574219 664.199219 522.148438 660.601562 C 521.398438 658.574219 520.726562 656.925781 520.875 655.5 C 521.023438 654.375 521.625 653.25 522.449219 652.648438 C 523.425781 651.898438 525.449219 651.300781 526.648438 651.675781 C 527.925781 651.976562 529.875 654.523438 529.875 654.523438 " clip-rule="nonzero"/></clipPath><clipPath id="c135cfdbdd"><path d="M 424.65625 628.207031 L 531.59375 628.207031 L 531.59375 746 L 424.65625 746 Z M 424.65625 628.207031 " clip-rule="nonzero"/></clipPath><clipPath id="3e0049f49b"><path d="M 433.351562 630.824219 C 444.074219 650.925781 446.175781 658.800781 449.398438 664.648438 C 452.25 669.976562 454.875 673.574219 459.226562 678.824219 C 465.675781 686.625 478.351562 699.226562 485.851562 705.675781 C 490.726562 709.800781 494.773438 711.074219 498.675781 714.976562 C 503.023438 719.324219 507.375 727.726562 510.375 730.800781 C 511.800781 732.226562 512.699219 732.898438 514.050781 733.648438 C 515.398438 734.324219 516.75 735 518.476562 735.148438 C 520.648438 735.300781 523.875 733.351562 525.976562 733.648438 C 527.699219 733.949219 529.574219 734.925781 530.398438 736.199219 C 531.148438 737.476562 531.375 739.875 530.773438 741.226562 C 530.175781 742.648438 528.226562 744.148438 526.800781 744.375 C 525.300781 744.675781 522.976562 743.925781 521.925781 742.875 C 520.875 741.824219 520.199219 739.5 520.5 738 C 520.800781 736.574219 522.300781 734.699219 523.726562 734.101562 C 525.074219 733.5 527.476562 733.726562 528.75 734.550781 C 530.023438 735.375 531.074219 737.625 531.226562 738.976562 C 531.300781 740.101562 530.773438 741.375 530.175781 742.273438 C 529.5 743.175781 528.601562 743.699219 527.324219 744.226562 C 525.226562 745.125 520.574219 745.875 518.023438 745.875 C 516.226562 745.875 514.800781 745.5 513.300781 745.050781 C 511.875 744.523438 510.675781 744.074219 509.101562 743.101562 C 506.925781 741.675781 504 739.425781 501.601562 736.800781 C 498.675781 733.574219 495.675781 727.5 493.5 724.800781 C 492.226562 723.300781 491.699219 722.699219 490.351562 721.574219 C 488.175781 719.773438 485.023438 718.726562 481.351562 715.726562 C 474.074219 709.800781 457.949219 693 451.875 685.949219 C 448.800781 682.425781 447.523438 680.550781 445.574219 677.625 C 443.550781 674.550781 441.824219 671.925781 440.023438 668.101562 C 437.550781 662.851562 435.300781 654.601562 432.601562 648.675781 C 430.199219 643.574219 425.699219 637.726562 425.023438 634.574219 C 424.726562 633.148438 424.800781 632.25 425.175781 631.351562 C 425.625 630.375 426.601562 629.398438 427.5 629.023438 C 428.476562 628.574219 429.824219 628.5 430.800781 628.800781 C 431.773438 629.101562 433.351562 630.824219 433.351562 630.824219 " clip-rule="nonzero"/></clipPath><clipPath id="342d2b2a57"><path d="M 211.121094 302.832031 L 623.777344 302.832031 L 623.777344 483.746094 L 211.121094 483.746094 Z M 211.121094 302.832031 " clip-rule="nonzero"/></clipPath><clipPath id="ac72f8446d"><path d="M 211.875 477.300781 C 219.300781 456.824219 220.125 455.773438 221.851562 454.5 C 224.023438 452.773438 228.148438 452.773438 230.773438 450.226562 C 234.601562 446.476562 237.523438 435.75 240.148438 431.699219 C 241.574219 429.523438 242.101562 428.625 244.050781 427.050781 C 247.5 424.199219 257.101562 420.375 260.550781 418.050781 C 262.273438 416.851562 262.949219 416.476562 264.226562 414.898438 C 266.550781 411.976562 269.023438 404.175781 271.800781 400.425781 C 273.898438 397.5 276.523438 396.148438 278.550781 393.601562 C 280.574219 391.050781 282.074219 387.375 283.800781 385.199219 C 285.074219 383.550781 285.976562 382.726562 287.550781 381.375 C 289.800781 379.5 292.273438 377.699219 296.324219 375.300781 C 304.425781 370.425781 325.800781 359.101562 334.199219 356.175781 C 338.175781 354.75 339.449219 354.675781 343.351562 354.226562 C 350.25 353.398438 362.699219 355.273438 372.300781 353.773438 C 381.976562 352.273438 390.976562 347.699219 401.101562 344.925781 C 412.199219 341.925781 425.851562 338.101562 436.050781 336.675781 C 443.773438 335.625 448.800781 337.351562 456.675781 335.773438 C 468.300781 333.375 487.875 323.476562 498.300781 320.476562 C 504.449219 318.675781 508.050781 318.976562 513.148438 317.175781 C 519 315.074219 526.125 309.75 531.226562 307.949219 C 534.75 306.675781 538.425781 306.898438 540.523438 305.925781 C 541.800781 305.25 542.25 304.125 543.148438 303.601562 C 543.976562 303.148438 544.726562 302.851562 545.625 302.925781 C 546.75 302.925781 548.398438 303.449219 549.300781 304.125 C 549.976562 304.648438 550.5 305.324219 550.800781 306.226562 C 551.175781 307.199219 551.324219 308.851562 550.949219 310.050781 C 550.574219 311.175781 548.773438 313.125 548.550781 312.976562 C 548.175781 312.75 549.449219 306.226562 550.648438 306 C 552.074219 305.699219 553.726562 310.800781 556.800781 312.898438 C 561.824219 316.425781 573.300781 320.625 580.273438 321.898438 C 585.523438 322.875 590.175781 322.425781 594.449219 321.976562 C 597.976562 321.601562 601.351562 320.023438 604.199219 319.800781 C 606.300781 319.648438 607.949219 319.351562 609.898438 320.175781 C 612.449219 321.148438 615.75 324.601562 617.699219 326.851562 C 619.273438 328.648438 620.398438 330.375 621.300781 332.175781 C 622.125 333.824219 622.574219 335.175781 622.949219 337.125 C 623.398438 340.125 623.398438 345.75 622.949219 348.300781 C 622.726562 349.800781 622.351562 350.851562 621.824219 351.675781 C 621.523438 352.199219 621.148438 352.5 620.550781 352.875 C 619.726562 353.324219 618.300781 353.851562 617.175781 353.773438 C 616.125 353.699219 614.699219 353.023438 613.949219 352.5 C 613.425781 352.125 613.125 351.675781 612.824219 351.148438 C 612.523438 350.625 612.226562 350.175781 612.148438 349.5 C 612 348.601562 612.074219 347.023438 612.523438 346.050781 C 612.976562 345 614.101562 343.949219 614.925781 343.5 C 615.523438 343.125 616.050781 342.976562 616.574219 342.898438 C 617.175781 342.824219 617.699219 342.75 618.375 342.898438 C 619.273438 343.125 620.699219 343.726562 621.449219 344.550781 C 622.199219 345.375 622.726562 346.800781 622.949219 347.699219 C 623.101562 348.375 623.023438 348.824219 622.875 349.5 C 622.574219 350.398438 621.675781 351.824219 621 352.5 C 620.550781 352.949219 620.175781 353.25 619.5 353.398438 C 618.601562 353.699219 617.101562 353.925781 616.050781 353.625 C 614.925781 353.324219 613.800781 352.5 613.125 351.601562 C 612.449219 350.773438 612.226562 349.726562 612 348.300781 C 611.625 346.125 612.375 342.226562 612 339.824219 C 611.773438 338.023438 611.25 336.675781 610.574219 335.175781 C 609.824219 333.601562 609 331.425781 607.726562 330.675781 C 606.449219 329.851562 604.5 330 602.925781 330.226562 C 601.273438 330.523438 599.625 332.175781 597.898438 332.625 C 596.398438 333.074219 595.273438 333 593.25 333.074219 C 589.800781 333.226562 583.800781 333.601562 579.074219 332.773438 C 574.050781 331.875 568.875 329.699219 564 327.824219 C 559.351562 325.949219 553.425781 323.699219 550.425781 321.75 C 548.699219 320.625 548.023438 319.875 546.75 318.449219 C 545.023438 316.5 541.574219 313.351562 541.050781 310.726562 C 540.675781 308.398438 542.023438 304.726562 543.148438 303.601562 C 543.824219 302.925781 544.726562 302.851562 545.625 302.925781 C 546.75 302.925781 548.398438 303.449219 549.300781 304.125 C 549.976562 304.648438 550.5 305.398438 550.800781 306.226562 C 551.101562 306.976562 551.398438 307.800781 551.25 308.773438 C 550.949219 310.125 549.675781 312.148438 548.550781 313.351562 C 547.425781 314.550781 546.226562 315.300781 544.5 316.050781 C 542.023438 317.023438 538.425781 316.875 534.75 318.148438 C 529.648438 319.949219 522.898438 325.050781 517.050781 327.074219 C 511.800781 328.949219 507.523438 328.574219 501.375 330.375 C 492 333.148438 474.898438 341.101562 466.574219 343.648438 C 462 345.074219 459.824219 345.675781 455.851562 346.125 C 450.976562 346.726562 446.023438 345.675781 439.5 346.425781 C 429.523438 347.699219 413.550781 351.824219 402 354.976562 C 392.023438 357.675781 383.398438 362.476562 374.175781 363.898438 C 365.476562 365.25 354.898438 363.523438 348.226562 363.976562 C 344.023438 364.273438 342.375 364.125 338.023438 365.476562 C 329.550781 368.25 309.375 379.648438 301.726562 384.300781 C 297.976562 386.625 296.023438 387.675781 293.773438 390.074219 C 291.375 392.476562 290.101562 396.226562 287.925781 398.851562 C 285.75 401.476562 282.976562 402.976562 280.726562 405.898438 C 277.875 409.726562 275.101562 417.300781 272.925781 420.523438 C 271.800781 422.25 271.425781 422.925781 269.851562 424.273438 C 266.925781 426.675781 258.976562 429.824219 255.375 432.074219 C 253.050781 433.574219 251.925781 433.875 249.976562 435.976562 C 246.074219 440.25 241.050781 454.125 236.324219 458.398438 C 233.398438 460.949219 229.949219 459.976562 227.476562 462.601562 C 223.875 466.351562 221.773438 479.101562 219.675781 481.648438 C 219 482.398438 218.625 482.625 217.875 482.851562 C 216.976562 483.074219 215.550781 483.148438 214.574219 482.773438 C 213.601562 482.398438 212.625 481.5 212.175781 480.523438 C 211.726562 479.625 211.875 477.300781 211.875 477.300781 " clip-rule="nonzero"/></clipPath><clipPath id="0ccb9d3b6b"><path d="M 314 93.820312 L 487 93.820312 L 487 371 L 314 371 Z M 314 93.820312 " clip-rule="nonzero"/></clipPath><clipPath id="53c3ce3281"><path d="M 486.675781 100.199219 C 480.675781 109.425781 474.375 112.351562 471.898438 114.601562 C 470.398438 115.875 469.875 116.476562 468.75 117.898438 C 467.175781 120 465.976562 123.226562 463.726562 126.074219 C 460.875 129.675781 455.925781 133.5 452.398438 137.398438 C 448.800781 141.375 446.550781 145.351562 442.351562 149.625 C 436.875 155.25 425.023438 163.574219 421.5 167.550781 C 420 169.273438 419.476562 170.101562 418.875 171.523438 C 418.273438 173.023438 418.574219 174.675781 417.898438 176.398438 C 416.925781 178.800781 414.824219 181.800781 413.023438 184.351562 C 411.148438 186.898438 408.898438 188.398438 406.875 191.851562 C 403.425781 197.550781 399.824219 210.300781 396.601562 216.449219 C 394.425781 220.425781 392.550781 222 390.449219 225.824219 C 387.449219 231.074219 383.925781 240.375 380.851562 245.699219 C 378.601562 249.523438 375.824219 252.523438 374.398438 255.074219 C 373.425781 256.648438 373.125 257.773438 372.449219 259.199219 C 371.773438 260.773438 370.949219 261.898438 370.5 264.148438 C 369.601562 268.425781 370.648438 279.148438 369.976562 283.574219 C 369.601562 285.898438 369.226562 287.101562 368.550781 288.75 C 367.875 290.398438 367.125 291.75 366 293.476562 C 364.351562 295.800781 361.648438 298.050781 359.398438 301.273438 C 356.175781 305.851562 353.101562 313.574219 349.125 318.601562 C 345.449219 323.175781 340.273438 325.425781 336.75 330.375 C 332.625 336.226562 328.574219 345.75 326.773438 352.273438 C 325.425781 357.148438 325.875 362.625 325.199219 365.550781 C 324.824219 366.976562 324.898438 367.949219 324.074219 368.773438 C 323.175781 369.824219 321 371.023438 319.5 370.875 C 318 370.800781 315.898438 369.601562 315.148438 368.324219 C 314.398438 366.976562 314.398438 364.574219 314.851562 363.226562 C 315.300781 362.175781 316.273438 361.199219 317.25 360.75 C 318.226562 360.226562 319.574219 359.925781 320.699219 360.148438 C 322.050781 360.523438 324.074219 361.875 324.675781 363.226562 C 325.351562 364.574219 325.199219 367.050781 324.449219 368.324219 C 323.625 369.601562 321.449219 370.726562 320.101562 370.875 C 318.898438 371.101562 317.625 370.574219 316.726562 369.976562 C 315.824219 369.375 315.074219 368.550781 314.625 367.199219 C 313.949219 364.875 314.699219 360 315.226562 356.476562 C 315.675781 352.949219 316.125 350.101562 317.550781 346.050781 C 319.800781 339.824219 324.375 329.550781 328.875 323.25 C 332.699219 317.925781 338.625 314.851562 342.148438 310.125 C 345.375 305.773438 346.875 300.601562 349.648438 296.324219 C 352.351562 292.125 357.148438 287.851562 358.574219 284.699219 C 359.324219 282.976562 359.25 282.148438 359.476562 280.273438 C 359.773438 276.824219 359.25 269.25 359.550781 265.726562 C 359.699219 263.625 359.851562 262.726562 360.375 260.851562 C 361.125 258.226562 362.476562 254.550781 364.125 251.625 C 365.773438 248.625 368.175781 246.449219 370.273438 242.925781 C 373.199219 238.050781 376.050781 230.175781 379.050781 224.625 C 381.75 219.75 384.675781 216.523438 387.375 211.273438 C 390.976562 204.375 393.898438 192.898438 397.726562 186.375 C 400.574219 181.5 404.625 178.648438 406.726562 174.675781 C 408.601562 171.226562 408.75 166.574219 410.175781 164.101562 C 411.148438 162.523438 411.75 162.074219 413.324219 160.574219 C 417 157.125 427.273438 150.074219 432.898438 144.523438 C 437.851562 139.574219 441.523438 133.726562 445.800781 129.226562 C 449.398438 125.25 453.75 122.101562 456.523438 118.648438 C 458.699219 116.023438 459.226562 113.324219 461.625 110.851562 C 464.550781 107.773438 470.699219 104.699219 473.550781 102.375 C 475.199219 100.949219 476.324219 100.050781 477.300781 98.699219 C 478.273438 97.5 478.5 95.773438 479.476562 94.949219 C 480.300781 94.199219 481.5 93.824219 482.550781 93.824219 C 483.601562 93.898438 484.875 94.5 485.550781 95.101562 C 486.148438 95.550781 486.601562 96.226562 486.75 96.898438 C 487.050781 97.800781 486.675781 100.199219 486.675781 100.199219 " clip-rule="nonzero"/></clipPath><clipPath id="b4f5ca4191"><path d="M 550.152344 229.195312 L 720.5625 229.195312 L 720.5625 527 L 550.152344 527 Z M 550.152344 229.195312 " clip-rule="nonzero"/></clipPath><clipPath id="568fee2371"><path d="M 715.949219 239.175781 C 702.976562 241.648438 699.375 242.625 696.675781 245.023438 C 693.449219 247.949219 691.5 253.199219 689.175781 258.074219 C 686.398438 263.773438 683.550781 271.425781 681.375 277.425781 C 679.5 282.523438 678.523438 287.476562 676.800781 291.75 C 675.226562 295.425781 674.476562 297.375 671.773438 301.648438 C 666 310.726562 647.476562 334.351562 640.5 341.773438 C 637.425781 345.074219 636.148438 345.976562 633.375 348.148438 C 629.925781 350.925781 624.675781 353.699219 621.226562 356.773438 C 618.148438 359.550781 616.800781 362.101562 613.351562 365.476562 C 607.800781 370.949219 599.175781 379.425781 590.625 385.648438 C 581.175781 392.550781 559.5 405.449219 558.824219 404.699219 C 558.601562 404.398438 561.824219 402.375 561.824219 401.25 C 561.824219 399.976562 558.300781 397.574219 558.449219 397.425781 C 558.601562 397.273438 571.050781 407.625 574.125 410.851562 C 575.550781 412.351562 576.148438 413.175781 576.976562 414.523438 C 577.875 416.101562 578.699219 418.125 579.148438 419.851562 C 579.601562 421.425781 579.824219 422.699219 579.976562 424.574219 C 580.199219 427.199219 580.648438 430.800781 579.75 434.175781 C 578.699219 438.300781 571.800781 444 572.925781 447.375 C 574.050781 450.824219 583.351562 451.949219 587.25 454.425781 C 590.324219 456.375 592.800781 458.101562 594.976562 460.5 C 597.226562 462.976562 598.800781 465.976562 600.375 469.351562 C 602.25 473.324219 604.125 478.949219 604.875 483.148438 C 605.476562 486.523438 605.476562 489.898438 605.175781 492.449219 C 605.023438 494.324219 604.800781 495.75 604.199219 497.25 C 603.601562 498.675781 602.851562 499.648438 601.5 501.148438 C 599.023438 503.925781 592.800781 507.976562 589.574219 511.5 C 586.875 514.5 585.148438 518.324219 583.050781 520.574219 C 581.550781 522.148438 580.273438 523.125 578.699219 524.101562 C 577.199219 525.074219 575.398438 526.273438 573.75 526.273438 C 572.25 526.273438 570.074219 525.300781 569.175781 524.101562 C 568.273438 522.898438 567.898438 520.5 568.425781 519.148438 C 568.875 517.726562 570.675781 516.074219 572.101562 515.625 C 573.601562 515.25 575.925781 516 577.050781 516.824219 C 578.023438 517.5 578.699219 518.625 578.851562 519.75 C 579 521.175781 578.324219 523.574219 577.425781 524.625 C 576.675781 525.523438 575.476562 526.050781 574.351562 526.199219 C 573.300781 526.425781 571.949219 526.199219 570.976562 525.675781 C 570 525.148438 569.023438 524.101562 568.574219 523.125 C 568.125 522.148438 568.050781 520.726562 568.273438 519.675781 C 568.5 518.625 569.25 517.425781 570.074219 516.75 C 570.898438 516.074219 572.023438 516.375 573.148438 515.476562 C 575.773438 513.601562 579.523438 506.851562 583.125 503.101562 C 586.648438 499.5 592.800781 497.101562 594.375 493.351562 C 595.726562 490.199219 594.449219 486.074219 593.773438 482.773438 C 593.175781 479.699219 591.75 476.550781 590.699219 474.148438 C 589.949219 472.425781 589.273438 471.148438 588.300781 469.726562 C 587.324219 468.300781 586.648438 467.175781 584.851562 465.824219 C 581.25 463.125 569.625 460.125 566.101562 457.199219 C 564.300781 455.699219 563.625 454.351562 562.949219 452.699219 C 562.273438 450.976562 562.199219 448.875 562.273438 447.074219 C 562.273438 445.5 562.425781 444.226562 563.023438 442.5 C 563.925781 439.949219 566.773438 436.425781 567.824219 433.800781 C 568.574219 431.851562 568.949219 430.125 569.101562 428.398438 C 569.324219 426.824219 569.324219 425.25 568.949219 423.75 C 568.574219 422.25 568.125 420.976562 566.851562 419.25 C 564.375 415.726562 554.699219 409.949219 552.449219 405.898438 C 551.101562 403.5 550.648438 401.023438 551.101562 399.074219 C 551.476562 397.425781 552.675781 396.300781 554.25 394.800781 C 556.875 392.398438 561.675781 389.625 566.101562 387.074219 C 571.425781 384 584.25 377.699219 584.398438 378 C 584.476562 378.148438 580.800781 380.699219 580.726562 380.625 C 580.574219 380.476562 582.75 378.449219 584.625 376.648438 C 589.125 372.449219 602.324219 361.351562 607.800781 356.023438 C 610.949219 352.875 612 350.773438 614.851562 348.226562 C 618.375 345.074219 624 342.074219 627.601562 339.074219 C 630.601562 336.601562 632.773438 334.648438 635.324219 331.648438 C 638.476562 328.050781 641.101562 322.949219 644.699219 318.375 C 648.75 313.125 655.273438 306.898438 658.800781 302.25 C 661.199219 299.023438 662.25 297.675781 664.351562 293.625 C 668.625 285.300781 675.449219 263.398438 680.023438 253.726562 C 682.800781 247.875 685.351562 243.074219 687.601562 240.226562 C 688.875 238.648438 689.550781 237.976562 691.125 236.925781 C 693.449219 235.351562 697.199219 233.625 700.800781 232.425781 C 705.074219 231.148438 712.273438 229.726562 715.273438 229.949219 C 716.773438 230.023438 717.675781 230.175781 718.425781 230.851562 C 719.398438 231.675781 720.226562 233.550781 720.300781 234.75 C 720.300781 235.875 719.699219 237.074219 718.949219 237.824219 C 718.199219 238.5 715.949219 239.175781 715.949219 239.175781 " clip-rule="nonzero"/></clipPath></defs><g clip-path="url(#d881792e60)"><g clip-path="url(#0eed5cc00f)"><path fill="#e7191f" d="M 12 183.300781 L 803.398438 183.300781 L 803.398438 585.148438 L 12 585.148438 Z M 12 183.300781 " fill-opacity="1" fill-rule="nonzero"/></g></g><g clip-path="url(#8f8926dd8a)"><g clip-path="url(#bd01069bc5)"><path fill="#e7191f" d="M 47.925781 67.648438 L 706.050781 67.648438 L 706.050781 238.425781 L 47.925781 238.425781 Z M 47.925781 67.648438 " fill-opacity="1" fill-rule="nonzero"/></g></g><g clip-path="url(#76a1bfe369)"><g clip-path="url(#5dd7e9bbed)"><path fill="#e7191f" d="M 369.375 532.726562 L 555.675781 532.726562 L 555.675781 749.851562 L 369.375 749.851562 Z M 369.375 532.726562 " fill-opacity="1" fill-rule="nonzero"/></g></g><g clip-path="url(#bdcaac9a78)"><g clip-path="url(#74bc7c64aa)"><path fill="#e7191f" d="M 520.050781 486.824219 L 755.550781 486.824219 L 755.550781 671.625 L 520.050781 671.625 Z M 520.050781 486.824219 " fill-opacity="1" fill-rule="nonzero"/></g></g><g clip-path="url(#25308264ac)"><g clip-path="url(#2f5e2e887b)"><path fill="#e7191f" d="M 517.875 648.675781 L 567.300781 648.675781 L 567.300781 736.125 L 517.875 736.125 Z M 517.875 648.675781 " fill-opacity="1" fill-rule="nonzero"/></g></g><g clip-path="url(#c135cfdbdd)"><g clip-path="url(#3e0049f49b)"><path fill="#e7191f" d="M 422.023438 625.800781 L 534.226562 625.800781 L 534.226562 748.949219 L 422.023438 748.949219 Z M 422.023438 625.800781 " fill-opacity="1" fill-rule="nonzero"/></g></g><g clip-path="url(#342d2b2a57)"><g clip-path="url(#ac72f8446d)"><path fill="#e7191f" d="M 208.875 299.925781 L 626.023438 299.925781 L 626.023438 485.925781 L 208.875 485.925781 Z M 208.875 299.925781 " fill-opacity="1" fill-rule="nonzero"/></g></g><g clip-path="url(#0ccb9d3b6b)"><g clip-path="url(#53c3ce3281)"><path fill="#e7191f" d="M 311.625 90.824219 L 489.824219 90.824219 L 489.824219 373.949219 L 311.625 373.949219 Z M 311.625 90.824219 " fill-opacity="1" fill-rule="nonzero"/></g></g><g clip-path="url(#b4f5ca4191)"><g clip-path="url(#568fee2371)"><path fill="#e7191f" d="M 548.101562 226.949219 L 723.300781 226.949219 L 723.300781 529.351562 L 548.101562 529.351562 Z M 548.101562 226.949219 " fill-opacity="1" fill-rule="nonzero"/></g></g></svg>