<?xml version="1.0" encoding="UTF-8" standalone="no"?>
<svg
   id="diagram"
   viewBox="0 0 900 900"
   version="1.1"
   xml:space="preserve"
   sodipodi:docname="neuroscienceImage.svg"
   inkscape:version="1.3.2 (091e20e, 2023-11-25)"
   xmlns:inkscape="http://www.inkscape.org/namespaces/inkscape"
   xmlns:sodipodi="http://sodipodi.sourceforge.net/DTD/sodipodi-0.dtd"
   xmlns:xlink="http://www.w3.org/1999/xlink"
   xmlns="http://www.w3.org/2000/svg"
   xmlns:svg="http://www.w3.org/2000/svg"><defs
   id="defs1"><linearGradient
     id="linearGradient1"
     inkscape:collect="always"><stop
       style="stop-color:#000000;stop-opacity:1;"
       offset="0"
       id="stop1" /><stop
       style="stop-color:#000000;stop-opacity:0;"
       offset="1"
       id="stop2" /></linearGradient><linearGradient
     inkscape:collect="always"
     xlink:href="#linearGradient1"
     id="linearGradient2"
     x1="11.180809"
     y1="455.67208"
     x2="888.24325"
     y2="455.67208"
     gradientUnits="userSpaceOnUse" /></defs><sodipodi:namedview
   id="namedview1"
   pagecolor="#505050"
   bordercolor="#ffffff"
   borderopacity="1"
   inkscape:showpageshadow="0"
   inkscape:pageopacity="0"
   inkscape:pagecheckerboard="1"
   inkscape:deskcolor="#505050"
   inkscape:zoom="1.3994214"
   inkscape:cx="762.45799"
   inkscape:cy="371.58215"
   inkscape:window-width="1312"
   inkscape:window-height="449"
   inkscape:window-x="181"
   inkscape:window-y="141"
   inkscape:window-maximized="0"
   inkscape:current-layer="diagram" />

  <g
   id="brainWhole">
    <g
   id="whole"
   class="part">
     <path
   style="fill:#c8828d;fill-opacity:1;fill-rule:nonzero;stroke:#150f6b;stroke-width:5.009;stroke-dasharray:none;stroke-opacity:1"
   d="m 29.176929,343.22098 c -8.86056,16.64965 -11.383336,36.12187 -14.199869,54.77095 -1.314157,8.70108 -1.405188,17.57347 -1.217114,26.37122 0.146508,6.85497 0.456919,13.76988 1.825676,20.4884 1.972185,9.68039 5.37474,19.05861 9.12853,28.1969 8.227085,20.02791 16.964432,40.16116 29.211141,58.01666 5.469648,7.97464 12.205379,15.12485 19.474173,21.50268 4.821901,4.23083 10.008432,8.24405 15.822684,10.9542 9.530353,4.44231 20.15094,6.09513 30.42835,8.31708 7.09524,1.53395 14.25382,3.06147 21.50258,3.44854 14.19911,0.75817 28.4329,-1.01054 42.59971,-2.23142 15.80991,-1.36245 31.47833,-4.07412 47.26533,-5.67995 6.48041,-0.65918 13.3639,0.63452 19.47405,-1.62284 3.36236,-1.24217 5.1769,-6.81233 8.72283,-6.28852 1.43161,0.21147 2.09001,2.10882 2.63708,3.44854 1.67405,4.09979 0.8858,8.81901 1.62283,13.18559 0.90946,5.38795 1.58764,10.88813 3.44864,16.02558 1.58638,4.37935 3.8393,8.54504 6.49131,12.3742 5.72609,8.26796 12.71915,15.66671 20.08273,22.51696 7.06042,6.56821 14.56852,12.83191 22.92267,17.64841 6.82178,3.93302 11.53522,7.26564 21.85044,8.97809 12.44167,2.06546 22.61001,3.63606 35.27522,3.65234 1.58317,0.002 6.41615,3.49006 8.13038,5.53752 8.23898,9.84062 18.8771,15.74786 27.42395,18.97937 4.27342,1.61576 9.16246,5.59848 13.25202,7.74128 4.08955,2.1428 8.89751,5.29182 14.52676,11.69146 4.0126,4.56177 10.32394,17.07081 12.2512,20.65702 4.27856,7.96152 16.13245,20.85252 27.26479,48.46262 2.78309,6.90252 6.01771,12.45258 7.76454,18.88742 1.74685,6.43482 2.00591,13.75447 3.65364,19.38043 3.29546,11.25192 7.32981,20.54491 8.14643,20.7353 2.86714,0.66851 7.52481,2.60936 12.69238,2.50012 5.16756,-0.10922 10.84503,-2.26855 17.67809,-3.05836 6.83306,-0.78978 12.11285,-5.02577 17.388,-5.55618 5.27513,-0.53041 15.84293,0.47769 19.76797,-3.78952 4.11449,-4.47321 2.44778,-11.93116 2.03813,-18.11888 -0.40534,-6.12251 -5.57444,-18.4984 -7.90795,-24.93613 -2.3335,-6.43772 -4.72083,-6.93729 -0.52574,-11.45948 2.85366,-3.07615 9.32813,0.0112 14.53654,0.71061 5.20844,0.69878 11.55867,-0.51007 16.09007,-0.62212 9.21849,-0.22796 13.73994,0.0864 22.13029,-0.0749 15.31248,-0.29441 30.7597,0.1405 45.89237,-2.21762 17.33589,-2.70143 34.72042,-6.68232 50.85422,-13.57659 19.80945,-8.46498 40.24575,-18.10026 55.20446,-33.60211 8.75211,-9.06989 11.30406,-19.46191 18.49608,-32.97961 2.11647,-3.978 0.39233,-14.27363 2.523,-17.9761 2.13067,-3.70245 8.11615,-4.42349 9.27838,-9.95993 1.61804,-7.70783 4.78484,-14.95085 4.37005,-22.90963 -0.20739,-3.97939 -0.22662,-9.40187 -1.42137,-12.62258 -1.19473,-3.22071 -3.56496,-4.23967 -2.69546,-8.0804 0.55714,-2.461 0.99787,-5.42558 3.01281,-6.94444 6.64391,-5.00822 16.58626,-1.63176 24.74836,-3.24569 7.48191,-1.47945 15.21137,-2.63326 22.11126,-5.88281 2.63121,-1.23915 4.92071,-3.14532 7.09986,-5.07138 4.26707,-3.77143 8.26929,-7.93119 11.56277,-12.57704 5.98318,-8.43999 10.53624,-17.87378 14.60559,-27.3855 2.63257,-6.15337 4.81036,-12.54081 6.28857,-19.06841 2.24315,-9.90591 3.38388,-20.07961 3.85422,-30.22545 0.36664,-7.9075 -0.30065,-15.83459 -0.81142,-23.73409 -0.73628,-11.38755 -2.7528,-22.67906 -3.24565,-34.07971 -0.34174,-7.90427 -0.0127,-15.82522 0.20285,-23.7341 0.24191,-9.13429 2.08276,-18.28907 1.21711,-27.38548 -0.71774,-7.54313 -2.49985,-15.0602 -5.27418,-22.11125 -2.56109,-6.50913 -6.69128,-12.29266 -10.34564,-18.25699 -4.74214,-7.73975 -10.78792,-14.68515 -15.01129,-22.71981 -8.31346,-15.81609 -13.73104,-32.99874 -20.08274,-49.69959 -1.21561,-3.19613 -1.80438,-6.66311 -3.44849,-9.66143 -2.27923,-4.15672 -6.26592,-7.1784 -8.72282,-11.23268 -3.19895,-5.27894 -4.80799,-11.38837 -7.70856,-16.83701 -3.16614,-5.94755 -6.72672,-11.69365 -10.54849,-17.2427 -6.15261,-8.93328 -12.12725,-18.17604 -19.87976,-25.76264 -3.66338,-3.58498 -8.02236,-6.42052 -12.37418,-9.12851 -5.49495,-3.4193 -11.78942,-5.44035 -17.2428,-8.92563 -14.78162,-9.44697 -26.02545,-24.15282 -41.58531,-32.25402 -7.09499,-3.69397 -15.14087,-5.24864 -22.92268,-7.09994 -6.73748,-1.60286 -13.99851,-1.03119 -20.48843,-3.44854 -5.48796,-2.04415 -10.13179,-5.89014 -15.01128,-9.12849 -3.75279,-2.49064 -6.82952,-6.10195 -10.95422,-7.91137 -3.09664,-1.35846 -6.56418,-1.82886 -9.9398,-2.02855 -3.25129,-0.19235 -6.52763,1.36548 -9.73709,0.81141 -6.94835,-1.19953 -13.20677,-5.12559 -19.27131,-8.72278 -5.31563,-3.15293 -9.09546,-8.79947 -14.80842,-11.157049 -5.48943,-2.265318 -12.09244,-0.337638 -17.64849,-2.434261 -5.15861,-1.946642 -13.79415,-9.128503 -13.79415,-9.128503 l -9.5341,-1.622839 -8.92568,-5.477092 -17.6485,-0.811426 -21.90829,4.462824 -10.75136,0.811414 -18.66276,-3.245679 -22.51696,-2.231413 -21.70544,6.491372 -7.70855,2.434265 -37.73111,-0.202854 c 0,0 -14.54283,7.509032 -22.31413,9.939916 -12.47975,3.903725 -25.87007,4.078795 -38.5425,7.302805 -7.70931,1.96133 -15.75321,3.46278 -22.71984,7.30279 -8.49204,4.68077 -14.80241,12.53095 -22.31411,18.6627 -3.95126,3.22542 -7.57295,6.94672 -11.96849,9.5342 -3.97142,2.33784 -8.25187,4.41676 -12.77987,5.27424 -7.77431,1.47226 -16.0993,-2.48362 -23.73411,-0.40571 -4.12906,1.12378 -7.71956,3.89257 -10.9542,6.69424 -6.57033,5.69094 -10.48827,13.93577 -16.6341,20.08269 -2.17315,2.17347 -4.41519,4.38666 -7.10001,5.88281 -5.92105,3.29965 -12.9101,4.14987 -19.27118,6.49138 -5.46752,2.01259 -11.64567,2.89382 -16.22852,6.49135 -2.74528,2.15502 -4.35797,5.48752 -6.0856,8.51994 -3.73175,6.55001 -5.48518,14.09165 -9.12854,20.69125 -1.69494,3.07025 -3.32215,6.32637 -5.88273,8.72278 -7.65473,7.16401 -18.93274,9.35305 -27.18261,15.82273 -4.28982,3.36414 -8.059878,7.42632 -11.359884,11.76562 -5.321139,6.99695 -8.717311,15.27328 -13.38857,22.71982 -3.757172,5.98935 -7.451731,12.04666 -11.765495,17.64842 -12.450559,16.16813 -30.984352,27.83101 -40.571172,45.84534 z"
   id="path1">      /&gt;
    </path>
  </g>
</g></svg>
